<mxfile host="app.diagrams.net" agent="Mozilla/5.0 (Macintosh; Intel Mac OS X 10.15; rv:132.0) Gecko/20100101 Firefox/132.0" version="24.9.0">
  <diagram name="Page-1" id="cbFLLo0eFX_HLdYKL4IW">
    <mxGraphModel dx="834" dy="1817" grid="1" gridSize="10" guides="1" tooltips="1" connect="1" arrows="1" fold="1" page="1" pageScale="1" pageWidth="1100" pageHeight="850" math="0" shadow="0">
      <root>
        <mxCell id="0" />
        <mxCell id="1" parent="0" />
        <mxCell id="4GKKFWEUCo8rr3pjgwcH-3" value="" style="edgeStyle=orthogonalEdgeStyle;rounded=0;orthogonalLoop=1;jettySize=auto;html=1;" edge="1" parent="1" source="4GKKFWEUCo8rr3pjgwcH-1" target="4GKKFWEUCo8rr3pjgwcH-2">
          <mxGeometry relative="1" as="geometry" />
        </mxCell>
        <mxCell id="4GKKFWEUCo8rr3pjgwcH-18" value="" style="edgeStyle=orthogonalEdgeStyle;rounded=0;orthogonalLoop=1;jettySize=auto;html=1;" edge="1" parent="1" source="4GKKFWEUCo8rr3pjgwcH-1" target="4GKKFWEUCo8rr3pjgwcH-17">
          <mxGeometry relative="1" as="geometry" />
        </mxCell>
        <mxCell id="4GKKFWEUCo8rr3pjgwcH-39" value="" style="edgeStyle=orthogonalEdgeStyle;rounded=0;orthogonalLoop=1;jettySize=auto;html=1;" edge="1" parent="1" source="4GKKFWEUCo8rr3pjgwcH-1" target="4GKKFWEUCo8rr3pjgwcH-38">
          <mxGeometry relative="1" as="geometry" />
        </mxCell>
        <mxCell id="4GKKFWEUCo8rr3pjgwcH-1" value="Azure Virtual Machines" style="rounded=1;whiteSpace=wrap;html=1;" vertex="1" parent="1">
          <mxGeometry x="480" y="400" width="160" height="80" as="geometry" />
        </mxCell>
        <mxCell id="4GKKFWEUCo8rr3pjgwcH-5" value="" style="edgeStyle=orthogonalEdgeStyle;rounded=0;orthogonalLoop=1;jettySize=auto;html=1;" edge="1" parent="1" source="4GKKFWEUCo8rr3pjgwcH-2" target="4GKKFWEUCo8rr3pjgwcH-4">
          <mxGeometry relative="1" as="geometry" />
        </mxCell>
        <mxCell id="4GKKFWEUCo8rr3pjgwcH-11" style="edgeStyle=orthogonalEdgeStyle;rounded=0;orthogonalLoop=1;jettySize=auto;html=1;" edge="1" parent="1" source="4GKKFWEUCo8rr3pjgwcH-2" target="4GKKFWEUCo8rr3pjgwcH-6">
          <mxGeometry relative="1" as="geometry" />
        </mxCell>
        <mxCell id="4GKKFWEUCo8rr3pjgwcH-12" style="edgeStyle=orthogonalEdgeStyle;rounded=0;orthogonalLoop=1;jettySize=auto;html=1;" edge="1" parent="1" source="4GKKFWEUCo8rr3pjgwcH-2" target="4GKKFWEUCo8rr3pjgwcH-7">
          <mxGeometry relative="1" as="geometry" />
        </mxCell>
        <mxCell id="4GKKFWEUCo8rr3pjgwcH-13" style="edgeStyle=orthogonalEdgeStyle;rounded=0;orthogonalLoop=1;jettySize=auto;html=1;" edge="1" parent="1" source="4GKKFWEUCo8rr3pjgwcH-2" target="4GKKFWEUCo8rr3pjgwcH-8">
          <mxGeometry relative="1" as="geometry" />
        </mxCell>
        <mxCell id="4GKKFWEUCo8rr3pjgwcH-14" style="edgeStyle=orthogonalEdgeStyle;rounded=0;orthogonalLoop=1;jettySize=auto;html=1;" edge="1" parent="1" source="4GKKFWEUCo8rr3pjgwcH-2" target="4GKKFWEUCo8rr3pjgwcH-9">
          <mxGeometry relative="1" as="geometry" />
        </mxCell>
        <mxCell id="4GKKFWEUCo8rr3pjgwcH-15" style="edgeStyle=orthogonalEdgeStyle;rounded=0;orthogonalLoop=1;jettySize=auto;html=1;" edge="1" parent="1" source="4GKKFWEUCo8rr3pjgwcH-2" target="4GKKFWEUCo8rr3pjgwcH-10">
          <mxGeometry relative="1" as="geometry" />
        </mxCell>
        <mxCell id="4GKKFWEUCo8rr3pjgwcH-2" value="VM Family" style="whiteSpace=wrap;html=1;rounded=1;" vertex="1" parent="1">
          <mxGeometry x="520" y="640" width="80" height="40" as="geometry" />
        </mxCell>
        <mxCell id="4GKKFWEUCo8rr3pjgwcH-4" value="General Purpose" style="whiteSpace=wrap;html=1;rounded=1;" vertex="1" parent="1">
          <mxGeometry x="100" y="880" width="120" height="40" as="geometry" />
        </mxCell>
        <mxCell id="4GKKFWEUCo8rr3pjgwcH-6" value="Compute Optimised" style="whiteSpace=wrap;html=1;rounded=1;" vertex="1" parent="1">
          <mxGeometry x="260" y="880" width="120" height="40" as="geometry" />
        </mxCell>
        <mxCell id="4GKKFWEUCo8rr3pjgwcH-7" value="Memory Optimised" style="whiteSpace=wrap;html=1;rounded=1;" vertex="1" parent="1">
          <mxGeometry x="420" y="880" width="120" height="40" as="geometry" />
        </mxCell>
        <mxCell id="4GKKFWEUCo8rr3pjgwcH-8" value="Storage Optimised" style="whiteSpace=wrap;html=1;rounded=1;" vertex="1" parent="1">
          <mxGeometry x="580" y="880" width="120" height="40" as="geometry" />
        </mxCell>
        <mxCell id="4GKKFWEUCo8rr3pjgwcH-9" value="High Performance Compute" style="whiteSpace=wrap;html=1;rounded=1;" vertex="1" parent="1">
          <mxGeometry x="740" y="880" width="120" height="40" as="geometry" />
        </mxCell>
        <mxCell id="4GKKFWEUCo8rr3pjgwcH-10" value="GPU" style="whiteSpace=wrap;html=1;rounded=1;" vertex="1" parent="1">
          <mxGeometry x="900" y="880" width="120" height="40" as="geometry" />
        </mxCell>
        <mxCell id="4GKKFWEUCo8rr3pjgwcH-16" value="VM, Vnet + NIC , Storage disk can be in different resource group but they need to be in same region." style="shape=note;whiteSpace=wrap;html=1;backgroundOutline=1;fontColor=#000000;darkOpacity=0.05;fillColor=#FFF9B2;strokeColor=none;fillStyle=solid;direction=west;gradientDirection=north;gradientColor=#FFF2A1;shadow=1;size=20;pointerEvents=1;" vertex="1" parent="1">
          <mxGeometry x="40" y="1040" width="200" height="80" as="geometry" />
        </mxCell>
        <mxCell id="4GKKFWEUCo8rr3pjgwcH-20" value="" style="edgeStyle=orthogonalEdgeStyle;rounded=0;orthogonalLoop=1;jettySize=auto;html=1;" edge="1" parent="1" source="4GKKFWEUCo8rr3pjgwcH-17" target="4GKKFWEUCo8rr3pjgwcH-19">
          <mxGeometry relative="1" as="geometry">
            <Array as="points">
              <mxPoint x="1220" y="160" />
            </Array>
          </mxGeometry>
        </mxCell>
        <mxCell id="4GKKFWEUCo8rr3pjgwcH-22" style="edgeStyle=orthogonalEdgeStyle;rounded=0;orthogonalLoop=1;jettySize=auto;html=1;entryX=0;entryY=0.5;entryDx=0;entryDy=0;" edge="1" parent="1" source="4GKKFWEUCo8rr3pjgwcH-17" target="4GKKFWEUCo8rr3pjgwcH-21">
          <mxGeometry relative="1" as="geometry">
            <Array as="points">
              <mxPoint x="1220" y="640" />
            </Array>
          </mxGeometry>
        </mxCell>
        <mxCell id="4GKKFWEUCo8rr3pjgwcH-17" value="VM Storage" style="whiteSpace=wrap;html=1;rounded=1;" vertex="1" parent="1">
          <mxGeometry x="1160" y="410" width="120" height="60" as="geometry" />
        </mxCell>
        <mxCell id="4GKKFWEUCo8rr3pjgwcH-24" value="" style="edgeStyle=orthogonalEdgeStyle;rounded=0;orthogonalLoop=1;jettySize=auto;html=1;" edge="1" parent="1" source="4GKKFWEUCo8rr3pjgwcH-19" target="4GKKFWEUCo8rr3pjgwcH-23">
          <mxGeometry relative="1" as="geometry">
            <Array as="points">
              <mxPoint x="1400" y="20" />
            </Array>
          </mxGeometry>
        </mxCell>
        <mxCell id="4GKKFWEUCo8rr3pjgwcH-26" value="" style="edgeStyle=orthogonalEdgeStyle;rounded=0;orthogonalLoop=1;jettySize=auto;html=1;" edge="1" parent="1" source="4GKKFWEUCo8rr3pjgwcH-19" target="4GKKFWEUCo8rr3pjgwcH-25">
          <mxGeometry relative="1" as="geometry">
            <Array as="points">
              <mxPoint x="1400" y="305" />
            </Array>
          </mxGeometry>
        </mxCell>
        <mxCell id="4GKKFWEUCo8rr3pjgwcH-28" value="" style="edgeStyle=orthogonalEdgeStyle;rounded=0;orthogonalLoop=1;jettySize=auto;html=1;" edge="1" parent="1" source="4GKKFWEUCo8rr3pjgwcH-19" target="4GKKFWEUCo8rr3pjgwcH-27">
          <mxGeometry relative="1" as="geometry" />
        </mxCell>
        <mxCell id="4GKKFWEUCo8rr3pjgwcH-19" value="Types of Disk" style="ellipse;whiteSpace=wrap;html=1;rounded=1;" vertex="1" parent="1">
          <mxGeometry x="1360" y="120" width="80" height="80" as="geometry" />
        </mxCell>
        <mxCell id="4GKKFWEUCo8rr3pjgwcH-30" value="" style="edgeStyle=orthogonalEdgeStyle;rounded=0;orthogonalLoop=1;jettySize=auto;html=1;" edge="1" parent="1" source="4GKKFWEUCo8rr3pjgwcH-21" target="4GKKFWEUCo8rr3pjgwcH-29">
          <mxGeometry relative="1" as="geometry">
            <Array as="points">
              <mxPoint x="1400" y="460" />
            </Array>
          </mxGeometry>
        </mxCell>
        <mxCell id="4GKKFWEUCo8rr3pjgwcH-32" value="" style="edgeStyle=orthogonalEdgeStyle;rounded=0;orthogonalLoop=1;jettySize=auto;html=1;" edge="1" parent="1" source="4GKKFWEUCo8rr3pjgwcH-21" target="4GKKFWEUCo8rr3pjgwcH-31">
          <mxGeometry relative="1" as="geometry" />
        </mxCell>
        <mxCell id="4GKKFWEUCo8rr3pjgwcH-34" value="" style="edgeStyle=orthogonalEdgeStyle;rounded=0;orthogonalLoop=1;jettySize=auto;html=1;" edge="1" parent="1" source="4GKKFWEUCo8rr3pjgwcH-21" target="4GKKFWEUCo8rr3pjgwcH-33">
          <mxGeometry relative="1" as="geometry" />
        </mxCell>
        <mxCell id="4GKKFWEUCo8rr3pjgwcH-36" value="" style="edgeStyle=orthogonalEdgeStyle;rounded=0;orthogonalLoop=1;jettySize=auto;html=1;" edge="1" parent="1" source="4GKKFWEUCo8rr3pjgwcH-21" target="4GKKFWEUCo8rr3pjgwcH-35">
          <mxGeometry relative="1" as="geometry">
            <Array as="points">
              <mxPoint x="1400" y="820" />
            </Array>
          </mxGeometry>
        </mxCell>
        <mxCell id="4GKKFWEUCo8rr3pjgwcH-21" value="Disk Performance" style="ellipse;whiteSpace=wrap;html=1;rounded=1;" vertex="1" parent="1">
          <mxGeometry x="1360" y="600" width="80" height="80" as="geometry" />
        </mxCell>
        <UserObject label="OS Disk" tooltip="1. OS comes pre installed on the disk.&#xa;2. Can use marketplace images, uploaded VHD or custom images.&#xa;3. Disk can be resized, but this requires downtime. &#xa;4. OS disk can&#39;t be attached or deattached but they can be swapped." id="4GKKFWEUCo8rr3pjgwcH-23">
          <mxCell style="whiteSpace=wrap;html=1;rounded=1;" vertex="1" parent="1">
            <mxGeometry x="1480" width="120" height="40" as="geometry" />
          </mxCell>
        </UserObject>
        <UserObject label="Temp Disk" tooltip="1. Temporary Fast Storage, Provided from the underlying Azure Hypervisor&#xa;2. Mounted by default for both Windows and Linux&#xa;3. Considered Ephermal" id="4GKKFWEUCo8rr3pjgwcH-25">
          <mxCell style="whiteSpace=wrap;html=1;rounded=1;" vertex="1" parent="1">
            <mxGeometry x="1480" y="280" width="120" height="50" as="geometry" />
          </mxCell>
        </UserObject>
        <UserObject label="Data Disk/s" tooltip="1. Used for persistent Data Storage&#xa;2. Disk can be resized without downtime for some VM SKUs&#xa;3. You can attach and deattach data disk without downtime(but you shouds" id="4GKKFWEUCo8rr3pjgwcH-27">
          <mxCell style="whiteSpace=wrap;html=1;rounded=1;" vertex="1" parent="1">
            <mxGeometry x="1480" y="130" width="120" height="60" as="geometry" />
          </mxCell>
        </UserObject>
        <mxCell id="4GKKFWEUCo8rr3pjgwcH-29" value="Standard HDD" style="whiteSpace=wrap;html=1;rounded=1;" vertex="1" parent="1">
          <mxGeometry x="1520" y="440" width="120" height="40" as="geometry" />
        </mxCell>
        <mxCell id="4GKKFWEUCo8rr3pjgwcH-31" value="Standard SSD" style="whiteSpace=wrap;html=1;rounded=1;" vertex="1" parent="1">
          <mxGeometry x="1520" y="520" width="120" height="40" as="geometry" />
        </mxCell>
        <mxCell id="4GKKFWEUCo8rr3pjgwcH-33" value="Premium SSD" style="whiteSpace=wrap;html=1;rounded=1;" vertex="1" parent="1">
          <mxGeometry x="1520" y="720" width="120" height="40" as="geometry" />
        </mxCell>
        <mxCell id="4GKKFWEUCo8rr3pjgwcH-35" value="Ultra Disk" style="whiteSpace=wrap;html=1;rounded=1;" vertex="1" parent="1">
          <mxGeometry x="1520" y="800" width="120" height="40" as="geometry" />
        </mxCell>
        <mxCell id="4GKKFWEUCo8rr3pjgwcH-37" value="" style="shape=image;verticalLabelPosition=bottom;labelBackgroundColor=default;verticalAlign=top;aspect=fixed;imageAspect=0;image=data:image/png,iVBORw0KGgoAAAANSUhEUgAAAY4AAAFlCAYAAAD8hw89AAABXGlDQ1BJQ0MgUHJvZmlsZQAAKJF1kMFKAlEUhn/NEFIoKFpEhFQEgYWYi1qakRVCMhZWmxivNgZql3Ei2vUErSJ6gugNhiCi3iAIKtpUm3AbwmxGuZ07U6lFF37+j59z7j33AN6gynnJB6BcMXQlOR/a2NwK+WsIYIg0Bq/KqjyeTqeoBN/eeawHeKTfT8m7Mqv1/tGPhj03fvliv2vib33H6ckXqoy8QYoyrhuAJ0KcPjC45CPiAZ2GIj6RrLl8ITnn8pVTs6YkiO+I+1hRzRO/EodzbbnWxuXSPvuaQU4fLFTWM+SDpGGkkEQIS1iAQp7FosP4pyfm9CSwB45D6NiFhiIM6oxTwlFCgXgZFTBMI0wcRYQUk7v+vcNWxmmW2TN66q2VbT8B5gjQe9zKJmr0nRXg9pqruvqzWY/lq+7MRF0OmED3qRD1LOCfBJqPQtimEM1zoOsZuLE+AYKnZlMsgyxTAAAAemVYSWZNTQAqAAAACAAEAQYAAwAAAAEAAgAAARIAAwAAAAEAAQAAASgAAwAAAAEAAgAAh2kABAAAAAEAAAA+AAAAAAADkoYABwAAABIAAABooAIABAAAAAEAAAGOoAMABAAAAAEAAAFlAAAAAEFTQ0lJAAAAU2NyZWVuc2hvdA+TaNwAAALvaVRYdFhNTDpjb20uYWRvYmUueG1wAAAAAAA8eDp4bXBtZXRhIHhtbG5zOng9ImFkb2JlOm5zOm1ldGEvIiB4OnhtcHRrPSJYTVAgQ29yZSA2LjAuMCI+CiAgIDxyZGY6UkRGIHhtbG5zOnJkZj0iaHR0cDovL3d3dy53My5vcmcvMTk5OS8wMi8yMi1yZGYtc3ludGF4LW5zIyI+CiAgICAgIDxyZGY6RGVzY3JpcHRpb24gcmRmOmFib3V0PSIiCiAgICAgICAgICAgIHhtbG5zOnRpZmY9Imh0dHA6Ly9ucy5hZG9iZS5jb20vdGlmZi8xLjAvIgogICAgICAgICAgICB4bWxuczpleGlmPSJodHRwOi8vbnMuYWRvYmUuY29tL2V4aWYvMS4wLyI+CiAgICAgICAgIDx0aWZmOkNvbXByZXNzaW9uPjE8L3RpZmY6Q29tcHJlc3Npb24+CiAgICAgICAgIDx0aWZmOlJlc29sdXRpb25Vbml0PjI8L3RpZmY6UmVzb2x1dGlvblVuaXQ+CiAgICAgICAgIDx0aWZmOlBob3RvbWV0cmljSW50ZXJwcmV0YXRpb24+MjwvdGlmZjpQaG90b21ldHJpY0ludGVycHJldGF0aW9uPgogICAgICAgICA8dGlmZjpPcmllbnRhdGlvbj4xPC90aWZmOk9yaWVudGF0aW9uPgogICAgICAgICA8ZXhpZjpQaXhlbFhEaW1lbnNpb24+Mzk4PC9leGlmOlBpeGVsWERpbWVuc2lvbj4KICAgICAgICAgPGV4aWY6VXNlckNvbW1lbnQ+U2NyZWVuc2hvdDwvZXhpZjpVc2VyQ29tbWVudD4KICAgICAgICAgPGV4aWY6UGl4ZWxZRGltZW5zaW9uPjM1NzwvZXhpZjpQaXhlbFlEaW1lbnNpb24+CiAgICAgIDwvcmRmOkRlc2NyaXB0aW9uPgogICA8L3JkZjpSREY+CjwveDp4bXBtZXRhPgqHt5lSAABAAElEQVR4Aey9B2BcxbU3/tvdu01adcnd2BhXTDcdQg8kgfQEXiovjZBCGgklARLyASlfCuTlhTTyePknX/JIQuCRBHg8SkwnhGYbA+7G3bLVtX33//vN7N0iS7ZkJFsSd+zV3r137pmZMzPnzClzxveuf/lI/tzzTkM2k8N99z2C555dhlzehw9f+A5MnDgR4VAVvvWtHyKf8yGbzeCb130FPT0daNuZxE9vvhWhUAgLDp6N8847HRnCeOjvj+OZp5cgn8/jAx98J6ZNb2KeGL7z7X9DOpVHMpXGddd/Cb09SXR29uIn//4LPq/CvHkH4Z3vPhvpdBoPL/4nnnjieSAPnH/BWzBjxiQEg1H88Ic/QSKeRjKZxre+cyW6u9sR783jhz/4OcLhCGYdNA3vec+bkM5k8fjjT+PxR58G4ODd73kzDpo9FUEngptuuhVdXb1IJVO4/ltqSxfh5fCD7/2YMKowY+Y0vP8Db0MqlcJTTy7F4r8/QRgBvO3tp2Pu3JlwnDBuvvkWdLT3ME8W199wOXp625HLBfGt6/8d4UgE06ZNxAc/+Hak2JZnn1mGBx94GD5fEG857wwsXDgLTiCMn/3st9jR2k4YGXz92ktMearrDdd9jzCqMXnyRHz0Y+9l3ZJ44fkVuPeexfD7Azj7nJNx6GGzeR3Crf/xO2zb2kqc5XDVNZ9n/8QRCtbgmqv/LyKRKrRMqMfHP3G+wdeLy17B3X+7HwGWfcaZJ2LR0QtYJwe//s8/Y+PGbcikM7j8iovh8+cQCVfj6quuRyRajcbGBnz6Mx9CItGLl196FXfecQ9xEMIbTl2EY4451MD4/e9vx6vrNrP/8/jyVy5GMJRFdVUDLr/sW4hGo6iti+Gzl3yYMBJYtXI9/nz7XwgjgpNOXoQTTzrS4PcP//VXrF79qhlDn//Ch1l2GFXRGnz1ym8QRi2qq6vwpS9/AvF4D9at3Yrf/+4uOMEgjjvucJz8hqM4Vvys291YsWIN8QCW96+I1QT5bj2uvPx6flcTr0HWTzAS2LBhC3732z8SRpTtOAxnnHGcGfd33fkAXly+CrlsDhdd/D7U11cTlzF8/ZobiNsI6x3EV6+6BL29ndiyuYN9cBvHZhhHHDkPZ551IucJcM+9D2DZkpc5Jvz42Cfeh+bmmIFx7ddvJH4D8LHFV13zWdajC9u3teFXv/otYVThsMMOxpvfckphLj5m5yLn3Yf/VXOxyYzPb93wfZYRYBvznItftnOxLY6f/uQ3ZXPxVGSyaTz00GOFuehwLr7LzsWg5uK/c2xmOQc4F2/QXOwtzMVf9jMXn+FcfK5sLk5k/4Y4527mXMxwbGWHcS62G3g/+D7nUaiac/GA1zAXbybOHUydNrkwF1Oci0s5Fx81Y/Yt574RCw85kHMxxLn4G87FNuKEc/EbmosZQzf6nYvPrcS993IuBoCzzz6lMBedwlzcwbnIvr36C8jmNBercc0137FzscWdi1kMPBfvxKaNm0m/0rj88k8X5mK0bC42cy5qHvVwLq7HnXfezfoHOBePNWNY83ngufgdzoEg52IN58aFhBHHqlXr8Oc//dXQtJNOPo5z8Qi224/b/userFm9lmMog89//qOcixHOxZiZi37iK5/LklIhSyIPThohi6OeHw1+J1DN+xkO/jT8PjINPvH5Uxz0AUMk83le+3SXRbHCuXyAdJ55/X5zTwRIcLPZIIlS3iABvhTvJUnAo8xPYksYZhb5mJcl5HKEwwnh9zu8rXuqR5SdkIU/lzT1EPCAw7qSUOSyDuEnCDth4Kg+ekdlBGw1WEe2gQ1S3gyR4mceCztriGxXrpXl8i22UbhQfjFJFsl6EBE+wlarHT/rkYGPz/x+5S3UgzBzbGM262M9+Jz1Zg4+DbIevbynGvG32k6gOb6fybM9fo4wX5z1TRnCk0h0MR/fNaCJL1MP4jorQqP32WY+DPjDhmiA71lU82mAsMjslTfDfD5/knmVvYofP+uhvlLfMvG5+jpr4AYIg2WZ3s2yX6qRyuzggCH+TUVypp55A1sAiRSfYGdYD5bH9ghuAR2sB3HHItTn6bTFhx1TGiMR1qOT76oeFh854jNHvOXV7oBgxw1sJxgi7BTrob4VQjgmBLvQ5/pWHTQWxUDVV8Ivm6oL5tU4Y8nCB4mBxYfghMk4HYMP9TUrz3vsE+GDxNj2uSAIYA7BQBXrIVyxHrZjDK4tPoRXtt+MPfUnW5HTmNc1X2fSeNACyoy9tN/8JlbMM82vXK6dz/WTVIjl2fnG0jke/X7VT+M6x4mtOZdmPewcUO0CjvrczoFclrCJDy08/D7m1VzkHNA8Eq5tPXJ838/xwToTP74McQTOReE638aPxiOzszzNYzE91VtjnSNWPVCYi+xvcmYtYlTngMPxYOrB+cH6WXywP9V25sgT7pDnosYH335Nc5HjQXi1c5HEzsxFi3v40qZe7C7ORTvGhWvVNcjFQSKxw7TNdrlbj8Jc1E2+r/ldmoukLKbTNfaID9Zd49rMRUM/1D9pftQvcX4PNBfVs/xwUASdGs7F7YW5KFyzJ0l/7XhSHZRX4yNg8LvnuShaq/HAOvqihMO5aJJgic6nzPgXfM0fMxfZ705Q7c6wHnxOOvKNa67hvODjgxYck3ccDVQ/Oa391gQQJxMxF+FJJgmAKy2imYUKOWqInxKEJqU6g1M4wAHGxuQ14ERoONCFY8exREirzQBHUJYruRBXaKZTDGyX2WiCaKBqQor4cACzHvrtD5ghaFYjAQ7YPOsRMPc5MAhIq3K340QYfD7mZx0kAWnAa+hr8omwmLx8R20McsWqAa62pLhy8hGmktquNtpOErEXXthuMQG+m6KEopWjBoifQAOCzTJNGwswxGgMY+Uk1gDN8o8wZfDBPJJoVPccJ6FWzsqrgaVVXIB4EGxTjwLhzDCf6VS+Y+vB6S2GzPLtfbcePq5k47b/WF1H9VC9WY80V5l8oawe4D1NApIA1s/iXwPSx7awHqafOf34LXwrZTKWIJhxoFtslBYGwrPFh8YC+4Blxnt7DUzVz+Jfk4LEnIsD3VMKanwQtuDypqmHfd/iI96bNvgRbPW9xpmuTb3VFn4MYeJk5PhmIk4JR/UTHvW8l/VQObpvy2OHsB6SGO34tf2iJmaFZ+JC+FC7/QFNcuKDkq7tF+KDGV3cSKpUGaqVqRvHgQi5xoxaqGeOiw/2i94T/NLYY7+wHszI3G499L6tg6kHyxM+BSuZINEOaC6yfsV6cPmREtEWjP7mIseeqYfmgL84TjUmQ4WxJwJkYdtxrTpriKufXJz0PxctPjRfbP0SHJ+CwfuO+seOPTsXVTtvLo69uWjnWZbM40tf/AL7twu+H//ilnxNrAZXXHEtamK1HOwasCIeIgSWMmjwaFBoYvNCY4JJ00KDovye8ttBaggDiXcxv/Ipmfc1GfXbhakRKrjKr2fKViIu5r7Jq3rpoR2Y9gf/GtCqR6EMF7abwdRDP/i8oh66pzrrvfJnum+T2u0SOVsP3i+2WXV2U/n77n2LDxExES37XiG/inSzmVuFHy7s8jora0U99AJhc3Vr8SlgZcn9aUBWFGIzlcN2yyu+rjozCbZSn9cr69GnzqaP3HcK7TUwXCAWHxoCKpYUtFB/XRfaaPrCvKQ/Bvd27PElFwzz6NJtpslYwIepn7lRemrGr94w7xeBCLgtvxwffLcStn5pDJDJCG7Z6/anJCa3rD4PlaEMtq2HYLj5hA+1pQDB1Ecv2dQfrg0M874LQ3kL5bvtMa+7uC6M33LYu1S3AMt9v6zOArVrPZh/gPFhihZ8A7K8juZJBT7sIDAFFB5afJj2qC5KZSB2rQefu3Uuzyh8FN93AVh8eHOxEh97novCm02SKD/3uc8gGuFC0C/1ilmpaOVqh7BWBXZqinhYbmM6s0iYLSCTrzgJdM/mL3WaZQImN+urKtvhoKtCA8z7ZQTEnQTmJfdPAQ7zWhgFolZ4bBpvrgswXdju68U68jkZk4XhPrSwdm2L+9yF6f7mt0SXvmXoDrMWhnshs8VH8V6xHvb1ynoUXnGZYrFYXZThsZDN4JrwLIxiZvN013q4LxUGQTE7LwbCB4EU6+2+XvwuArB3yvFRfMS6EXYlDHd8FACZ99xrF3gRgLkhKcxeuM/d70rILj7cp+X9I4LTb9oFtvL1xbX9PSAMA7g/+LviuqiiKFbGHceF9/vW0zSxErYkzPK2uaDMzK1438V1AU/lzwhSUPtisLggKxapC7W/PGcBP4TXHwxzr/i+Wzt974qPAcceIefL61sE0w/ggfDBrOW1dmlT8V45fOYV5OIzt7xBjQ9lJq6L+Kiso4rZBa6BPwR8EEj/MASosrwK2lR89FrmYqnkEO2BN914M0ukdkINk5GMEiyTiCoveM9WVTeLpfO6BMTet4NHb9pUymuvSr8rc2jwFRDnPih+l95R3WwqXpiffUvVzVIO1bH0y7ywS73Lc5Tylq7sW+7fEtEQbBd+OS6KOfuUXIJYguHmtd+lHIUJWVFXN6/NVQmj9Gbpys1f3j7dE2zl6r/OylGC0d+VcpRSqV90b/ewS9CUt/SrdKX7pVS6vzt8KH/fUVB6s3RVglt5tfs6W+juG3uGVplDsDW2B8a1C3lo+BA8fVRa/7Ar61H6Vboqlayr0v1B4KOYuXhhgFX+svAr7+0ZH6X8/V1ZmO7f0hx4DfioHMAu6D740O3+8awnpXqYX/pjUqkF7p1yPOveIHBdfLUErXRVfGguKpuye9iVMEq/Sld9YJufgmlTnhqCYJDqX9q0fLMXHJ2XV4gkOxmh+8WV+6ZptPtDxQ1UpJvH+/Yw4GHAw4CHgfGAAdnbpk+fzmURJQ6ppNJpeeiQixSkjYEbWc4oPMYxMJ68Jx4GPAx4GBhfGJD8dcEF59PBhA4r8tyRUdnYN+gJUimCja+Ge63xMOBhYPxjQEvakpLJVYmXVC4DYaB8Waz33d8lWAO9+fq4L8cCeTMa9/5f/fr3RlV15ZVXo6oqVobw1wcyvFZ6GPAwML4wIB+evPHOpBYlTzdscgAZdEup/Lp0t9z3R45lxoudj3WtZL7kQFRhWBBbKWctLqMyr/BP/2W5T8fStzz6Tj3tVAS478PJZLqoprKYkbShh17yMOBhwMPAWMKAIc8FAm9cE0jgLQnn3jMac0X8lUdMRMn91rUYhG5r95ThAQVvwIwBoCd0xBBZNAzDutabuxUMRC+P76R9Xov/vtgYx53t2zu5FZ1I41Zyi2rXRXB8I8FrnYcBDwPjAwOGprMp+tbGYR93zCfoSsvtw0iTY9Q1NCBIIlfX3ITqpnpEYzEyDnIFLpK1UHa4YZH7EhidgrvYaO/d2boZO7ZsRryzC71d3OzGHdNBwuN+RrEQ/nt9Jm0EVVJUEN+suUfntftZ3MR4Vb3OuOjrcwh4rfYwMDYxIFdQxggwkQHk2KMNBAqekquqQaSmDi3TZ+DA+QtQP30mglS9p7kgTjCCRJxx1LKkczlpVwpbg/JiFNqESo4jWFo6N8aiaKqlyynj3VWRWVSHuUs/1Y50dw/WLH8Zq15cjrUvv4J4x07eTyHEsAWWZBogRKqkE1tAzoTFGZt47q/Wsm+ce+5b6JLLaBdWTSUEepJGf8jy7nkY8DAwOjDgk76JhF777FNSLDEY6IQFh2D2UYtQM2MWcmQS7Yyv1cvqxhljDAxtw9WwrbxRx4u482NC07htks1C19oAzeCc0RCDDDIPuUuKDzoSDCmDaqCqGjVHt2DRohNxOoM1BZMJrF36Ap559BFsWbUCjLhqQrQY0wrfzpUbTAR+TCer9FMkmYMXzqfEwVBCxx23yMS8efTRJxlbhoH5xnQDvcp7GPAwMB4xILWTEjcOoHbGPCw46XS0zJ2PNjKLHhosOrnu9fObpnAjUEiCsObawSiWGAeN3KSpppq0UEH9FCBRSYxGMoRlVlJSMXYnI3zzpr8a/vlH47h5RyLX3YmNzz2DF594BN1rV3FFrtdUA5U9fiiq9nEohpn4hO8Xt/46r9DpX/vatSb09Phppul574+HAQ8D4wADOUZ2TdU24eTzP4jI1FnoUDBV2SlIm8sN4wHLLUivJUnoiUvRKhlI+S+xhWpGI55C+4dlPVSAuXAIQdGS3QCoSaq9ulM5dDI0P2Od2kTpgluoUU+dVXLdy7j/t/+BKEPmi3VIsTb2k2Xaio7b3NzC5lBVlWW4ch+5J/8wVA1DTtsQo2O/rV4LPAx4GBizGJDtQkRfGqYkQ5RPPek0LHjTW9FB2SAuG4JRPSmXyLOyWuKmlb5JxvBgYZg7JhPzkCGYqNsF+MouxlDDcyrIiShxSGllmZHcbgP+IOIMzd9NRhFnFO4UozhnJdOofD43DIbvpUk/t9J4HJ46G2+64jq8dMfvsOnZxwlLpZvCjfcWs47BJObH6Me0AukMIfWL7+Qzzs3rwJF16zbwJ1FiOmQMts2rsocBDwPjCgNiCVJNTTv5DEw//VwkqZbafRJVLjAOQ6z1m0SPRm4fz23JI4L2tgR27uxkmHwyARq3TX4+r6upwsTGakyd3IAIz+Xwh3PoYhj8BI+U4GkVpIyWAeyJ7meYIUAmVsvzP1764/9D55KnaZAvsA6CsPaU3bdiND6l7xkrr/D9vfwiw5694AT2D1tLw5Bc0+y5FqOx6l6dPAx4GHi9YEAEWiv/9kg93nzFDdjBX0NT+4jQC4KD7a05LF2yzpzPI5UXCpsC+dAky2p0ogwZBtVbQT6PRNM8XXIhz4LpMUxDtm5XWtC+jwETM8qITyEJk6jB+evlFyHKIv0CYPaT7O7lAaHu5weS63TqZJKnhH6Rdg71hTgpGYbCVxdDWO/nanrFexjwMPA6xwCJL22xmHX4EehS6G5xkiElvZDnEc9JPPPUGrrjRkjMefKdTuYkrbM+ufZblgj98+V5SmWumoyCBveeKB68f4mVVspo/W6ZBqFai4YJAohtPJ514sFkPjS4C0TljnPeGDNJZn66J5D55cg80ule+L946UW44sovmrOczWldY6YxXkU9DHgYGK8YyFELkg3Rg4dnxZMMc70rIj9wciUUyRjmQ0qtdXJNfQT1zTyxkUovH7UqOkAyHOS+NUoWRrogMeS5pMxMkm+4QsEQziOBpx/URGZTKndPTEOMys9FuIztWX47oTByoVpe88yjwt6OgVswmp+IHapV2mCp00q5GTLAs57tXg4X5ZZnjuZmeHXzMOBhYLxjgMcDUzfU1taDFsMKdJb3wKlcIBGBy0mDQmIXpIXiDSccxJWyD62tdJt9dQd6e3p52jq3c+isdn5k19WZ9/5gDg311WhqrsGUlhm0i/BYZe4HEbzBJSvlSPMvCUmBY3t6dUQ0aevggQyuqP2QK8Ad+d//3g+5NYa7aLRFPxAh4njmtc5MLuwq3w/V2nORLu7LB0l/bw02X3/vevc8DHgYGA0YoPcTjbBdXRm07cigoZnGbapJ9pS40DfJz13bEUbDqKuKIBoWEwFmTpiIYw+ZQqLOM+7JWDZtbzPMQ/sEeWA27yuulV6XFBI35evapScG8B7+6E2pdHyIYfmydWRKIUocUvWoBkOBtIeC9tPjYChEZhyC84Pv/8ps6ohEqoyXQUBh1kdpkmubDGTaDKSr8o7wa0cpWb26TE+U5KynO0r6LuWxTnLmQdkf5dwTUyrL7l16GPAwMMIYkDfPP55YgaNPmIX6Bhm2FeHCJcAuMeasL9yKhMOorq6iQTrD+FIMHaLD6bSL3FAF0gjuRcjS+N2ZyCBJXb1PxnLOemvuFRCrcZFx2xID3nOL463K5JZfeTebC2LNym3YuK4Xk1UuGYdNAwKqBDBKf2kD4MRJk6ihUq/Q0p/h3g3FWvePUqYhkVO+0xNiOSxqCeHptb3Yjnp2SS8HAePJUH953MwYVrb2oq0riUUHNRvL/+KXNiPrxDgW/GhwenHEgbVkjnk8ub6HoixXMOxP2XWCvW1wwg66A7UcgJWDwYsWPEpHsVetcY8BKpLMngsfz7p+4unVmDAxhkMXHsCDhCgFZBOGFQRIt6qiQdRHuBKmhGESmYtPLqM5hQuRxOAuH/mU9C5NaWNnTycnvxaQIublHwvCZUTiHmVvW/C8Y7iK8ZKiNyp/5mXD4EvJRAgvvLARjI9Ihy5uC+Qu9AC1OawRb4gp6XusJbsUz1Pt96EPvR8hh07SjqNt5HzADhitTVLHyYDVwAFx/QXzccq8GmTTPewsDa0cDp3s4NsfORotdJ2LZFrxnfcvxPf/ZQGmBjvgU+cxz5lzI7w/D1+/4DBaeOiZzfZGcz04e7aDuy47Hr/+9NEIJLrZo2N7VTDWhqRXXw8D/WFAMzvCWR/MpEl4Oct91di+FVj84Cq8tLwVsWAtpnGn98yWerQwmKFD/btUW5JIzKY8TmOX4Lt0TcdG6NPbG6eevi8RH9y8t1qNAqshQ1CAkxxVN909fjz37FY89PAa7GxPsL50YKXeLN/bbjQh/bVxrN0zrI8SXDqdhHPplz/HUCM1uOyyr6GagbyI11GXjBTAiq1uzWJnIokPnz4fdy5bari839eD0xZMQVdnJ9bs5A5QBooJZGiQSnfgrSccgpsfb0WAu+NPOWwuspQswr4aelT4EAxk8NOLjsXMJj/at21DlGFXHMqnbpSaUYcEr0IeBl5HGJAkID1Dz5bVaJzegVSgketdreyDWEuNw5Z1SzChKYTDDp2OaVObEfQnzT6NgMOVP+22rq2jHGVGe8C530Fa4QsoLp9kkT0TPGP/KADSfgZtKAwEwkgm09i4qR1rV27ljvIw71M1RjUYSauJd9WY2Y7k1tUImSL0Z89lldd3tF37KWC88PwS2m2oqspQ5Muo0UyjkWmoXqaz+DfDlcXflrXhI8czAHJ8K/LVk7lZJ41TDp2KJ154FT2owQGMnpIJRvDPJS/gDcceg5898DKqqIJbeOABeOzpx3Dy8Yez3zkku9oRYSjmd3zj/+HDZx2FMw+NISnBSwV6ycOAh4H9jAHORAoB0Vwbupf9DfWHvZWbAOvJTGitIAFLogrrduSw4cFXmW8VGiIJzDxwCubNn46meqqcs2nyD7EaSSGydtrtg62tO6ihkjzDuS6phBeCWZkKKi/elByS8SlqoWwVfnR3pLBhYxu2b27lypuWEUfhmhiuhDmtWpseR2QstekdSD53J6q4aM2RSdnSVergJBtmHH2J7X/wwb9TqGOsqni8h21xjI1j9NXU1siGKGbnUwz9wyNr8KGjanHcjDAeb89jctiHifV+/O+yV7kqqUFtfZSMP4Lf3PUcbvjmKfRtSGBWfQ1C9AZ4nCLuqSfRI4AHkfRUt+Ad33+YkSxnIc8dnkqDW3/YOnl/PQx4GBhJDJAQUxXk55yv7VqBnuf/iElHvROtuRjtmiESeyqiSPlz2hxIpdb2dBTbXu7Bky8tp20jx7Ah3VwYkoCTHkxsbkBzfR3CsSr0JKto3KXEULZKFim3dgraKBSPis5bPQyT3knJpKOrm5sBs0gkSCydGi46WTYZQx61VPFTuOHLAe3TMKwoT6VVGjWZbUg8+Xu00BaQIW0pueKMVaahPRykkeITDAbpp/et85Mf/8bo+2pqankmBztLXgijLMnCIVtGhgevbGsLUZ0UxbvOOBIP/b+XcPT8Jp7SlcTzGxLs1Fo01NL+wYHzytaE2exzwsIpmF4bxJJXW7G2Q8uLDGIRqqd66ZtFvagWAEb3OVb7dJT1lVcdDwPDjQGplKq6XkXbQ79E/ZyTkWqYj2SIGgIat8VAHK6EpdiS+KA9E0HaNSmroJeHMfVsy2PLjl6ks7R3ksnkGJ9KocHLp7uuVYaS9l4Yz1JxEv73+2v5h645EUMqmEPGcEWuolqKZdp3tUUxjapkG4JbX0Zq9SOo5b6QNMsv+Xga8GP6TzaXwJlnncYNlNwAKHTINp6RXcBwYYlToy1ZWcBHTpcOR3H3s60458iJqOJgOO/YRXh+9VbszMbYySm0NDYzMFkKqeoavLhmE9569AzUUCq5hx5WXeSJfoqw1SH6dXMVkWV7rYf3aGuvVx8PAx4GyjGgCLaNtGdmV/0P8qFn4Z+8EA0TZiERaqKKOYaUmIg50U8bB0nLzMsk67rgfTEUqaaCjoIdMvG++ealvt1rMR/t+uZa1dy0p6LqqViA6BCv6KUZoPorSIVZiPs9QmQY2c0vI7vhOcTIVCJUhYvBpEledT7I2E8WGdppf8gh84lDMuvDjphPxhHGM/98npxWGUZj0nqAHccOzZH7/+7vq3DBsS04uCGO+dMiuO6BjVQ5VdEIHsfkhlr6Z1M6CTbgjgefwVXnL+JAAp6+cwU66YqbpjTSEKWoyZMfxSjz3PQj7ywtMATfjKgiCorDqXjHu/Aw8HrGgJ0RlhBbPIhmiJz2l+h1xPkmNY5Zk/aXZQj35CVFT1w4qc1IrtqE5NpqxKsbEJvRjAkzZ9AVn6qobAuy/kbxCh1vasoWBxD51paDgJgLryv3g1uGoEWkdceXF5ekGVcOke8Uy6Z7b4A2l0hgB6Y3BrB+6RJkt25HvqeL53kw3LqPO83FXkRHyKXEaHRtF+RDaOioyyr8CG/cukDnI3NG+1vefCaCoRo8/tg/UFVVxSrboTGa6u4OS8Pt6S+9vD2LrkwAX3nrEUjThXbxGu7n8EfZsVlMpKoqniS3Zxz9Z1ft4CH1dOPbSYPWlm4EGKMmSY+L6Qyf/Ogmbv4ht8jT3pFTnBqipvRxW697o09159bO+/YwsO8xQPLq30k74jYSRNIKLroGphlc3aebOc/qmUfzSLRlb+mL5qLKovtrPolAaDMOO7gGp7+xFvMOziARexUdvXVYsXkj1m4Atu10sLPLh/YeSiPZajIK0rY8Pzx7yEfPLLNSJDSbLIMIkDHInddP+4jfSfM88Tg3ESbQWJPGlIY85kwOYe6BVZjUBLoAJ5HtmIFlz+XxP3evw8svxsnU6sgoBFpkVilJZrWnUPC2BqP7r+gjMU8V329/8wdKcJQ4skRWlKKHNnf4GLNFB7iP5iQO7o/U4Z4XduDt82vxzw2d2JEL03AlETONCHWRbV08fcuJoo36yW//92p09eSQpN+3Qx2d9I4TamlAz9MpgNKLxE52tfkf5ApFawYveRjwMNA/BqTcnTwti6uuO5OzRiFA+tILu8LW8QyObzIuuegviHfXcVkmDyd3cdY/7IHvki6ZlTulF2c93vqO6Tj5jDcg1pCgG2w3CXUHIvSjjwZ9mDSTXpYzGOWWHpZJbg3uydbQIM5zyBMO4iluGabrZDLBIISkhbJnuMnHM/zqY7WI8czxGGlITdSPap7JUc3NhdEAJQ1/N138qaagIZx6KiR5sFMukMLcI7OYc/hcdOyM4Z6/Lsf992xiuycxn9xzWTcWUCrFLW2sfRf6mF9bt3IzDXHn3P6n+0h0Q9x9GWWcKsWjp6vAKE4S+xRP5pb7VyCRn4MHl26mJMGQyXl2JI3dj69NYmfbTnNwfYpudLc/x9WRBh3Vcex+3PZ8HBu6Q1y7aDCSd/CdF7bkkKDbXIZSiitmSrzedVKMYsR4VXsdYGA0jEkpeeJc8W8j/Uj0M0e0ereE2aFeyeePl/WLCNDQyKjmuz7J7Da84bQaXPCBkxCt6UIiswWJtFRBlIBoV9B8FSPwUwLKUiJRrKkwf0epcmqMktbxo9KNOqoAs1gVwghQEqmvnkRawc3BhGFqSQ1GngtL2UcyPPlP7U6lyKzSCZaRYj4yMkpdyhtpaMW7L2zCW941G//5syVY8ozkI2tPGVqLy9A1yi5FG3X4lTQ1vtkHH2/kNMUfoTrSdNIoq6/pcHW6SVQrqfPz7MiA4s7Q3SFPgp8zLnHkhPQx5rig6kocnxdiGmKRTGZgUerQQEibGDXKQmgMCyD7Rpaudj7iwTIN8wrfKZZsb3h/PQzsFwzYhY5ZJWtc90l8yjsjP1Y1dyZOX4dvfm8OCWgPF5r1SPVOIu2wxNtPw7AT3k7G0slNeZQ4PvYIEl3zOI+GqvI1FgJKBnSFzbK875yFAw6KU2NAQ7S07dSMWIGBGgOpzArJ3qNWgvNW0SEC9obxtDTnhkurwvvWH8qiTGyiuZHBDzMM4c7ycmRIYYdwuYbOkTZ0xxkMUUfGkiHJBdicgFfWBSrCGt/lqckfuVr849EAfnHTK4iFJG2pfmq/Xip7kb/GUkpnEvjKV75CQYN01u1QK7apgaNU4ijiW8YnThFKClltzGGS2UYdp5TlZr8i4TdE3/BF80wDLMcdnyYVGIIYg2E8vGkYDEeBDrm3xVmY9gXvr4eB/YWBAsExC6EMorUvmQXO/qiNahKu1rzjAo7q4aVP5/H96/+H0ScaeS9Pj8YOfOGKOTj8WNXOLth0NbTEGaw5zpfyvp344hXHYvKB23n2Nwm3AaQVrn2uMjTfRdDLk5iDkmZ/lk4/2qu1pb0LO3rixgZqnxEMX9MZHf41Wyl1OKitrcZEnj/exD0fvZ09XIiSZlClTQLDVyxdsPTGwhccJRMbi7dET3z+dhxxbBQXfmom/vTL1sK7lfntW2Prr4lnSJKYow3IufTSz9BSHsG137ienU95boyk1+qpoG6sHGpjpOFeNV+HGNBINeQRcTqD/OauNxoCLUTYeaBn+4YwST2TzSrWE1UWXF0H/Nxc68w2AWj9dDQJaTlqDOaqz94uvNRefriAmzw1h8OPdpCiN5MWh2IE7twvtVh3K2ezgUAiLpvlii070cYNfCL75vhXMhKpu90k64sEhTxtpN2d7djS0W5qPombBw+gs41jpBa3BDJMw8BdABbzumV5F+8zfzDIMEenRnD7r9uANK3ppn6lGrtlj6lvtZENdWg/pmeVPYdDDZDaxlPNjKmu9Cr7usGAVu8k2tzAmsl18EMHEEMdrSLE/h15ZBiVjLEpuExB9WJF5NbOnQ2kkqzX8BBIP11cj1w0hS70jGRLe4GcaF2mwR97TCLw3fEkOhhCPSPKzhqKYbg1N7xWONSTwrdPNhIyrDSzb+6MY1pzPfIpV3IqZLKvFP+quXpiiuC3ArLqxL8c950cfvgEPPsUPbXIVEetNqfYkt1fBLjj/ls3fJcLB6ojM5k4gxtyd6SSWu5i0N4ZFX/V5X0k0Yp6la8ebBf238HlL2kACq7N7z6xd7RisBD2DMd90/v2MDCyGNBYpGae87O4uOP52Ay/ZoipTrHT/HWJ10jVRXueItXdOPgwlZDmkQxxEkXtpBbD4KpeXkdmZmku6XrvkuE9bGuGE18hh+TgUs6P+tIDqVH6S3UM3Dq3xY81O7pYV+FPWGRSdn6EVcpIvKTflykjx0CoQBXjicye3EgCyXfISHZNfctTv9hc2lgsW0c6TfzQ00sLctN3ppRCpl0BjuI7ar+iD/MIp7A1Dzg33Xgrm+OgijutszQAyY3OSx4GPAyMdgxwXcv4TD/67vNUMddR1UJCZmhZX4I2vO3wceU/cdoGGscXkEmk0NDShVPOcY8jIJHPOWia1GuYSNnafq8r0U2bRNZHd/u9obdkcvKKauEmwamN0+nKG0B3by+6GFY9lUlSkmGAV0pw4rniICGqsKp4rkc1zwoXFfRrawJpplFvDdACVatv1fzkcGkZ2dkhle8WChoA1mi/naXjUTM3WOvcJidnWlY4yMlgcLRX36ufhwEPAyJB4hXyanIUT2kfJZ2YZyNMiFz6MW0m8IGPNhh7h0ioVt102uSnv1X6ECtJYCnaVF7dvpOEv954U+5Kpi1Mqx4jQli+1GlBeltGwowm4eeHdZZ1RHxAdtyWKoUnSaCzdwtrKWlJ/yxkSTZ+RS50f5sn5me/f0w/lD2RJxf1ifBxZb505WY+aS57OlYvrTDhozry45+4kDYOhlIJcDOLBoBE0D3gaKy22qu3h4FxiAHXvVPmX11bYjfiDRWlpIbCl6826hjDKUjS8yaEuUtGtcFWnkjcSWdoy97VTW8p8OqO7hTVPjtwwMRGMgEatg1PchlTgaixTiFKCiGGOVf4Ib9ZEKs+hEIYcuJXEkzFvUokaSPi5mf6XPG3Do6VZ5bJwgzCp80rqcG9XXha8WVVZlJt21yqVZrlLVuxCd0hW7fSC3uHh9L7+/OKLWNjM3RPljrS+cpln0MoGMPXvnqtCTlS1J/uzzp6ZXsY8DCwBwyIUOlTcC/fLXnbA6ghPJbE0bo1hJu++5IlugWqqoV235TP8syKhDyKXCLfN8fufhvneO7HyiFFt9/NyQy2r9vKE/9qTVihXJJ7JshEnEAU0TDDiJBhBGhLkJrIzwPZ7FEMgs+KmcpZoi3JhE7DSKZ4gijvWzd+16bp1qfUmNKVZSQWossA9NR+suQRWar5N+7sxKs7u8m8yIpYjyxtJNokaDYm9jXMuMWNgW/xBT/7ftnSNZQ4GWI+m2XMFcZ5yhl2Kw5pue0YaItXRQ8Dr2MMkGBJS7CPGIaL6ByjS+QYSHD587IfsA4yHJOo9J+005hEhmG4/YVVfP/5+rtLmPRM2rq+E4fxDI6UdmpTlb5+exc27ujG3MmTMWPCVIZJZ3Rv2jFkuJUkYuJnkTVUptJvBRWKp7pJ7yhpGIFAhH9wSU44Vioho2GbTUwqMotkOoNNbd1o7SFDUh24MUQbFAOs0ybG0fP5FCdLPaWy9oaJDq5+I5pLzJfj7d5772MxDPgY72UgjhjdxUxkR9cjYkSrMG6Am8HD1gzk0TFuGuo1xMOAwYAsBYbakv6JANKWwZhMVjboD0U82IhHGMj7SiorkU5DQfl3T8lomkh4N6/OItNah0DTDi5pSawpfTDUFJ7ftAlL1m2k4bsKB06ZgoaaZqvGyijsyEDQ5c7cy70wXSTmhEYu0J+k1N/bCrXup3FddhK1I8X2t3X0YFtXnPWxFh2ZRuRbJMHCqP53TETbxlaEeXasonDb1uvv2Eum1kSWaJ2JtjFr3vFkjty4w3C5Oeoph+InPZTm9+1LFa7hJI+usZ3oWKBBNVZXEmMb+a+j2msGZdHZ1Yk/3HcAV/I9yCQm4qPnr6U7vWwJ+yJppR00RNdqJsQ8NH/7c7sVqXGJpJjG0FbahnHwrTz16cnwWvzrFUcgHmRcOrpXcbqRVvEPV/YB/hChllpIRys1VMcwsakJjTxmOkgjrmwiYg4KzuijSNLR2Wo2MOolYbQvvdM9Jcu4ZFC35XXxZMAenvPT3pNEL/d1UBgy9QgwNIkCJioJomGPfBhOHIBffHUZ6iMMx2LEFDEPF7rNP9b+aqF82mmn0quK+zgk2mnLvXyw+yJxOBtmUWohypAUbpyJ+ce8EZk0xVjeHsmyh7MdlbBoLGIQt5ceewA+nlDmM1Kbm6N84rj3vG8PA2MZA5y5PoahrWAIIoaawbtLQ2MaglSSGrhVIDkb//GNF/CWj8xE4wzSqTCDK4rwi6gzr6ux0z6MzZQmtmzspKqIWWhfEJww7Q3yBAuGxFr0W0fHiu/oVyklU9x3QYYkaSKtUCP8aFuj9mVYIqW8tFsojpVK5m2ppKwKytxBMFOLLa+E8ddblqMuNMGY3k2hpqalssbWle3fPNWFhx9+KIWMJJx58w+ky1oQy5a9RORaz4ORbJQYBPsTZ110LdZ31NC0Z20qtg81DMZKkkjM1Rc3P71x4Rm469vvQ0w7h5gqh+NYaY9XTw8Dg8VA+Twtvx7s+0PPV+2bhftu7UDjgXGccM5k1E/jPgwfw7rTK1Q1kGTgEnB5QuV5X8xCi/wkiYtOT8hyQ54y+xnhtUD3+62ItWNwHpMcCpb+l7dSJYqOmX9kMkFyLidbh+3r/bjvL5uwY2MMNaGpKkgAxk0SDuSKq13wztvffi59m2vw9OVXI8ZNgCPdUp0IprDFqZRi5oufq2PkITHW8Cu9JsPQs/7dmZA5MMpH/amXPAx4GBgZDITQgM61dbjjJ9sQm9yJI084ADMWRBh0keqsgAzeVgohVTcV4E/eE9GX9FBa0Bk11G7ojfvIZRay/7v3zC52Qg/mqI7izv10exhrX+rGksc3omtbjCqcJlRRnNExq0bs2aM0NjK4GgmoEixuu+02MmMax3UAOY+Cp9Qh1Owb9ihubTbKsDzyaiJY5HcMJlbakYqPrQg49JxIlZ89MCZbNAY7wavy6wED1uZAAk5qHnUmILO1GY/fHsdjwU1onBTAlLk1mDV3IuomkKaEuO8jaM/MENvQTKQMYqQE4UpUzpUq9FtJTEbJ8By+oHJMYmZtdXN4TIPDEwQzvUG0bcli5YpOrHtlE9o20XqSYWgSZxI3HRbeZ1kqRXYVF0wB2hj9UisostF2s3HjVjaNnnJ3/+0B6qwY7dAJG53hSNsaBF96wQzlwBw9G+w53zq+1erRxhxmOcjkcSE9KBVXY676XoU9DIwZDHAVLwIv+qGlZpi7wvPZGejekMcrG3NYet9m5KPdqK7xo25SBBNbqtEyIYraJsZYqqWEEKZXGFXLAZ7sJ21HKZXmbS5N0SRdg3Qyj65OOiO0xbF9cxwd23ooUbSht4OcJK2d+twA6ZvKg6J4yfBNRmEm+mo4EG/yv7XrjgfWYZRzxDvtO4xNJknKWb58tWlrUOxyHyTDmMYDLstwZUThst/epYcBDwPDiwEZuV0Vk2h1USIoiArcN07deyPtGI10382jVR9DZ3iGR4DRdXnMq4/Rdk1AxoCYRrl2xdorVGOptrIJntzH1XU+L68suRuTSVArI2YV5ALRR9tJlmpqHehkQp0YPmGZheEYAjSukjBOvGQT+OKXPkPpix5sarwSTUlikuM2qW0uv9Iw0S8rxLp3B2r6ILDCwTuIXAMV4N33MOBh4DViIEs6JsZiGIqIu2a7mZQ81ZPnxvpoW1XSCZ+77rsqaTt0FXRJAo3ARsIRbTT3JKlo/4fNUJzz/GkkDlPCePwjfFIFSNyFGEZFuHW+9IVPcYNKNa699gZEuZnGRcpIN1/BFSX6uGzLb8Ix712p6kZ9ArSVGBIuXztGvwzwJK4wD6nKpKq4VUkSFd3x+IhuyBxkNJiZ0aAa2FrwoixpCOnAFztIyh6UXao8lk2FqUIKeMnDgIeBkcOApI6BklxVioS8IhNfMmeF6GlhybjLnC6PlmHntAFRNISQYRjgLp1wy+q/xIrix8UP2+6sPMiC1QzxEqFpg+xVLlYikkLDbvpmWFFgfLDZgWbdT2ou0bCwRNi1nEK+XR/YO2Z9wcpnjZ2EOsxsBxbOj+L0Ew/n+cHAkuVdePjJjQytwvDTdD2WV4B4RpYiFwMEs9j+W61D2eWpMXDSM7ZA8AbO5D3xMOBhYL9jwM7VAWlMsX4ikt4isIgOc2EZRxUjC3/9mmsNp+DpHNwQE+FKnEYjncWRY8z1fZFEbEWUxd+NrpABtAZOA5Nl0XyRf6CHnwyam1N417lzKW6SGXGfkJ8ZDp3Pw1zmzceDf38Vy9bR2yJADyi+I56QlVJzILIvl7rdJLMCInzTDokyXvIw4GHAw8A4xUCa5zVVV1dLxQLnxhtvIdl0GLuegcRSNB5JzTPCSaRaOkl9CsIj1VYKQNJ/klTi+ma7OUS0RbDNznequRpiCbzx9AMwdXI1sknpISle8vB5vSsGEaIoe+6ZU3FCuw933rcSWzojRr1k6b1qpHa738VS+lVi6anWJDqqRX/ldDfyWFOpXvIw8PrEgDszNZdLazQ766Rz1wKSUUfMatidx0btXpyY7iLQvTGwVGF9tpSfV3S3z1OToXsDJ1EZS8kGzjP2nwjvsZqYWaY7Cvtrg5AxYj1xow7aF8m4sIrws0SXuA9UrulqMoJSYi2p2sox/IHPl8AZx9bh8ENmSukEnjfPe7aTjZqJL7tDJZfJMxga8LH3zsYz9MNe/MR2dCapovOFaPeQzUMMzWLARzWWj2UONFwklxn7h5E4tKlRMoyXPAx4GBhODGg2iiRr35fc3c25H5ynsilaiiA7ZNaGBTHUy4coH6Tk+USdvIi+Fncu4Rccq5TXt53rea5C0zxk3M8NG4JrDMGkAzwvEB84cTqeeGkLlrfRyE5Itj7lLbQUzEfC00zDcasismjByrJHemtDeS32xbXig33ykxcx2nFa1mJXNSW0DEQmh79aGRJlSRzG6sSiVfpASZ1lVg+FDDp2RUPhwMl5nHf2fJ4PzLcJSrvSRfeLNi3lNz1toYtNKeCYYtAcMqsGC2bX4Y+Pb8HKF1NUadm2K3sx8TWryireqbhgafxNhqttqV7yMOBhYBgxIIIsimRX8wES5rpAD46aUYsYzxF/Zf1OrO5U7IY6zkDN7Ay1CknMjIF5mng0bAYvb0lidTt3lXNhSOWKgSdKo0VemGdyzG2JIkS4KQZ33c7DotqpqcgaeFoE5jCrKYrPnr0Ac6Y14rLfLuN+N7rmcqGo0txkD4LK4R0LY7j0vSfhTdfdg55sYeOfFsYl8ch9Zcx+qykpxvPK5uJwLrvsi3SxiuBrX/s6D3KKVRDokWyhzq/NyJ7CThShF8EfKBncSxZlkgeTQ0Kdpz2m+YAwOrL0yWaGMI3eJmiZAVTOAO26xLyrPxQLFMgswXDPT+1MYMeMRqSe22Ri2RjPDLejDS/gWqfAUPTqLklMV1IJGZYYmT3GfZdc3g0PAx4GhowBEmjRBb4XziXx3qNa8NGzj+d85K5wHupUVzUPT6zpwlW/eRodqCcDAC5/yxzma8SOFJkD5200FMKDKztxze/+QVhVhtxLopAsMdXXhf/8zBmI97TTthtGjoELV2/uwk/vXoonN5INseyVO/P47M8XY3UrPTRD9DjV6tQkPiwkc/4HYYbpt+nk2sSWzCrYSjVurvHxnWMY4JUrXqFkRv/ULDslx7grSruh3cPacrt7XGKn0KyVheve1n8xhhdoFDFJ8pA1JJijmoobc+JUbKbJ4SPc3NMUtmcLczupyase1Fv6qG1aKVAzhTUM6L94Zy96uVs+KJIvPabx6rLwCy+XvVm6U35la62DKO1ALX/mXXsY8DDwWjDAuUv6IEliYWMSnz53Hm7/+zL87MF1iPPUvyPre3DjRafjkrMOxg33rkU034kPHjUft/x9BW68fyty9AA6luFHJrU0EUaorCKiAtJ26DjaNH58z4v4yzNbURfJ4/r3HYd/+8g8vPu7T2JNuoHqrwieXrMJGYYT8lOrITri0OMmnI+b6yS5SzrA0wf9gs/nhtNxIUlG4s90kbjGkQrVk4lRsUMCVCBhZXUZS5dsE+3fd/3lblNpf5IG8axCR/q0XpaVwBLo4W6SZAB9zGHw/Jb1oPyTJmJ5mFe/H5om2NEk0IVPmnVMk7HTlG+IdoJVbievWM9DqbbzNK6MovxSz2iOkjQSBI+fZOFbeH3HtiTuieeQCEp81bAkbN5niP1+ys5ROhn4Iw0VH5Pp7Ml4xkK85GHAw8CgMSA6oXOC/NkefOxti8xcv/GvL6ArUM+1fRRP7KjDnx9fhXOOnYSYE8fEWDVSDBeydN02+KrqSCuieGxrBHcukR00ShlDG5xdKiTaowUrtR7cEd4dqMW6XAs+8fN/IJh18N2Pv8EQ+ip/En/59gdxwaJJZpFbm+/Cr750Du755rn42zVvwh1Xvw1nHjaFkOxCVaxFFMnhDuvrLjgSd197AWr93GE+MiR10LgcnoySobhA5x6OkBOE86ObfmmIXyRSxS3lcskdnmL2BEU2eWOXL2QsnRG865u2W8g9mIytg6omV2yUQVtJxF+xdhVLP84jHFuqohQfLYPqYjz+f7b14kWuEHKUSiSQCI6RZPQuRTATYl+AypKJqcUhNnAismQcZ9liQl7yMOBhYJgwwHkV5Ao33N2FuRMb8cyqTUhXT+QGtJBVcZMZPLO2De89LYVp9UGsas2hO9iMaz/4Bky4fzX+/PAqBjqs5tysNmon2UFEQfqbpSL4huSHm7BsWxazJ3DhmeaZE/yqTrQiQkbg5HvxxQtOxIxwOy786u/RSS3HOcfPR1dPlIzB0iYFQ/Tnk3jHkQ140xwHH7rxNqrRmnnPLVmUbB8R2GHqhnIwOujvmGMXsV8YmlYn8fl5oaZZpmGRUP7CSFxrNSGXWVdVZWK+DKIgwziYz3hM8dsVAdVpGhRiID0UHTO9ScT4cCfb93BrHPFIDfdvMBOZhHinWimbiL4Fywwrl5PwnkkE2PeW+0jfpi7MIPuGW6/y5961hwEPA3uLAc5M/rdnJiXx6vYOExjVT5umDNearzvjCeMN2VRLY3lnEOdedQduuuQsXHTaLHz6TYfg+a29+PZ/PIhXqXaS1qLfRBphGIc0B1Qpbe7IYP5kKrBJm8RMRPQNjeBfh0wBeYZOj1JKyTTgN89SZcXD2yxFYX4a2hfWp/HF8w7B9+5chue7mwxNFYS86KypwEAV6bd2o+SmrXmO5oHjj1/EdhIXU6e1sPFBrFu3nu641taxL2orFVCaH3WbpAd5OgyW+MpGEmCHS9qQGKguNkYq09XsbnZ6mO60sZowNvVwjwc7Woe4JKnCUoliLjZ8gUrmbzExemGQq+zS9N3VSbpMK3Hw/aJdZRcQ3g0PAx4GhooBzS3Soyw/OX7qoxHaNWndDEQ4yzXnGTeJxNjharcrlUQyk8WO8DR86OdLMTG9BWcfPRUfPGsubv78mfjA9x/E9nxdWQ1E5LXQFBQRcrEOOeym6aGpZ1xacj5rOS0aoyjeadLIH9/+BOZdfA5+9bULsD3uw58Xv0yvzLXo8tHHn2BSVJN/62PnIN7Wht8/3QE/zzfyGY9L0ivCc7UjZRUZQ5f0HmWEEdFeCRj+93/gbbjwX9+HFM/T3ZeuYzrmUQTb/bYSCLtRHH4PH+Wl5tAgXYNIyQwB3q/i1aQwvSaqQoiSD9RlUlhA881hsSAmcqNgmOo4cUz1tDYM6Sqd4aqB9wS372dPdZE6S/7NhKZqeMnDgIeB4cCAJjYnZ4bRaXvp0bJgxiQapek2TzussW3y+ZwptUhz5bitg1lJ0GipJKMJYntkMv6/F7P44R3L0RDO4MCGygWx0TMUCIdlHKQfXElmeI77vKk12BEn46CaS04vhsOY9viwKduE9/3wflz8o3vxz2Vr8YnTZuLy84+jITzORTA3AtM79Wd3PI76uijeuYhGcRrSSW4NWxoOlOx/GH7c/qe78ac/3EnbE/c0GBwyvAZxv89SlojWBh3325Byli8JYncfMQgReb2na3IZszqIcAlhGEY0hBilDSpC+UxrCRrJuYJo4s+FfDY3EkITHzhkEmYAkXuqbMswLGzLROz1QHUpIYqGNtZlX+KuVLZ35WFgfGLAEHTO7RTP3LjvH2swpS6MWdVxxqGjayzVzXWp7XjHcbPwYmsWW7u5myPbjWMmZhHKtHM+kvBzMRhjKCXZFFJy+69IDlf/fCYNi0gIl6HhVAfefVgVGkIZ/Px/X+axs7SFiraIITGPAmrE/FRNcbn9bHsdvk2mtGTtdiycVkf60oO8o4Uoo1K8ksT/LOvG5W89CAcGWg1Ds1KLqIw+YzfJrLFmzVqsXbsJzgP3P0aDU1XR6LRryOGRaai7spcLG0m0ZV6Fovqil33WJ6lDtdszTX4O1HMM1LGj5RTnJxEXK9QKxE2SMGTAohSKybzfyEPrt9LQs54ibrc0pmRgqg/lSveV4vdAUpgGkxiMUtAwoVJ5xZe9Cw8DHgb2GgNiHj5/FL95cBlOXzQHP/rCO3D3E6+graMXZy86GU2NTfjGLY+SYAfwrtMPxWdOa8IDSzZg5epWNDdV47xFB3ETYBYryFyMw2ihJpq1oh8yeZ4zvwYHtjiYO3kiDp/VhLue3Yjbnt0Kf7DB7v5WHZi3igzrhovfjFzbWjz94lqEAzEsb9BpIwAAQABJREFUmNmMJ1+NUwJi+KIsmRVpS9aJ4eo/LMHRV5+Gn19yNt7yrYeQibSYkkWXxjSVIL3LSKVPeuk8++yLZIRclxc47F738h5eVGfZDpNmUTZqSQ16SajUsr+EUrPK16NC4tMKlGu7XZpSRJisYnoNAxHQlzZIKcMNFyL7hbpIm3j8AsaO12/d11nADt89gKuN5hoHq7en8LKEE64YdISttX3Ygk09VOl+kmprW8LXqL8sq34/ub1bHgY8DAwNA0YfYOZVd7iZ6qG/4c1HT8EpR85BFT2rlmzchqtv+1+s7ODGvkAYf3jwWWxbH8a5bzgC55w6A0mqnX7z6Dr88dE1dJZp4GQVFSHNM3/z6MiHcd9KLjxzNWhoiGLppk7cfDcN2huTyNKRRvM750Rx/8qcMbzrxNKf/9e9+JezDsfbzzwJ3Yle/HrxGvxu8WoeVduEDfEI/mcFbTBUleUiTfjg9+/Bpe85DW869QT89+OUYEifBHNsJlvzNI+q+MynP42gQw3LQQuOMaTRT8SMZJLngZK4cpyEevKFv8T2Xu62LF8KFCqgCpXTa63u3Tv2mntPeDpXFdpx3GEteM+5cxDK8sSNnERQNrJAxTNs0oauFBIUL7VbNGckCit9hIMOHnlkOx57ej0lBx0DKUagf+UluwOtULFdvuww9HELfvdfv0nxuXWXHN4NDwPDgwGNSx5l2tWJP9x3AEM/9CCTmIiPnr8W1VWR4SlilEPx0asnnKMnFed4L20fOb8M5aJbKV5LPZUyG4ODmsvUAsSZJ0NCLs8s6SFKiSFBqHHwp6n60kqRuiRfKMp9XPR80mY9yhAilbKBhmi/SNEwnuPCWk43TqYXYXpScRnKACchemoK95JeZDvVAlL7w2hm5xkgUdaVSjCkWU9RP+3xGJvJ0u4spa5Lv/wl4qwXzic/+VHEqmtx3fXf4QBUuPF9k2TfkIrIxKvqp8jyFbxlFn0z5dHLuDIPvJDAw88+io+9ayGOm1fLDpQ8UskE1ZF5drYGj5+uulu25nHbfz3FmFU8GYyipSSGLKUNbeTpW1Z5PfrWwEoyGqSWIe7y3LvhYcDDwLBhIM+5m+BHLMAyDIGWNyTJOFXUslmk/DVkI5qTUjHRNqFZz7ltfii7SXzGvHlGBKeJ18CS9kDRrLQUlE1Ch71pMZnhLnWKNKQgvKHfVOurRCW7BUC10QKTHjhkVGapKa0G30j6SVso6QTplJMhQ9KWg74LU/PyGPoTDlHPQ4nPqa4Oo5q7Ll3voYF0+sPZNqMLJL7VaXYU8KKcQhPxBfOBKVbucZXJMga9IhtJJtCEm29fhdsi3bjyUyejmYsA8iSTrGGK3lscRRlKJL/+1TPY3ppgfC6KoxIftUogs7EFCm7lqqAAprJ495dbSfkSa1R5ycOAh4ERwYBd0Fk6oL0Txv5h5pzmnuasIl+IMIukSDWtmatfVD/zunxBaMmOFpNWCpCTjQi6clIU4Ttc1FJy8JHgC6JOJ5Umw0cth4UreGJGpjD+ccmXfVdQ9ZH2Wy48RW0LyxjLKcDtDN/85v8xth9igkign3I4zCCB3CqpQFYjmYynApGqBYI+wr2SDFAi8iaVMxHe2PX4VsP/NUIMAFU5xyBmW3jI/Bf/72M45uAGXHz+wTyXgxkIU2Lsw4u34uFHViAUaWA0kojpTo0c8g2VwI+A2a08uqO0J0xY9RbzEcZgNzBayN5fDwMeBoaCAUsSrBON1M6lJKKh35q/YgAFmiJxo5Bcwu3+1rfJx1cES9eG1fDCyhxW+6B8YkLKbW2fLkWwTEfPzcvmwv0jWqIk5mOvxJSkCRm7SaxVHmohRCI6QZVh1f/tRz8n0eZGmgCPOjJEdB80T6t/9odiT7lJi3d1kUnGFuH+EOOwHgulO8WcfIlrgEKnaBDkGcvmqVfSWHzZX3HhBcchWBXGb//wAruxDk6kkWVaG4dP8bkqkq1L3+4tq2JFbv0wgkrh2zKfXbJ4NzwMeBgYRgyUzfwyqCU6UnZzyJeVsCt/DRkYX6iEUPlrb+Dt73fEAMPcIyeLsZPhASY2uavuka+eSjT2DbNUN79Id9168KHBcYmEG0HSVQv1U73yFYXciVOMI+OrmoJb71jBRvI6IC8JckUaxOSWK8OWXZvwFjnD7rq0VItdCxYPVlJY9Qrdmr3t/fUw4GHAw8A4wIBdZMs4fsnnvkSvKoWCMfckkJF87o6CDnPzzY5rMgN3j4V+V6YSyZbgWCZ5VmbjLzenYUEUAwRJx8bCV1t4pnJo+NZ9Yy8hszBSyiCYZRk/61uwbDQGgtk53vep99vDgIcBDwPjAwOy7YgGpzPcDU/C53z50ouNofjqq65DtJqHlRTUPsPdXMuzLFRD4A2rohxgrFZ9mYbylSi2Odvb5Q79VCzfR7Vlsgik7DcFw7orYbgqJfubDKRUTD+QdWvggl22IxiuPnMAIN5tDwMeBjwMjFEMWBqoXfNrVm/mrnru++NeQKNmkZ1DRNYah0a+fWkyKLnkuqapMj4x5ML7YzsGiB5UqLjEJWxuyzh4PeDLhWpUvF+4xy9BkpAkRZf8u73kYcDDgIeB8YmBAuNg4+748x1m87aT5q7rUFD7G6j/p9vZayHgQ0FaQOIOLeTaya2NeZaBDAWCzSu6vzvaL8K+R6FiN8UORgKTuq18x/luwHmPPAx4GPAwMCYxII9YueQaieNHN91qDjJSvCorbbwWMrs7fIi8y1Yhf2hdcXs+i5KXU46GcVVqb5O798TsRelTfRH1/pLcf121VX/P3Xv9v13ir2IYNj7WvnJJc2vmfXsY8DDgYWDfYSDNOFXHHHMMHG7Nd2xkV9oCzJJZqqqRSoKsjxhHDkc1J/H3lR3GFTibCxo/p91awAeqFhmDztqQ4cY9kEo2B7cd5syMwrtyANB2HEU88/u1v9T1ixoIOPGxi9GeLRDzYxnaORoiuOlVKazu3cI9SOX+5QPB9O57GPAw4GFgLGHAWqi12D71tJNJweNwJk3mKVXcFr9ly7bSMnqE28Rthlh885fgNM6klV7qKm3Xt5t79qZo7vHE/AVzMHlyM+LxXv5y2QaZiSg87yiJZTDkDB57/HkT5dFuajGPBvzT7wFNZFb6p9ADCnCytmcHzxYOGrY0ICDvgYcBDwMeBsYwBqSmEmmVkdz5yEfeR6+qKnz1q9eiqkpxm0pEdyTa6MKvCzNAWO9GHjtfsA/YLdx7USTFJsadqY87DJmeQoYH11MeKMIx0XELv0zLeP54rGs171ifKF8hambxhT4X/TKOQp4MGZ7DemfNyYJiT4Ip9uQlDwMeBjwMjC8MaA3+3//9F0PlnKw2xRlCy7siontNwAePJGuTEMMQkbXktpzYDx6SciocgGU+tQzSmDBSlfljwJSurPoqz1CZfu7x0Ildkhq0v2PgJNtLiQn1zad3Tbwtv2DtfQv6wvV+exjwMOBhYPRgQEtu7aZzsGLFKmOjdhY//A8jcTg0juugLJeoj3ylS6RW1VIUydeSRN+DxsagCJUlW0NfqIFgEFHmyyQUKI22DmMk303JA/MN+1Lx+chKarupoffIw4CHAQ8DI4gB0TYtohlrmLvHRTKdJx5/ljeps+JB5K4aaQRrMEKgeXB9KMRPuMD4SrGt+rrJ+rlfXsEcJW14ycOAhwEPAx4G9oQBuzrO8cz3T1x0IX2AeIqSVcVw9S/jND9jMeXo+dTY2MgAXIwVz2NhJXG4Lrrl7ZG9Q5JJTSyGtu7e8kfetYcBDwMeBjwM9IsBMQ5GBOQqvK6uigc5MSjuRz92PoltFD/60c0MmcuDnEbYON5vvV7DTYlNOR7V1dIyAcGwPWlrd+AUgn3WQTPx6ma6z47wqYe7q4f3zMOAhwEPA2MJA4pJq3OMqO2H0zKhljvH66m7knFX+zh2Zywefc0UL3Soepo1ayY5oo50lDauMrlylOwdGUonJ5x4PB557CmGdrfG+crc3i8PAx4GPAx4GOiLgUAgiOuv+y4jm+vIbyYZlc05uzzQSSbr0S51yBbjqqJkqzjppKNRU8MjHbMJeliJPbiswjbdDUAoe0dIt2iInz9/DpYse8lE0RWsIrwxJnHZFnp/PQx4GPAwMPIYkC1ZRnLnB9+7hTuuHcRitWZTnN/GWR/5GuxVCTJo0xeKOrZ0mofNM1TJcccei/e8551IpXrID0JkHJI3+mccJh6WEUkC+NTFH8e//+QXWLZ8hWEaZnPLXtXJe8nDgIcBDwOvDwwoOofOeXcyOoovo5Ad3AsxqpkGBQXWUXHhmxpjmDNnNt785jdj0oSJSKdSCHEPx5ASGcznP/NJbG3djnvuvhurVq9G6842uudyY6JhPm7YxUomNKQyvMweBjwMeBgY8xgQs2BcwVwSl116KQ9ySsDx+cv0/FrQj9qUQ3NLI67+2uVorK9DJkV/YqqYpLZyHO3d2Ls0Y8ZUfPLiT9DoE8KWbTt4GPsNaGuX9LKrymvvSvDe8jDgYcDDwNjHgKJspJIpZHmYk//SSz+Lq666At3dPWxZX7PyaGgsAxMy3HuGG0+uvPIyRKJhxBO9JqJvli5ScsV9bR8qtggjnkiitrYWn//c5/mbzNQYzkdD+706eBjwMOBhYHRgYMPGjdi0cTuj4+bTJJQK16c0ekUObe5TIEaHdg1Z9f15+oQNQ0pldQ6J224furi/I8Q4WnI985KHAQ8DHgY8DFgMKBjuH277I3KZLJxsloEB+ZGheXQmeTz5ySyA66//jiHy1gDuEvvhqbWgybThp+FdpyEGRrm9Z3ha7UHxMOBhwMPAnjCQk0sSCSS9qXhmLAJ0x/3hD24xtoJoNMbvQiCO4gp8TwD31XPaG1jfYDAyosq0nNrNj5iIlzwMeBjwMOBhoIQBaXoOPfRQGscNG5GBWQZyBf0rBQcsZd//V0VZaISJuilHezr2f5O9GngY8DDgYWCUYMB6VcmsceppJ5JxcNN1Q0MVCWUQHR1do6SSXjU8DHgY8DDgYWD0YMBug5AXq0waEjScz3zqY1QBxfDVK69BVXWMHkz7RlHjMzu8S6jJj8oAi5bTlmrZ90qSmpc8DHgY8DAwnjEgnkBmwQPr7rn7IdNQGseTPHw8st/1+vuGXQ2xcw0T3Y3iqs+jPj+HWJiX3cOAhwEPA6MRA6UF8ksvv0yPU9o4nnpqqYmOGwrxzGz5oNKDaeST3bhXXo61s5TfGQ3XwsXuWFrlMzfe1WiouVcHDwMeBjwMDCsGuDLOZjJGK+U89OAT9Kaix5JDxmFCbQxrUUVglRowEVyF9FBQRZvKzwYvvjQqLtwa7lqZrImJpZjC+seNiIXWeAzE4mrs+qe5fU5Hib5zwhMrd50I3p1xjgE76LPZNC68kAc5OVRbKWCV1chwdS0OMmKJUkYRNg+NEpml+2+GDMShsaWSsRQz7ucL1bgkplVUhqjKmQOjdJckkgTGJZQjicWKOoz2H6UOH+017VM/t+IyCkrqLPWobIDewqAPuryf4xwDdvxr3Dc1NfAEQJo33v+B93JTRwi3/PJWnqBXVSR+w4oJTjZNwVJSEHdKG7GpSDQcbM6whRv7vJSp4soQZc7n8pDqIz6BjcHeJSIV1eEPtoebBJ3OlUAHP0bqsG10d6KPeP36VmlU/c6ZHfgzZx5goi6PqqqVVUbs3m9WLZYhmHg8DJqZ4kdJCxz1qvo0Wl2NFas28A2tscrHs3J6ycPA+MZAnruww4zgEWRsQGfqtBYe5FTNyIc6OpaTwUyi4UOAT0yDM81MPneuaRHPe07jDCRnn03JQ/YV9+HAZbtzdZirOGCBIhqmogPk0IaYuld9CLStrOB7LqvZc4sGADwObqfSaVzy2Y8zBlr3KCayZBqGDbCf81lTz3Qqi61bt3FNUGnrc6jKzSST2Lx1J7p7EuOgh7wmeBgYGgZ09MR3vvM9BfejqorG8GA4qnUXCTgnyzAH9zOklxTUL7gMJqhkDOG8TGazoNBj1VXM4wtkkU6064J1akSaMbREvP38q+9svoPzO4iqqsnw8fyNuFRcuSBCmU5UpXcgwZDomeopPOVPaiS9xwtyG6umVk36JhEHtbmSSBRzUZXGh8WffS+cPDV9OW3F13/9YU3FLcwf1oAcTsz49cNALL7U5rqaGsR7OyhNkiAXMLCvXL379tPufpcvQnz0Ud+0aSM0QVyp0X03naZFi+NhPsP5P/PccjMe7YgaeHy473rfHgbGNgY00knneAyej1oYn84c/8EPfsq4TCHu4WCoclrMbcyq4ZsM/UGyk9KSE0NnOXtzvi4cc94RmLqwkQwtj+WPbsXLD69DgMQ5h3Yc/95FmDS/ASmeH/LE7UvR9QpVCZRUGvKbcdc1Z2HhlCh6Sf//5f/cg8Vba9lA7oLPkZCTa1jrSn+74l2S3h9TIZ76q3zZCPCTQPYlMKXHYkYDwC1lGvdX4r0ulnUC42hO69evp9pWE2SApAUBT8k040KXsmuZxcUA+b3bHgbGEQYUNdznY0BczmN/Ju1DMsnVFG8Od6DDcqKqa/vZlZiKsNdOrkbLggZ0kzH0MMu84yYhVC0Deg5TD25E3UENaOOcTXIFe8q/HMrvNGJkdJ88czKOmRZFFel0Azvp1qvfhKrETjZO75J0mw/lFU76XT96TslgLz/umMiT0bltK1/B6nk5Dtz8r5dvon5MJKmlNjJc9GDsFsoj6bJvP4+JhnqV9DCwVxiwGplcPoUrrvwSrrr6Mh7kZGa3loL67ErU96qcArSBFphSWUg1Jspu3B1Ziaoo1WVSZRVWcRmqDfxB5uHekiANMiLAAZ6/kaU6KKEo8HwnQL3zhDqd/Kd62wlt1VpJ/lYmrR51Z6Ca8LHqsZdJ6rc8GRkkvjFyZHFpvZfwvNf2DwY2bNhgCh4U42BOjUU7b/ZPfb1SSxjQzJcuwVIA3RdBE31xr+zs1yJSzL5/pm+XOCU6IepE2sTb9knpWyUoCb4kaMF1ky51f3wmChZsYCoVR4aIcb78lYsYcqQG11x9PW0H9KoSIRyGZFQUBcTa1Ti9qGTnUGIP+mVX4POc2XAYQOuaVvg7eZZtvUPbBqWOLXEkdsoCEsLWlW047A30w6ryIer40fZyG4IUJXrIWP7jwc04/7SDwdcQZ4NuuWcdEoFGBKXiYjl5ilZ53h+4Qwt1sjUb4l+/2YmSVXsKTFeKMfIRs3odhL1/iOV52YcTAxqXW7duNSD7GsMHLEfUxEv7DQOaxyLWItoO+y/JC90LkJ7IPZ6+DTSRBpAlnYjFYojWNiDS2IRwTR2iDfVwqqNwojXMVDrPJxBwqK4PIESbapaHxCHdht7OTvRs34F2Hi3d1b6Tv9uRiScRpiozxCh/GZ7jI6qiehithmEx43tsSP2/ZXMHF+w0jmsnBfcDksim+f1aiChfL0tCoTq0v6SuNlv/mEnGFm2fc/Ix3PvLRzBpwRRjn9+wbCPCgRqkKWXEu0O495YnaeNoQSKewrbl7VSrBclUsnilM4BTrrwf5xzdgpc2duORFT3IOLRxiD1yYJlaDFSR/irX995uxgLlH9aBkhAZYpYMcO9ll76FjvHfJK6DJsT7sak7duwwKtrBSBr7sZpe0eUY4Jy2djNtH5bLDJkEx1uQcfamz1+IpjkLqfaeBqemAXEyj7QIOik7NeCFBaROFK0kCNaNhrDSSTTVxVBdRYebAGkSF7D8orMEeQm9A3Pt3di+fg3WLH0Gryx9Ht10/ghz3kfIyRzOftVjYKpX3oixeS3G8dvf/p4euDyPI5shVshB9+XkMXpiHgfr44fBsohwsSx2XzaKzc9vNxzcYcTePHVqIXZGXtJDDz1entlOMq0tWbTuUzLKZuP89mNTbwi3Lt5GOCTjgSo+5ZAq8ECtQ15T2/rhpXaNQ6anunDg5DhwbJBGsQ4NStWZ37thOmNz6Oy51gY3ZKQ6CKuRK71yZvqa+mHPRQ8pR3t7O5qbm807g62XJNdcblthPFUSnyEV7mXeawyoD9IcX2IEzVMOwBHHn4LaOXORrJ1ENbY9HKKNtMFI+5q76ibORdENfUtKsMTBndhSSdnnoYhDrUuIczlvPDq1pObkNv4QvlAEmBBB44QJaD72eJxIApNo3Yr1zz2HfzzwALq3baY2ROpq0huOeqvOHF8EQG0KsI2UzXSQ00+JuABi1TUUv7IkhPuosey3XNsmBNY/QbWSeogxUIh0R3KoOpgdJvdHP+8rHIlWBRo0/GPuWfuFREV1OnP5zT5ucv5d66+BMZzJJTRZHl+b5R4OR542CPNTKnt4SxzO2o8wLDbcXdHV1tUaUd4t0cWb+/u1fmuouGkoXdzRwZViOGw+en+w9RIxisV6jfdhUPY3L+0zDKirSZ3QTSli9pGLcMgZb0NXJIYU51wrFynWQUUWS+s2LRuFeISdh6QZHCwaLyLrRfd7M2hoK9U9cp3amhglZam4tfmTDIq3ZYMN6BW3paRBUrPzzFR0RRtRdczpOOXQ4xDp2okn/3YXNr34vHHUyWnx5L4zTr7ldXvEIYcjEOSC3/BgNlIseiSZhmwZpPEmCanqisyOVxBoXWGM3loryLNLdhBxNrnkavNgVr/NW8WuY+eXkr02w0TdP6zJEJQyRmrUXyxF3mfaYZyXDMtRlafaLE9lp9RveodPWA/JI6+3pBarn4UHSn/85v9iUv+WkmsVKt0ZzJVK0EeLDIHWt/TMwvpASc+V5GrbSd11IlG5gU/1HExSLtsmN7/7PZi3vTxDw4Db0+xj9k8uEIR/whS88+JLsN1Xje3s8Zxrj2U3aGmpN8xIEIcodI25Z0BJsVUwpHPumivlYxINjFCgiEZ4Px/nSNJ9qp4NDLEiO7Y0t1O0bXT0dFNNxYPvDBxlIuuJteCACz6Gk31p/PWmbyOzcwfvuuPd/VZpYzHZ9vtJ6974xjM5j+K0E0VpJCICkykKZoOcQK+16eoAHxEsoYdCIa8tk1AXWnIgGUKShP02/c7rgdPIdIxKd/lGsQRWRitP2WYUnz5AAukrM7QNXMfX7xP1t9R5RpVY1o+769HdYUvjwb7Lv4Z42MXGnli1mEZvL42fQ0guU1EblOzYtddDAONl3QsM2D72oSsXwPHv/gDqFp2IzZQM8jnSDmPDHDxQv/Z1kb5pTvvlAWlSYQTyfixaS1ullWrEfMQ4zCKI3wn+7uRBd93dPQiEqWXgWBbTEB2wwVktHC281yKGYz53GToXP4AX7r+LqnZLdG15Y/uv5oIZ/8SJ87nPf4qctgaXXfY1qquq90nLhGYqoBConYDq5pn8RcM8CYC7mnMnq1uZ0mrCvdP3e2Q6R/W0Q8KW55aiASL1np/eGMmdm5Dr3mpsLaItVmrzCEs55tSfSepFH9tgmS2RZxBaZMZ9u3NQvynhEU4tIR82KYzqsB8HL1hgpNa+r7tqrKEyDcFZvXo1tm3b1gek1799EDLsPyUFSIbIcp4d9Y53oeqIo9HF3fv2Lgn3IAePpNwAYyul8iE61qTR3t6DHTs6EU+kuH9NbvuWRdRHwpjQGMOkaRPQ0kKvK8oZvb2UTpknK1WYpBPaOWRHMVIua2LYD2/LFV8syejCeN3pr0LNKWdjPqPJrnzo3hHV5JgG7KM/om3/e//9pNxpGccTNDKH3bm8b6pAQqLuyjXORPvsdyNNiuyX1GH+mS5gN9jJKeO3VvfqFLNLt9A/UnQop8nFQaFnGlRKhgHZ1w3Eok7TPB3CH5XbT3IJEfV8qFq/GL6Vd7N8Kao0gOx6pZ/XCrdUMeUaTFJeffqvx2Ag7L88aiOFdTpAKHVk/HikrcYwW005I1mKgWhCDiEZzPE9yaayf03JdeHQ6dwAWhXA7Nlz+oXkMvx+H+7hpmJttba2FhmSJ3HsAWHD9Fg9rLGfYuialmOOR3uaDEDGhkEl5bPv+wJRrFnbiVdW0HnG7DRQlCXt73I/VoMQT/qxtS2FZ1asR4BeQ0EniUXHzEZDvZiGCjV/+E2laGHMWopVGsLmt8/aRzq5UJp21nl46ZEHEKabLzXvJg22BTb3aPlbwCVV8kteeJGMkgvApUtf4kFO1UbtYh/vm8qKW2dZkUyEYUQo8xl9IAm1fITTpDV+qn+0P8IQFl47fvpYq1PI0QN0w9IucMss8ogwtIiTp9FSy4FwLXrZMH/BuC4GtbedZYzxuyHaUQ7EMONjBVjPPFclooNmlJmL/vAoDIuM6VufgZIA6SOGIUzpnbHGPMTWVW9LtjWpAuS4EvGt2yIfKblc2P4axF/bmwZDHAsmpMzuUDkIiF6W0YgBdirpwYyFRzCUUJRMQ508lDmg/FQxdSbw0vJtJBtRDkXes1yggibotmiNPDt9dLLJkS5lObaeeWoVTj9zJt+zY9hiSXBtEnOTSt2dy+6Vcut6R9aP5rkL0Ln8eZbnzmn77tj6q7lMOqTFO90C5O3q3H33302j5GViKF8BsSPeMDv/TTEybPoCOUycW4v5J88lAwBeeHA5dq7tYp1IHPxdmLloCg5cNJN6xhSW3r0Eve1UdZFhBPM7cckbD8C5Jx+Hjdu68dVfPoxXM3IDDVCgohSg2CqmG4faInW/+ymrbAUYs4Qx8AfKUcruDnoyNbPi0dBy75Vy2SsyRratVG/lHWPJMIQ9Y2WMtcqr7j7CgCHCJFROgNoQ7ZLw27BIQys+j/qaMObObsLqtZQ4GJDUR+2EdoA4dCvNcI6pHHeUmllG1ZaPhDHCgBTz506Hnw4VOZ2MOkASSbXSkc0gWHa28glpadYXMfCVR6TVLkYHADZqb1sMZXNJfPAD7+EGSMprttFSHJAnDlFtMGztpH0jVJ3CorcfjB6u1h1u+nvDew/BXTc9gnzSQcuMIBacMRs9JLTRuijOuug4/OnrD6Ganf+2o6px9Tvmc3GSxlFNVZjwlTPxtm8+hFyoiW6TbBWlj7wMaXuRRPtkABs47fZhv69FY+040GhUFKRxgPc1wHLVWPkS3f6SMfbMwAO330K8m/sAA+o7SyL2QWGFIgYYL/uuAvusJLVUakHZJCZwEhq7p+bLEBa2om2+fAKHzKvDUQsm0gEIaKN9Y9uONnR1x9GV1BbeoJmGYRq9w6EQGhomoLEhSrdrNTVJpkFpZDdoN26+ZhywNOaTZCFqmqZeTLvMu7vpusp7Vn2uhaKxjAj4GEpqFaUrSoCTJjfTMYGM993vPo/6vAh3BP4XQ5lT7zeEjhlKyys0EizDbJpTdTgYtJpomNqEboVRp5iolKFKo6o+ht6tGdQ11VJ6MP4Q7MQcOtlDvpC8mYDj5zRRTSXjK21XfGc+DaVONkWdKO9IxDReDWp4/2mg+6Xc6uz+c1mbSuG5WU24qw/eM6+UvycJApg8PY2vXL2I6rh2OxmEA8OwBYfvs776+PMtuPTTTyGddB0W9FwwBHNfEywWOeRk21P+mgiB6bTym6/xWjDlwi1PGYvh1wiwz+umR9kfLsb12yZbmh0DfV4ahp9ayVYmlSu9vO67dajMMZ5+ua3v7E5j08YeTJ5SbXQIKc5tE/a+iIXCmOIYMOOL97N0mY3RAKn4dxEdPETbCFfI5o1pLQ3EXjPpi4P1rTu5kdCqsjU0hVtL/sQwuFgz99TPbm2UpzJpr5nJxr/qM+0JMRCDdXj6qeVooGE+zTyyyOmvzVsJY/T/srRHdCoYjJJfEJ9z5sxAmI3M0PgUDlluORINqUAY+0FdYVHOJ1RHbV2xEcfk56GLjEFd5dCDomd7FwlCNXa82g2eE8h4h9z7QSYTou4wn+XZG9w5ePsTG/Cvp8/jrnNq3wj06dVpDgo1jqoq2TzUVfyvq/5SRb36ZjB1UY6B3nbvF6Bw1Fm7iwD1B1lrEToj5DpYtw5ycDIIIw0JjgatHXzazGTOLymq2SRxqPOUhB332twYZX9E3KQelJFw13oaCc5F2zDUXFiuWJQMA8xyEG5VDW/XA7PZUxdqm9X76tdwJ7PGM2UVa8ARok2m7u/hLnF0wRMR1qjPk1m++OJmdMcbqDpqIQPQUddyRBEhlqGaf/lxOI8CnE81sWrSM+5tZj7NJiX3284xzkEOmI6uTs5DRp5gjCqlIlb7TlvSgAI3Mfn6+6O6Wgh02WH2gBPFU0+sR2dbADVkUGIXklpMfL7+AIyJe3JOCOAHP/gxOTON43KxCoZIjIRoGoaMvGXZ7og2R6Kbu0LIkXHkco34208fwQnnnkTdow8P/OkhYrqGRqo0dm7J4IFfP4OjzmA4da5AnrzvGcYoC5I0ZfH0Bj/ef+Nj+PgFJ2DpSztx4+8fR8JpJGOR655dLQwsb5QNmAFb+/+zdx4Achbl/3/2dvdur98lueTSG5AAoYWO9KZUBUGx/iw/RBQb2MuPv9i7oliQZhdFRJEivfeaBNJ7vd7L7m35f74z+17LXUKSu5CEm+R2333LzLwzzzz9eaYbpAa9Qxc88NDlLXLVPXVJGFqxKGZLXoVTdkY7zUGnHXEc6eHH4J4McVQJOCGBv++t6ugP3bpzVyiMNB2O4KbsCdzO6mfPuA7/KOCIQfSyCEcIJqZnToa6ZdaikJYrGkfGlrUQBSkmZQTcw4tfu6B8MHESgrl4eaNtqmq0I4/ax2IEoIXYrU2SZi7cb2lhzApjOKlolNyC8cxn7yHSElNJwpRJAmhq7+BmggplS+weZ39P70895rcW7n225zhQZQP11JNjTc05SBqLcPghcSJ9SSMhuWBmt5x31nro6d9QH6WAPTFqkR/+4DdQklxiOEpcKoVQHw+CoW62d31SyTDWjh5rEYIr22P22N+f9SkdIkV4LIVd8I0muG1Txh793aOEu+eTq0YggvIKNjCeU2QPImXc/fX7kTJIzR4dDRKn1oBFdN9u1no33n0c3NZ9YpsOvKvpNj2SvTkNxC1bnLLb/tYAscmqIELtNpV9R4pKRN077Iy3FuB73tqv+sHfpd+Nr89PPN9SyZAV51c4znD3Xyq9hzFjk6e32TnvbId4sHq0A2Q3t9n7vqE5VryAr1+jKBSGVJ0AQeJIIs521y/qs0pfKAiYrC0xdLoWlfox1WlRJC8iB7BLZOzBexdaxaiYHXvk3lY5tojEhK0gaAipEzvdyvdNOqaRtSIVVrZ9qYBRRFhtYwsSAK7z2W556SX72IBfwXsMcJF5yAHv1FbjtPPyEjaai1kkt9RCXYQNZlB5NRMDBKLrCRTsOxYD1LjLnlIEfxITgHPH7SL/iDgYUWplNN3CEA3pC4WxZxSm2qwgvoE4jpDlOimHKWZyRcXTGLYlUgaTKo7BSUQ848S+oDduAfEhWpJhf2vuCwDC3yLgCW4e4HtL1/rd7rgWSUqcdx4T+k63uv4o3iQLn/2eGvinns/Bldcy5DrIPphKt/H+ZObMRUxPxe24U0q4niUU3S/mWh+40tf9LH1z6jXyZoZm2MYl4suz4zVkfWPcgjnQyGURhuItdkapGJeyfQ8vZN71rrS4DfCzTf2jbo2dLx4GxGGrUaVMee0xDdvU6nbcrD4pRzRR1bk1jIcGRX/6kmSkPxanY/Z0DnfsBMydPJyyaiLODlBgnjBst25caqWTq6wrbxLelhCBUJ5VN6Ttlv+8QtCn2UH7j7e9Zoy18kKkE5c4FWkDXCZHH/ywqFcu26oeN38IcQKJo4WgvnSEtUfRPW7tul/60DNB6fUuvJNXnnHOrck8tkZO2cIVVVZX1QzBwMYKAy7BowOqXkBfKpJ4ctWv45TmT53IjktQ/W7z7eEvDRG/8v9diSoOd1wF3vmX0sWd92KSMOqXoVZa9jxzRbtEWaZQL+kPCNiGIQ36v6VH/Itv6Y6tXtPQ0GkRWOn6HJElE28Bg0gWZrdetmX0AoTnFpRbYAJ8UT9qAcBTAHiMveCdyO4h3zfigBDg3pbGtvpyQ3QDi1U66TQL3MXlbNM8bkcf3BjIc6XV8vKl7gRpDLPErHxlTi3h1FSaruGYCOpkLJ35q3uiwUwgWsFfGg/CXQcA9P4ZGz8paT+59gRLIAF4QpEdl0ANJNgAHjKpUfbZjz9t1RuFuP2zHAxQPA7IT7db+7y7bezc82wj9k6lrUnhzh7CC0q7gb4wv8qefnYVQd1hGzdulM2YWmEVONWUlGScnVNbncobCGsivQxbI7CS0Thi/O4hXGor6C+HjjAIZ2i8PXFJEsDa0sQm1o2d7EnRaO0tHajRuZjDJnPEmUSRAp12marC9LmUrbBbnr+FzAYiRP49tYz1yO5aBHtiWkI5rdrI6TL0poVs5PQN9h3XRk5+wob75SRLxEDAEcS5kNKmh1kMBPk44AJpuvGlL30T4w3SqwA4B7rsgKA3FzHQTVs+F0hiInaCJNkkJBlZCAlHiJL+5zjkL9XFayviilLoP7tSqKq0FwqZdg1VVSYzBlUP8GgF9pufrrfWJvkFcl3v6KBuCIjga+vidtzlx1lJLAEle9tZgZJgO6rawiMaBodAIbSNze3Whrp6NB40w19Czib1+5uCFCTDORdS4vYugi1UNiDmr353inUl5HywKxT1kkyyyTZr61xLv2AAOaWQXlc0V/yTNJCCsEdB5F5y8s8N/gZe85CD6jPWsdaanvq9VRzwFmstmm5x6hGG8IGkEBE2Zupkxayq7rTVG1e6gNwQ61GeVLHCiBUDjIVs4BQjZXoXXHMYO5FjALrxhvrH8uIjHu+0eGcKFXESV/gwvxOoBxPYRuipU00KM/EHsVBRCkTJVCJMpOEAnyWtrHmppRbebSUQEHevbtxDSk1NlbPxoalVkkG9OkXIECo+/EWOaQqOwTMqj7wwSdkroiBgTzg4cF1wRIRz4mP9GU1a/9L7ev9rwe+Bnguubf1bSF6tiIBwyDDJ4Q7gY+vaGCq3HKee2XobqiP7Iu5djzmx0GbPkaeMiiDTbNxEjGkg3gi2m2WL41ZfrZ3Us5KIu2Pr7bjbXpcPP0vai6OwiJyiZyMF9IYnDR5j4N9g8/cIZnmrXefRLuCiuaXNrLmV8VduoWEqDqFk64YJaW8ptIXz2I9AagmMtt6VeqjbZnUIqQWSpqp30mjGOhLNoCipN18/wuHdSj28Ot0MTh1eLSVpKMyOeRD0OsanW4LusnET8HTKh1GSTifAN1scNkEDay4dhdhkrDzZYh3P/91iY/ezvClHWRc2tCTXpLYWJLlEqYyM3Pm9ehu1FHOX6iR6vB27GzYI9VvrTAkSRby6mWTHXGY74+pjvQGrklQ0v6GM5lnPilkU/Przwpc6L1kmEuqw3Na1lrvuJeuqWWQxHI28hKHeZUuvw+DU7vStnRJvvOH3jpmPJMUFgJgUT+EXgd7OI4ChfClpo1jrrqitUDrXCmYcYaHD3+1TdjBJKUba5b9nIjU9SmecBsii4laYJPnqy2+6d5HdQX/iPrxPterofYfaDYC87/kd/dVFP3NevcNyFt/n+icueEtF4xuMge4rLKm3AswYfUu289SdSecBvAHR2HLdfet4fX6ph/6P+WPINQ/OLuTOsxC5muPULNveP8fXUZ/GWNJeSxtEtb7FylnEfk+W4YBa+inGhXmTK6WgKANiTINI5P8vCcCrk7b9fbb+BCMp0aq7iFPHMB4qYOF2n/QHwW394L7fXUPyU01Fwu02az+Il8vLJLUZcVgVOKZgK1XG6+ceb7I/X98Go+Vjsgy1zRe/Pttm7kdWW7wh/UwFnR68W2LXRGR0J6NuhQx5qmaepWqXWbh8ClzWQZYYPRH3e5g41Fja4MnbRUVy9KymjyO3LoETucby22kLnJzgB8zlwlOvtDhlNHekQCTGt+1sJiISrifkpFDOrCTbWtO3XFIdperoz6bFlt+8BmM+O3UIj6kH7hX9ZPmWBn/XXfsK4yrjDfg3l/g5jUzkJz+6gYHUzle4viJqOdfQYX4LDaIISRyS1YwnlZthBppNIDmvTuoMUMJNaYzFbPzorin4T5Oq/YXFkSkfFZ0HaKDu3JPhPRIYz4IkZP41eKY3tvYnh+RTDsGFSEp5DqUIkWyp6LrGN4+gpPEAVy5APDA4Kb4jHBpPvxf2qnDge3vd8Pof0kX1MgS1CMY8IKaFOV12yiSkWbeYtr2rQggqintpw5WyJqfZwqURG0UaazwpnF/+3ffc7SUBd6/u98+4B7frIwfOmUBNB2eDVbCjbQxWb/+B6k8tBntueM8rLi4aq7NPfXku3kSkBHIEVMQ0jroKwsAajMWU+w52lD834cxZbm4BU98/pb3ecWvj1+u6CKfWEE4k4XqS7dXNR0XVZYXT9raxBx9l6+rz8LJEi5Ep8+269CIkQBXxcGyLxsaPozCJR+w9zI1+q0eSKPSdA/7xv6WVQaXOes8JtVl+ss4Onlpiz91zhyVqNrn1n09qkTBwolUu3LYnFtnWZs2e6dK1EHStQRVvz0tvDfcN4WiIKoueKyBfJYKxMRlttUNPOQzdotmLD70EB4O4K5YVoCweE7b9jtmfTePbbfGDiyw/t8w6eDoGEB083ux9Z8y1V1e32Q3/fdVaw0SHZrl/z7EPz6KLZKkwnXxNIyMCvXxhgb33vAcZbUT2LRQJSSGrcIDr6x+ed9hCF4bskohIAYRjTnGLk0I2qzhYaL1wRJ97pFrQYmZOtQtZQ3uDzSznIQhsjE2hM10JDOSGh8tGxstziZ477FPLdvxgk2ImQjxoAE/bUcke9YhyRzEc2FraWZreJV5jI4ZTnHiGoNuB7JKCAU1vMNXbMyghJ+EgB2SAo1CDnX7mvnbymZMsrxTinnsPsDHGqjrH2sqacmwdEVu5NmUNHcVWR6LDDKnOMylxzTCiqLiC2Az1y8kSAifBF5QxSkJVI2u47K/lpDiaVMmugxNDNmdayKaOTVpxuJZnVlroglnW0XSY/evW5+zu21+AEEn+le0ja9/ZnpfcJZ/x+E1mjTPOONUi2IgiuUSLi3hI/PVc4vAjKAGPS3bJolRud1H6VLrRLvzMqVYTb7cCpIxzDzjabr/6caYgH5WO2UkfONraoml0nYU2eb9xdv8vn3I2hkPGpu2uL59qUbjO1NwyO3TvsXbxr56A6iM6AxRqS2hnWIrjtl4b0VD7vh/4eBPs6HmZwXullAee9mk+hn9OBu/J0FxpYW/7R9bJ+fG1j5dv2b97AlgRnG7aWC2gBXFJJk3ZqHCDnbxPuVWTFvvxFSAIHtrWFgZ/w7QdOS5k0/HQGSYIGrzpXfZKYANVyh9QSWeh3XtXlRUUddpJbwauGXzHgMKhu6BiAXEO84K6WdKiN3lpVW7bLDkuHmeUvPwG+8wVJ9tec+LWmarGg2+Ng4sMxo5waJNNyF9vU6cwW5Np4ygxpsR95ZRYIqcMx80i8AzZszuU4BApCaQne6L6lpebb2UloywfJ4vicBN1EWyZrmOdtvOHxMF6FKurqPXAdtPWtsHi4RY7691he/v7T7VnH+2yG3/9hHM3TjtXe5nMd/+1K1CUFOZVdmAjPGAjn/38RxEjS+xLX7gSdZW8qoYfYrUMvVFLaES/MjZ6r0p2+mJSIhJp4WiAvvzymMVrzSpmjEIaATCI8lSgZ2YMfCViUwGVXPSmSmcqRG52oHjqnKjlJ+rYj7gSINbNmjrVOAxFinwHGAFwbGkxBPdkgW8r3fFEYys37UaXO+H05rXl4z8fQ/UjI2aWqGdfVGo7ed2o+NmCE8wCo+5sQ+2xaT2IIj3FQh0aZ90FB5heYSfCXjSESuzl1kLUn8RYgND0byjKxESjTTU4XFffluZ3KFrb1esI3l9jz1plnEPpqXbbn5ttzPh6O/2ssXghddnMfQrsne8r5brsH9yLXWZUhZewOzowpIvhch5KAREa7L3VDrAi55NQjV34/ul22ln7WUvHKmvtpG1HoTyh0vwIetRDJ3PqUcc4tpOiSH+bOMF1zmcKdDH7J7hjHUdxrS+NjeMiKDKbqkh1yr4lm0gyiXEdJ4AOAnJFaLzdVKlOgDQQaWdqtR1whNmvjjnNfv+bxfbgfWshPuMcsVS7rjVAkup2w+LXpcIQHn74GcYD+45cQiX+S43rX29oFtzWRyerR6Q5TXRbfTsWD3bUY7IkPMp+kSSFegiEE0fUlITSzrkoiMa50OOLLTrzysY27veFmEGr7yRFAWKpWB+dly1EiGdYShaxDUvde1qlmrcsO6r5BeP0mRWpCQSYKn62BKw6kkEzY5vWauErkSH3aGJ1iW9t36tnXXHnA720PzUUn+K2PEoaitp29zqCwdd7gKxJQS7pWLuIah5y80I2YUqbTZianSAmStbLtOwSIPo8UoM4Y7RTO21JpcPzcgwBSadD6+07PznNcktWEIdBQB3h397Tkb5ACbTCpdEOyFr/EVaPXaF/SjeitCMiWZpVXRPLWVCMVAJWVz0OuPh2uINU4h3xNkcwckBCQfyVj+fRncEzqgs8Fl9k77o4z44/9Ti78gtPo/YaRX3qmUe+qn13LZL4X3rxJeYSA8OiRatYfDFiOXhxJ0dmF+Ewv13vVkSFO+pT2C7W2N5HT7Y4hOzZ+wjfhznJgXCsW9xs5c+tsckH4kEBR/PIPxcwgWwHCfH48zONNnfmGjv2gMlW3Zawy372sLVHcGFFjyk3Y030UHGfwzwke3z1biYgAm4+3HffV3ZrllOCDc8/yhQasvUb2IiHHdV03ZEFBzz84lteMkn+nJUOwqQNvlSCutyPkY9hGAE/zn624i6qO9lVABOalTKys+VZbCFO1Fpw8jlIhkRX8Bc8P1jXuK65Tdfa1755ohWNWUNwIbEZuIQ6lXo3s7DlesTbdRBU3Ey/mtuQGDrJlMHJeELbNvni8UMV9rKIFeXlWmlJKd84DCl3Hw5DwiF+Iyn1WpAVsKJAYy9A07Uc7DxixiunrLXLv3S4XfPdxdgEUJu7xoIWB3vnXfu8xt079BC9dust/3WcXh67APbo1Yf+BXpPrxP/5FoLrVc0p5sLvpc8td4WPbfaAQa+GcxSHmKkJq3YXn5grc17aCEMCN4a0TLPXTCxrVZql960iBD/F/F5iFkiT/YDqcDgVFSxn7GhfyFqlPOhdKROpOW3snSqOGDq/cLu7BvtQwPQa1W51+ecO9X/vBakRrFn/OR+LbP0hqpaS0ivyYz6IdU9+vO/xMnpTqEmx/31uotTO1SCllSJ75mvTi271nt3w196fT57d26YeyBbgycDAdQzNiDxhrp8+9G3FmdVOH42/KhJqtBooaJlYaST66ypAXW0pM8tFtYVjN/M2VEbP73ZuuByQ3KE0D+qc+Pf6/ns0us+E1xX4N7iDfWowYEm+hkMVSZK+zzkfnNe0lInjHNnot2qq7BrUEFFfsT2Jhod8KL4Gv3zQe3+DYM6dZdCBjzTk7FZBzZY2ei4NTdiD+Kf+r17Ft9xqesuete7iMgHc4eZDI2MBr5b5B+Gt+tLmRlwGVgAptIcqZqyQy05sZsoZ1331Gfp0VQB+W2cLEm0dTfk6H6s/IZbppz/CjPNPdd4ZHiLVGqELdP/gFjoW0DHqd0YUIZi1LKD0KsqjYufkgEmxmGDgAiDIPBA21DVYMRuQT4C339VNsCzAgY36Jp6v0DV+g6XLDZSi0GrglXV3Rued7id3awCTVUwJmLOFLwbj+faovkKZg0I/OYvpWeCefGpjja/p/cZefHsPbsC5lEZFfy8ujqylbiv/hQjqCA7YV2EsUv9LZWWM11krzupJegQ366abF3ONMp9HcSleINwN1IKau8GiCzp6T4vE7ovwmkdNmN2qb30lOw7GilB5+5YfK8lTU2ePAGVI0k+zzoLj6TcmP39b7ea2z52J7yXhlTRm/H186yleqOz0jtjkyaOP6VS7rswB5i4Pv3cGvfS5+Zt/+HGTTp6DvSfb/ePmIyCTC2BQN7Iv+0Vv9Ge8AA40FtLsvTIX3uSR6y2vhm9MnBAEJnjJ/oCxEBV7JRzztU0S6R2SoO7SSOOYLN2ZXwerASXhFqD48Hu1YrXfQltj8B4yybhVvkgDw4MHiGLoYOfPaHCqoGnRoJG4zChGRCg1w6o175IHaX8cOqZdpmYVF5oo4pxrc06bGRv2/pXtkL1WYkwUyJYvIlY2929CD1H2NUwN0Kczr777+MMW3/+898gHPJB3hqSHoLXpwOivzl4rJTG8cGWHhExUVyAgq20OPtGe2tC9TdQ0UwF0z/Q9R0/J7FaLbgEegCE3AqddKbIWOXXgkVx0fA73tQbtgY3g0xxBu+4DbVN1sbWnhncsqWGGmzmX4/BUgLH4YW21+OtdrxNVoGrRGvYrY0tVPmaxk83sdbaOjuICGffbo6FAwZ/tu8VBRLn4LkFmrOxsZhNmjLBctgsuwNcEyc1eBeR321tTc47U32WwT0axUzOWtau5CSo7sZB26NiUn87leOKeoRRA4XdFoZll77kxghHlKuv/jlaR1RVGYJcZEMINqfZKb0X8mWeO1FARjBahdBfanCV/iSDh4YjHkx8T/FDDw1nSru4V6qL3sWr2zwBEQD3frb3fdtzHEgz9Fm+wPQ9yI4rf27pTaOo+8LYOtJb1dtuT/t76jOaIy12ja/mVRE9IattaLVWnBzCSiPhkJFXUexao9AXSe1afXt9e7M1ovFaeyc7qMCDBOi2ADfsA6dPsBSuvFrdAcT4Yz41HWKHxWaQotbtL0QOvGg0j0vyxIPx022ILSIlxXk41kTanJuuzgj+eoqOPRncVoKhJ/X+IahFHJzw8vo6zowGN3i84dvp3VZPq7v2EWsVLUCG90jEkQBFaK/5xU0MNHtARBXDATfFiw938QJiro2bdbiVHvlOTBhMuDgEiaVCwEy0s4fSEfUmEFQFTHKR03UPPuopai9exOW5cvcOJdlQOz3FAYUAQ2PEf41X24v3WHyRclVJjzn8Y9fTm93/yMdpaCGJ6EbweolbUxOJCxU8hYAvYrI7LrPdf2Ze/zfwTIOf/U6YyZeWrLE5M/CqJK13Ljsw6rpWm2c/8PLJkWdozAogGMonFnIwxA3gBofSWKtan1rRcift7JDdRNKjaum9bv2xa1kfTgc2OBTqiv5Ur55UrxqRauYvqWKDDhGlLNFy+IGfu3NhIDsYN0VxRjpJIaxF6ve+7j2Aw/eGmrAkjTcRTbyikRxZTqxkG0iaDKGq6Ogi541TB/k+hNAVuhQlyHs5uOBqy47eKD2HiZLM4gxZTJzfOW3H38WDZu96dKYHiCIQvKIUuadoO4NY7AB0+IZtD6zZqwDTzHlrB+kh6poZQ+Um82PeM9J74KuPvNIWR0ArLZ2CAHQpXitpbSD7p5esY6+NmE0eVWpRLN0RVMX5EIpYbjH4IKsMEncv+AG/uAWZXb4KOPUoXpe7cO1l+1lneOh1fos92vyinhSsyuguW4bcfJdX11tjO7IzHlkhdsKMw6FH8ELyaVh6Y63N69t1z/h+p9lc7qqrvoJXFSnkPTcPOmTAd4a0ocFRO5pH+ebrW9s4Ss2TILy/uJKU1ekCa91Eumz5bItI0NF0TocVVbKRC/n+W+sEGKLkQjxdeGa12twpebahPmHLmtFjkujMSyeB5nV7p6T/RGehMFtdLn0T8IyUwUZA4ydOb6Dix1ZZjVsgGlXsJy37hpaiRhULmHvIE2+d3Xyke58JZsYnQ+x9ZaC2t/VcDxz01KyjoNVtrW/Pu19rGrw5hEVjm2urV26w2eky1j9wBLLY1BK3qpZqmz663KaMq2DXvULARWqUQHZgrhwHt3lnpKeXDaOxiT1wqEvPKBC1f+l/pmf2/Z09NbtkJNYCo7uuAeN7Z5erXy7L2hM9l/SHK5cpESQByX1Y3f4t7vq/FeIgB4JOgiET5KuPfO6zl5FypMj+7/++bvkFRQxmz7AM7etoOoIpkbrJ8RScA/syqCHcaM+6+GjLjJaB3mvYbpcAAEAASURBVKxlVYc98tdn4SNiqNGa7eT/fZNlyvJcBsrFz1fZ0nvY9QuCMyG/ye666nQbH1PuypBd9ddX7JcP1loyIv2m/vE+Ttx01W7Th0Zii6MhpalUZ/y5+6QHBGj0p5L98j/ekJ9acsGcc5RlGPwi8i7YrXBkNUgaMh8Fi1hjqSnTAgyKn0JdcVf57HWRXzlO7aCrzIW71Pt6UMs2fgsZZqtxWYc0z6yPlENAqktK0yFoZxu79brezpiISPiNkJjJ4JhxCHkWfoi6Jw1CxOrX51ndyhIrnVEHPMjDykPUivoGW1XXgH0xbJWVo218/hj2uS8iaA+mETdaF8zMvcIAHir0A4N1solZk61EcKRLXk3uf/jP3nAXkd0yixOFqfScAhFbsM3W4sDRwoZPkjgEjxoL3So4VzqkmsUVlmioddEC6sXuW7SGtUBzrKmRdCPkDIzkkL/DpVJ33LsGYCcVRjLgDqXJHje9QhE33l2OqS2YmE+uKpLZNWSscvZYAjTY47dLvcvY9KMqbdndy12/P3zseJtErKDsHPr79Dv3txvuv9s6yI+jnDIClm4g2cZXE7IKEMc2Pjpye78R0CxESE/hNg2DQ1RwXxzpsR7RXupnl8U4u0CDR50mIftDYBsUv++K5jxkeeiOxTkqxCpCtlYpuhwn6RBG8MT2f+fSZ79ofB1yFferZPdGBds/IgM/OdQSh0bXue2TEPTO36+ys/93ohVOagFuSJbIRYfE9Y1KYsW6KlsXqbE00eAlsTwrI617SUmx5bHZVh4JMfNz83CxVSaJNPt+QTjAeZJoA1wnj8jgWG+nNe8YBLyH2lGRxSEUHUgTbcBrO8cJzqfphO6TCwc3i0K5OlRrJBW1lhUVdsfvVllhZIwfsH6w7U/uTp8QcqS1a397PapDOTVBLmOcCDGYEkX6jOAwv1fvyUqQS11+1A7Jax6YiLSMGaAE2UToouPuknATEdhTcXqK2u5iIYvvk6GVR3Ddc3OY7bnObH8RYIyUHR8BIZXiSNLOniJSIImAeWNua2rxOilX9L3OKlXFwEXT0HsqHBcJJyjCUZDSPggdNg7/ybfO5C7gGGAGjno/MXC9wdnB9kXR9ZkuIR7VAmuSLIOUC8GzI9/DNwJSj4CGLa9rkt11bZUdcELU9j+xBG0CDhQQDK1PzbLgS4F+MnM04QLbDIInXJsrHsMIXgR5EaLFw+A4ER7ZUANmRBKDbtXcii3oAiA9LuIHJWAg5bDj2Aba8/y3esijnJfKPYqqNZIosWfuStiiJ2rIsouKTRXs9kRDL6HX0D7uqJMxcLCR0/XuRCxWxA6u6LFcJLm/cXg/5dHgB11H9RtbrW1lAyIpeaZY+Kte3GjxVl3J2LoFG2zqIdMsv7LYivBUePG/yy2Eq50cc3/10Fo78+i9ba+xpEymwquueRIbB1lYeS4jBKJZ7waRbX2jALT0nOpRjx0o6IQrApiRkh0BN6H9R0NjCHOCZLBfsTzPGEGGsBGd8OQy0qwrbkcix1aKm8bgHnEV/JfDhNJpyzKSSwbbuaNhINAz9Ocgg8cG+x5cPSsGhaI55k+qEx2o+ZGyc0ZAidHFGIbTo23+A5224NkqO/DEApt1GDmvIqicJHGyCB3oAUZSoTkbQ9A9zjkcwA1JjOwqgg83p9l7+kKfyAz19VvXwv3d+J/n9YzYWsV4RXDLjyVLbcHTbfbSA+RVaysl71UhqnO0Od0PZRvbjb9SMHszZs7AC5ckh2mpcygyJksU6Tdew/aaaicsy7ebcr5Sxfbo314lHz7IAG+r9oQWLX5WzCC7cNgjf3zJCmJwpxidOhOcp7/MmdWkxtjJVz1lU4qSVteWtPpMiaUgKh4yeKcdfKEefedA2EJGfQm92mRSSOWNXdxQM0whZbmVY4MbMr8sNQ9CwpIUaxvRV6MC0P36e02IeIDhl6SiSr2sosUuRQYndX4IiuMrUeG6grQhzjaFxKvvIWtkCPq551bhoMOtLxczxfawmeZ8m/fPTnv5ngabtG/SDjmhwsrIhp4GmXWmSP+j6RKydnPk1UmaKydVBLimH3x0/+QZjy/0XPdZN7yacQcJwjsQihC7C+ZGiqx+TcqeerTaNi4kI2uiCEkGlTteVILJjGw+ewThyK4B8Nz5572V9c0mV1El+6KIC9x57yiqrslJsp94ApQLT4HeWyJDugUEEMbGIaKiRasZExDgm+3oDOdiWWLHY+56nJ29lrdIh0mtQEgeKZv94tab7UBRswHicNV4JNhTI2hQ8MU9km7U1ZECZ4eXSU0zOcNA4yoaIiF58Wkbq2tYgeLpdD4ASN21I0Xzwhyo0iGcBddvN8HqL/OLK/jzL7wAx6VU7/7ddqTXI89ubQR6VlSAx0XMtXdGqjPP1r9gtvYFXPdjNVY2KWGzDqmwSfvhnlsEwk51wszJlsFnVs3oW3NAMgiYOEU5EMQ/x/Wo/ezckycvQk6ucKrAls2vQ7qogmjUW17OaHDNWPAXKU9FeMADKT0LoyGGcpCGtvbiu+x1J51jS4x87nOfcPsBf+lL2shpOL2qesZCMSPRdJ4lGzdY3ooHWfAaYKktmOgeFr/nAXkvURQr4WUijyh0TtMaBWP4qG2PjoYOIamF3sjNA5IjUACJ4CNVv8K1vaOSjVrak4p2UvvaV79jxx57LJKsxo19EEg3rbTYwYZNQ/u+gontKy4H2SCPBtkAlC3gqaeesU5SYOSwu6TeaKS8TiMAFREhkZ0iksF7Mj7ZWpZl7LllOfY0Lv0tiRorGdVphaPCNmlmsVVMKLTycSWWV6j90Ikk1+Y+jgv1/XdYw4GoCA6CQyJl8fa01dbEbeO6Jtu4rM1aalLW1cRupGz2lEI7IhfbIhleVcBfgYSieA1VJR2EiojQnlK0Bh577HEYKFRVytmSg/eBigZw2IqbGPcBKlaefTZ+b1ht4dqVTmUlSiYuTm50nnPshQgI2NGGToAKf35CevopMkEAoAscUxS5tiftn5Kk5+7XehQAEyDab/LpvSQbOIswnhrRKLEoVCoiMqzj91o7vovc5zybEOefeOI5N1YBc+B5OhYUYzi0pRe8bGPFg/dFbIrkJP7khAFjE0bqECHUPiBZQN3G1vbM24N5Ha63k0OF4rZU1JafM7QQIiL+ZNbwXWAl+ZMs3ZYiF1XElq02WwJeQZHFPGIvYWOmdAaVltud0FXnP1A/GUQoB3fenFCRqzMaYWu5SCWtae959iLPFwyAY0S1WP9a74qDkz3Vm9+zZIILvqdZwtKrmd3z0L+p3K2feeY5wB6CvXrNRpIbsh0iyDaNt5LbncsNydC+ogbfTbKTDviFB4KQifCHAgA9weCbPki09KoH7lOfebZH0hDSdqDS3UG0zo4D0X2Yo7rP+4P+v/td7vdTEoyadIIPAySkEbQWwjiq7Spd0kP6IJuQiwjFoSAHwA7ApV+Vb8ifzkMPzo6lNiBFHdwgvb3DFczSdjzvYGyg53qIkaDIS06oqSAgI6XfCLgxHN41IOLRt2jlZ8GLCZJiSsXZ01xMCWsZeiCkjpKJK2KQFYyHA84WS9AOai653gb4hupFMyRPBEUkw2MIXciSTweK24Z3gvp2zW+9lwirBlMqWtxxb/7r7RzkWGFhESIaqgRcrYalaPC9KOGHGq5NaimHfB2hULsMNhGiSnDnEQuTwTO6EmySNGDfttTlPjaKAZ/e7KSYSV8AuaztQsTKRddzwQU98VsExCOT4P6e7+4qek6NHI2MwMgIjIzAbjsCabRE551/FlqWsAIARYkliiunitCdI6nD8nJOUhDxoBnJEPp2Uohzj1GTHhmLaPggrmxf3NdgqJiLklwG67HjFga9Svs91yRt6Jc7ow+qdup51c19nmCIk+BicKMIiP6pnuBPd8hDLUso9fhIGRmBkRHY2ghoUalowevYLXyd2GklaHmnNbhbNCTjAriRGKnp0yfhMImq6sSTjnRpiO+6616M5HJzHZo3karHqQKz9bkvEKv3ofYnhWxd4F5WX+hiLyRhCGa6YYh79dwWuiWFSHD75rdtWWTs/Zw/llItW7IXHVHglL6dmspdFiFR3Cg3SXrSt+t4tutZopGtIqhx5HtkBN6wI5BV5Lg1o/UcpKDZfHXL3VUG58GHSs8Hl7X2Nq9j8Gd7XxGOCjIRiJ319ao2HQlhSh2GBsRhhaDVHlWV1Da+ffUZ1TUeoTK8h+QFSuX9+9XTU99C8A49xLJ373aVY703/YXBj7J/elhbxx52+BwIRqn95/b/ks1aA9d7UHas40K0AdetKXBDzDlFaDpJh29F/8rWIXdgcfeui/oRPJsd2Z4B3rxPembw0k0GBrxlS/UGDwSEQ6DqiYeu6Fj2DmrQX++ivmd/9zzb+4aR45EReOONgFZigC6FjEUcepB1YGTWyvKIamsjJK2EW3484THH1p7oe124yW9hi6cfFQk/yeHKBRw6i0na8jGknzlnjL24bJOt6CzvXtc9Namvah8Ve6qVQEC2O84hRZJimQbqlxhKhy80GgHD659XTf4Zd7ALffieyQ3917+6njFQCAVf2v3KJQXjRYajOCobzC2D5pCvqDkU2XUJBCxPBUURuzEVG9CrBMSn16l+h1vqtxrW3/aXAPn7b+ry/12FsnF0q7v0br2aCZ7rdWrkcGQE3rAjoNgI/VMK8pJ0q40K1YKoM9aB911dHM+nvPHWxT4aQubeSWdwps+vLeEt4ZHB09UMPtjEg4HoR0eaMKsq5iPfGsicEcejKq49PUiJjrupTakots+9dY49vGSyfe4vC9nPyHug9tQrAiE8lrSTDh5rnz73DDv3KvbowYgcUWxavyIpSnsH6Z9z/Olqx95M/8mvlXYajH4P7FI/2ZGxrQ3GH4njN7/+C4Qj12L43YsYDlUJEKgIQVCvJltEwKt7/IA7TkE3cE2boav4e/y9+t2PjuhU36JGBivbYRzvUxVV9yYAaqn3b3dvtv3+57fQqz5NjPwYGYE3yggIcUqzsP+EsP30f8/DUScPRBoDUTfb4tXN9qUb7rfqyGSh1S0OSYb0F+cdVGLHHjzLvvz7RyxBHb1LgMoGW4MiYBPyU3bj5y8gASJuujyfSrdZXX27XX7dI7YqVeGIxNLqBvvarUts3vKNRIQT50Yjvet0G9DppUJ5VpxqsXFhpVFX7334X/+3cDIG9+fjBFTavtyu/szbLVxUZh/4zt+sI0rU+S5chN/aO9jSGVVcpKUZn2ZTUFP/V9zxN9B4aphFXYX8/YAjEtKUzsmo7SKuhdw57p4QDrwMkZ3+zdzw+vdNRGiQ4pB6d82D3ORPuxEQB6PeEXToBWn6PQhhCuQc1T5QC72T57l7Bqlni50aufgGHYEAunpeX1x4F9lZnauz1o8LjBW3zZ4UW0gS2VPDjh7RJ/b/1uplgTigd3nG5KbZvVoGb0O2BCUtFEqN5JDJONlmF151i61uTtvMSePtpk+cZH/74rl21nfvtNboeFACmgiCRvNSDc5FPx4qtEhBGUSGVOZdCdu/Imz7lBHjlWhz3TH2v8jLg8vvaiM1TAvjhPdP/miy2YJz+uEQqaMyeAnF0i32vb89YXe+WGcTSmP2i8vOtT99+nh79w8ftGWpCcTtFNrdL2yyaB6SRli5p5Rpl83kWjchqYAjFDSN3l85lDPamZBhEU5L0vd8FxvSSYwZkhGqK3mG8mn56SZ77zHj7EOnvs/C7XXWpvNskjQE4WeDD/4OXfG0IcVcXHXVlUTuEznuVVSDI8cdai/7sEe8AjZ/QiKagEij7BCqu7C5F1I3wnYIN/uwqugjRaieXteybXZ/9bm3++xmB74f8tnWgtX0Sgu7ZX99b0pT8zzj1pFq8QVSyVv1/A7Oj3yPjMD2j0APMfFMieAzgLHge/trf01POmKliIk4iBfvmig76eUoqA6CAIKUzWKwolWqN9DKUMkl3XmqkL3EkTq039F7v/cfu/Vzx9n7jplsv3my1U6dU2mfOWuGjWavHSVfXVndZR/7+b3WyZYJv/3cm21mZD1Iutnu+eqpdveSpH37H8/bpWfMtrcdUOgY4RD13//ccvvBv1611kg553rGKMAYon+pXIhLYb4t74rYed/+u837/rl21QdPsvf+Zp5V5Kbt+qvOthv/9ajdMq8ZqaLGfvC/p9iBUw9FvR6yjU1x+/bNz9rztRAw4kRSEIswRCMGYfzUCUV20tGH24d/+bitbRfJpDGIhKwpp51ypn37z7dYYaLaPnTBmzkjbOLxoRucXfBDnqId7e2WCLdb5PIrPk5iwSL78pevtKJCcS7DVER13T8P6j6wr1dbPXPqTvb52eeHLvc+wXE/bqJXrf3u7Xtl8185VswiGFsYtzXNRLdHCl0k+ub3+R54bovpluzdr4iWeYmr34WRnyMjMAQjoBjEJJx32Zg6Ul2zDzQ69p1RhHDDucoF51FvUQmmUjj+gvytBdVt3jsFzyrjqr5l/1jbwc6feCMdOmO0pR9rsWVVzXbjfYts/tJNNrYoZd/50Kn2pf852b5842P2zb88ZR8/Ot/2mznRvvy7R2xjOynMyR4xnx0DX1naYcvWtdmR+5Tap846yJ5bXGX/hrA4rn/zbqCiyiEte9J5C8XzJ9pLa1ts5ijWNTmZZD8pY5O5klAnNhGzz7/zBNuvMmKXX3On1aKsOe+4OZY/arylqmqV29By4cqjENfjJpu9/8Rp9oW/PGFVTXgj4cIagrhq1DpD5fb2L9+IeSBm5+5Tjs0n1xGNAbq2S52SE1N7ewcb66G18+JuwMkIAXqA2NEeqxZxFtoIR9Q06TaPVztKQyzDUQJQzwO5BgQlQL6+D72Yg+6uiB47FVdwa68r/jDoe6/3cACefcB3ypGd4E5PAvwvJVy84u1z7bT9xtiHvvMPW5kkGydyx6DFqfd4p2xlPjLecw3Zptwl13r2hLsK1zFCVAYd1ZELA45AX6BXvqW8gla79o+HgvhcLlae6nvPgNXs4MkQO3KGUdm0d9aJeaZIzSz1lSSNbWtfd0tBrSflvq+touvQ2BTGyGLB2lpen7T1tRjQ+bcBlfrCdfU2qXQUzyRsfm3SNrSHbXIqz16oBvGD5MPYDR55tcpx/EpIefezy+2DJ+xtM0crS8XgBnRhlQSZLPQWYQz16+vbbEZ5AURAsgFvBcKUjKXI9fwC0o+QGLa6vsXWZUbb1Xcvc3jMwmBTcE2Gd5hS3GI/+sBJdsNDq+3uV9kxL5dtHqhDteidqdYsv9iScPBkxupmTr3EkUUmXNnVimbqmmt+yWShalTuFulIw24fjiHudLLdrvvIXFvdFLav/W0+4iYbrjD4x44P2TfefZhd9NPHrTpR6ibEEQWHiDkCq0pw07BKGNeE5aByEpERmXETQFd1l3N+QDx0gOdGminmt6acs87NrsfQhs5Uz+PxoNTI2ooyko4ygXAbmlgkh0dfWcOOX522qVN1w8WRZsSnEyFHEdTM5btBXApLBUYfnM6W+0TQ1DNyd/LtLrnfTs/Ke2VS7EdM5t6UUq2o3pEyMgLbNALCNsCRU70K9oAzAK29o0ELYScWNlEShHeL1CBk1me3WnkbeiKtg5C2t25i+eA9lNZHe6pInz6lJG0fO20f23dSuZWyA2hRqtnWs991CMQVhfnUa7t4D3BXKqW0PxE7gA33PvLm2TYeb6gC+lXGPi25uSIJsuUOVvx6Ft5IKXCXda4N4jLKss14O9dh+pliO+pf/fNxO+hjp9pfvvp2W7q+wf7zzHr79/wGS+BgpDdJxBvtF5cczY6BbfazO5ayW8RYcI7e02Er7gEDOXUVo6jNpyhiOIWXaNn93vU+5KgsDzHtqAiBlHH86p/e6AAwlic1FS+i2RiS/stzIGXsvWTPL6/trlYofc4kMlWS9ri1g/bQBWrI43AImiQZzsJQYUdI+JUHgJBaDsIBgYOz0tUuRLuoFg5clwAvhL4114m7ekERAl6DtoEbsvA68OKYfa3F5qsdpJ8Ezyr4UEQkL0MufWoh7aI9/mqdPbqgCnqBTlQEjHYj9FVTLM+LEByFIzJOY5kkxTv10obSwrdhHBMxEsETiYkyjtpqNId3SEM4UrlIME5HzA0jZWQEtnEEtCyjIKjFC4DfhPac2flFsJ5CrTPrAFalvCCdRK+eaYUI8l97cXZOpARvU+QLt9gJJTn24IoEu+d12o8++GanIvranx62Gpbol952oI0eA6NJO65ZHgUzwPyxxTT9yk1W200fP8Men7/RrrjuFYt3NNq1HzuFrMxa3wMUdZ9/IAu3XoXgI8lWO3jGwWxT3WrJMOsd3JICkYglhM+2VajEzvveQ3bYjFH2loNH2afOQaKZ2mE/vH0+i52syXheXfuvp+3yc2fZGXNH251LRBZhN2EYcxxDSyOBOqU3nu19PEBXd4VTSlE/eeok5gnCkfI7nPAu4u0ZxCF6AdHXknAC3WfUlle3OoQtEIkgp82ZVm6tMCpdbNZ0yfkHWSnE44d3LHLSQQGI/Lyjptu0GZPsu9ffZhefdbDVNXXauPJ8O3L2BIhNFzrOB9jASUE28AJINafsXWxvO2aWFRZEbG01k3jzE9YYGmNjcxrsCx861274w812yUWn0YeINTXX24Yms2vuXw7wRSFaSbv8vAPYBCZqP73lYbvi3afZyrWb7OZnNuD10WQfecuBdsReY9z2us+vrrVf37PYmlL5iEIddhDec5ecdaSVlrChS32jXXPHfFvYCikDiCsicfvse06x62/8o33ywxdaKL/UPvPjWy2nsJJ91cUtOVlqV4CHkT7sFiMgBiltuXkx+9ZXVsOsyI9n5xcxXfF4k119U6WVjRYMb29hnSDli2nLSeZZYajD3nX0WDZwa7Wbn11txXgxTS1O2B//O89eqotZARs1hVEH5STZRAhEnhDDCLqKKbcdSN4iJbZPBcxvR4v95u4nbGXbNCvKtGo/McuDSd6sOMrDWdENCFZBDuMJY3rU5JiV5TXY9U+z2RieUE7LAUMrjlsZcsOZdouDIx9b2WHPLFtiP7wobQdNrbRcbCFJNpqSJPjvl9rt2EMiduXbD7H5P3zY1qZGc14sLm25j816s4ufkISLRgWYu+CCc9nACnIdgS2OkLRK2WrdKA7RK0h2mFAWw3ULo9faFRbtrLJYvNqibRts9qRSW9+cQG0VtaKuBjvzwFJc1JoBBAhBR5VdcvZBFm/YaDHEopNmldunT51gFbG0/fWf99j+zMF1nzgNdVIrdpKUvfPwCvvuuw609WuW2513PWgnzozZ/73rGDaCStqkgoQdMbbRfvyRY+FcWuyFV5fa1Ggb7ZW7RZhEVp6AYfEdB8ZszcpFVpobspNmhC0/XgtAm33hwsPsPUdV2kOPP2n/fPgJO3Kvcjtq1jg4Gzw+9oraby8+BBVlh/3l9odsSmnIfvLBg6wk0cieEzm2V0WunTy+xa797FmI2DW2cOkKS0eRhnC722LCxiEa/6GuBlrYXQT7PcXLV1oQgbqi7/WeOwc7ei33O8mSG3Wv78vmT0lZuOcWYT/HHxN3hdtpbvHr9FcI8SpAcBeXvu1FxE8kUNJJKpG20+dMsP+BYFx9yfH2wTfva/9ia9inVsatjXVVjc3/jKP2s1kFzXbh3Ao7Zq+xNgobQ7GLwQtZQ5sYU7M37VuMa+s0W7uxBltF2C467RCbml9nV5x/uJVEu2zGJNxqYRClQQj6LFiRAkIxZYdOLbJ3HjbavnnRofb99x5mS2pz7Lr7VrqXU1+lJtdGTSECBr95ydl21UUH2NHTQ/bm/cttzszJVtXSZZ0wgxHAT2r0VG6Bffb3T8MIR+2Xlx5v+R31EBwPnWpzoDJYstSB7n09zjlnCPouL1yXDPeLn/8E+UeK7Utf/H9WUFiAOmd7u9VXTJUeb3JZBMVRyr77sXPwcQbYkW4S2ClGd621J2u6SH9faC+vabALj51hlQVhW9nZZacfUmmptlq7/l+PWwGLY2J5of314VfsJw9ugFufaOMeXGifPmc2G4l0Wn5e0r745iPt1scW2bfuqbdSRNKLWlI2vrIEA1mHTR7L3r+omv6ztNW+f/tCAmyKrRzvj3fMYBKhnuzpZZ9/x6FWjUvdvwHYCaPyrSgvZOurGy3DZi6HzJ5u6xs22Z8eX2mpsun2jwXPwYXI1S5lX3jbvvYK+6RfetNSy80vsYXXP2+3fOlYO2JagT2wFqJVUQJ31Gp3Pldnv36oyprZDjcUVZ5/ia4eiLZ3pF+P5xxv2Q30vIMWiWxSrAQtSC0ZzbWsUh1wXcoqrHN91Rf63VPyGEuJvR0uY0Bf+Om5yx9p3OTLoTr1TxggjH3KtYFtSu6p2vEtxh4paAe5Y7sB2Te4y30G3P32Ieyheh2GmbWjj22vUWhbCLwrxdbQVmKbkvl2/on7suVzylauXmPf+v0CW9xZYZFYMTCUb1+94WH7wUdPtes/91ZbW9tpF15+nf3425fZlAljrXZDinW52g6ePdn+78KjrbozYX+7f6xddevLdvn5h9kJ+8+0h+attq/9/lX75Efeb+W5860lUwRsyG4JfCC1dKLy3thZaIfvN93mJjptLcb4K254yJ6tKwE3sX6B4SSwvQENQwMbz3Wxx/lfbv2nffU9J9spHziWTb3i9tjCGvv+bfOI/xtlCWI8mnPKHeylo2PtPd+/2274wjn2oXOPtmvvWcJ5wWtfI30rad7ru8pwSS5AY4aEI3e5Xa74das0UU8/9TJrHzfsBNt8yg87415IN3Rjhx3rPmLo+NFF1hpP27W33M8qLwBoOq2zvdO+98GjbEVVE6Jnvq3jWzBYhkSR29xkF597ri1YXWcdpB8YE6pDZ5hjL21AnC0cg5SRsTbkxCTpCaLRkM2dUYohrdX+c//zcBhldvGZR1jFqGL71s2POkPW3lMAsI6IXfPvZ0nDP9HyEbNfXNFo7z42CdjGLc7En7R/zL77zyWWKhhj4zDG5dPepoZ2AGeM/eOBF+ySE6bY3d/7oP3uwUX2z0dXWisqsDmV+TYGTueKf86zrtxyx2k0aY90DGujSrSxU8JmTBxjXbEKu+6uB6y9aAbictjiSi2gMkRD7Csb3k/pob2tJ4UUJ9uT1GziqyK8ZT7fOIICUDL8Hz8z3w6etbf97PZ53AFB2eJ7spN8pNXed+aJ9su/P2rtUXmwCSFtjpGceO/iBJCOURVE6INyCnWBXOLYnfSI7FVhOLwuDI6B5DO8I/NGrX2Lk7rVQZGNUg4jz63rsjd//xn4DtkWmT/BUM5E+aKA3GENOJjfVmZv+fZjzrEErssipXPs7G/eBS7RvjhRa4mMtY9ev9A629BkFI2iklyYxKj966pHLQNey+SPItBwtP3nS39jE6ZiYBT4FbNCiUL8NrYV2NnffsjDKf2Q51QoOsapwtxNfDQmc+2CHzzAEbaUSLE9X1do5139giXbYC45G4NpNIiFkOltr7Taba/ejRoHlRXvsCpZbide9Zhb79r50m0y12/4/ru4w+5e9CA8EVZ9EbVdsnjCoa4//vjjoroWqdrUTBwHC5GJcLLbUHUcTn/y2AqriefhQ414I3VYutAqQq3oCNO2cH0Tg11oNY1sy9jRiX4yYiUFuVaMq9t3/kCQT+50q0AslZfFRiJLk3AphAvZAZNHO+rcwUTNGT+GKNJ2u+bKD1tjR8JWrEM8/dU99mJdHpNvtve00bYRhN7CNo/yuMhhYhatQ+/JjM8enW/HHTzDalsSdtOTa9kJsswmjCmxBHNXG484Ndotz2y05+YvxI5xmF1y7HhsL3vbe390v80YC7FAglrHPudhOBfxUaUleHyBtOpbZQxP2PhRubYMWbslVgnXghEeoB2O6Pyhmq5B62GclQBuYgw71IdPYhEnXJBTQ2urPfjCSvvPy9WWhkNMJBP2viPZVhN7ldyt487o2TevjxZasG70fTSE5tR9SJyWaEY1XCRWdsBu0AWIQ9wmFnTYZy443uZMqbBEV9wWrq2x7/3hPqvPmcD1jI3NBwXBjNQQbKU+b6n07suW7hu5NvQjwOpyqCYVgQAwTbmwGWAj4MbJkmI5OIY94VqIvFGOCYFZUKxKGg8peUTKI8sZrbF75OG5JKcUMTQsRyctEN4Ng6FzGfAb6x91Uwo3YpUAMkLYMCIEX+iaD0gWkyQyJsnW36egN3+keBMderkpt8jHrQiOnJeUDhQdDi7Q6yh6XA2FMQGoX/K4koE9aJu73Rj4/FTy8vTXVM0uXXh/qdUif/zDXx2FjynJFvorN5ND0PMQyGNiRamtQ+2TxjtBUaVKbjYT+0YEIrWiqh0wyCXgJ2NVDXHbd0K+vWX2EbZ0U6vVJqHi0YRNQN3TGU9ZYxPSSaYM20OVHbfvLHt+HQMNpx9nJtuTaXv/V36NAarCkrEi6sTbhBQA0fYquP5x9vSKOlysiSSFYxWfjMRrjZ0ZO2hcxN77pin26wdetURepeVjM5lQgajZ1mmoLOEaSHzGLC5oG2Ofu2WpnV5RZ9/42NnUWYw+E0ImcR2jWjSn1KKkOLjgiEprbk3YS6tbHOMwrrjAlq/eANHAoMe/3bUoGlYJ3KaV55HeIW5/uONppK4Cmz4mZp9HZbjPzKn2vVvnsU7xoCvNt4eW8P5aBBIDnKjAYhbR1PIRcyJ3RwYjBKwdut8+1hHvsnYIerqrxRk/M46B0ZrrrdDLWEVel/3uM6dbVXWt/fLmp90CfPupR9uVl73XPv7Tf7v2f3DxKXbvM2vtz0/ACEDYu2GZQDn8bkAceOJRv1vojrDgRs08iqkIKRaCPmWAVeEHOBIcOfDigxM2nlHwljhSLugVuB+khCu7c6Qk8tmrxtyb0Te9Izp1pZEAgYRyqJNLcrvU8z3Io+dITb5RCiMLehUS16AwvNn1odEQ3PjVorMa1cBLUaMjzyR9yxtSXxppELobRgXXMXMQEBEdd+xgyNs1UsyDJFr3mKuBDwcD1OCeFwHRHWpdjbiT7tPXRlvqq3MiUl0913ska92jvqlN+qX+cuS6zLdc+PunPnF2F85nq6PdXbH4UUviTXfuOee4OJaIJxYaKpCxG9yh6XghsRFjy4rsxXnVVCikLQknZXOnjzXUkdaQYDHmMWDhQlu6sQkj+DgLEajz8Z/8x9LaMxikPBVbRSrRYmNymqwoHLfL3n4wUasR+8KN96CqmmRPLtpol550uJ1+0hzyyWy06cSHHHrI4fbjvz9JxskOy0ed9cqqOqSHPCZN74d/NkRkLekB3n/6LKa20258cJXlES2qNAHTkCRqGlpx7QvbsXsV21Ezyu2OR+Y5ieGkuftaS2fYqhs7rbkhgWdJp33o+An2z6fX2UEzSuyCI6fZzY+ttbp0iRVFmq2iOM/uWVfjEKVjQQRCHoLcAAdIZGhGe7hqEcCgXGAxTMYvPoXk9uenG2wjLqHlyRU2a8p4pL4ii4Igi5nv0oJCW7J2PetZC4fEmakmO3n/Mttv6jg4rzyQ+hKbXxOyDqSCAiSIfSaMts7WOjvnwGKbM2eWbahptH88tc6aUCQKXvzS1HfGDp9eaiVdTXYJeu+lNsUxOXcukhojafuPK7AT9sqz2UQxryjtsHccXml/f6mWHEVJ26ekw046cIZNHlNMNHGt3f7iRquHCRGyGVeYtJP3m2CPP/asXXjGcdaYitkf733RRuWjRpk71aYDD42tHfbCknX2/BoIXAT9JOukLN1gpx04zmaOx0MO/Ld4bYM9sazJalMF9JTYgVSjnXLgeDtg+jS8ANvtvmdW2YKmPOfK7ZES1bgSvGHw+43x7QmCn9/eI+DRtWabI4kOvUqvpcPZvr/6Qooe6nvd/5L00VN07Nrh26N2OeP64tZm3yq4h7tcBZ6s9TzbuzURDdXhWQxPglSRTsI49Xsn3el64Z7xv3bNT99/Eci99p6JMxWebcceexScXsQefPAR5yPeb7y2+z0KYsRbFFTasvoaBpxJAWuKYk+cvLetRn2VwNgkXsPgXheua7bzZlfYEozUq1rg7HJRd3B1RuVoXL9C9vMv/A+IImy1uLx+8oanrC6FmEhdi2tD9tenq+yCEw+180+KYQNJ2kMLNlGnuFtcb0FAyzc2ONHKvzqV4uX11IpWG4da5S+PbrA4dogQOfczqFbyyivt1XVVBPMUkM7B7JC9J9hbjtyPhGkJl6Pl57cvQA0CZ4NK6rcPb7T3nHKYnXny0SRcS9ptzyyzX+CJkYmWWSyWay0Yy16p9mKv96LSQvBAx8FuU7RAwnDeU8YWgyQTIOMuXBdbbWxuO0FWZXb7C9WonCNWWYL4ClFfVdOKhEmgUKrdfv6hY2yfypg9vGCVjS6P2E8vPcEu/9UD9nQttgrSSY/FPSYPKfHs44+ytVUb7UMnTrFRxUX2w7tXM4eSdODrmEuVdmxbuag7506rsDWL6q0L/XUnnLyAee9p43GZxvoSJ1U3Nq6JqCaSz22yE6eZ/fCDp9vyDUQdr6qy/z3tADty/0n2yZtewke/2A6fUmpXnDTWLn7T+Rho43bfsjYbn9tgv/r0+ZZE9fnskg2275iovee4w+28HzxhHR0xGx1utOs/dQYSTsIeW7Aap46QXYijxI//s9T+tqDdioC6az52mlUURognWGZHTyuEqTjZzvrWvVwhqGmkZEfASwIDD4ef84Gvbenstj3Xc3ffI9krtla2bSVvvb6ttbcrXNd6jOIZqp1iI2869lDc+orsnnvu5yTIHO5yKEp9ImLv/sbNuMeVwmnBbYlzpeLv/OEhvkFGuaPcuQg7ZtVvWm/J/L3tR6RUjqOCkoBahDQwtbLUHl9C7MRtd1tnuAjbA3leoqixInQeBJaBc/0pIf9/fnCBFWDUrm9LW3OoxLq4N0bagvdc+SdrQ3WVg/5c6gm9m3SWNzy80G5++CVrjo5GrEXDClFL5eDF8RsMWxjhMhjBnobDXPTbJ+iHIk7T1ojrX2e4FKSIQRhd5o1P19u/n7rNSmM5hqbNmuIYZvESkwqmgeP3XfUHvCxyIcpk8xyiMR2Kedm2OjwshJy9ijHtqrdvvXsuOD1qe086yu55dqFd89/VjHe5TSxL4csesQ14tUmN9/aDi+2QMXH7yK8es5dqifrNNNnvPn2SXXT8LHvhH2sgHKiPwPr3zdtk37xtAXVgHGfP+1PnzrYf34mzAlKNUItfciF7DhXgo+sT9pl3v8lOh9G46+kVdu+8RmvDieHOF4Cfujb7zPvebP8HfNWTnrqEPl/57hNsPsGnl16PEZZ5eBJC8J33H2qTi5LkReqymRMqgcW0PTR/vf3ijpedXUTqrjTqs49efa9V2Rg7YVLcjtgXyaND8JOyr110BC7kjfb+ax6z6q5CCE2jHb7/NFu+ZhXvU2HvORJJZVSOXfrzu21JS6G9aVS9/ezSEyGS+dbUpvHcM5DItsHRyN17wgiEwXvXX3+9w2eRFIs8zCL1ulj4fBDy9pW+omUCVUUcTwEl+ZDRM1gubdGsUQkd8WQya553WLm97bij7JYnltnLNSxjqJnuzWfhjykvtnte3mTrM+OxK5DXikyVIj6Brlk2izQuthvScHIw9yHiMBTZKp/juKLDQyRLky5aRlete55VyobOSBnkQAJqCAc5b3pTVHlrqJQ71D4187u+K2b1vAdiCmo1dKBSVHNNkpN05bWZCqtN0Ft5amA8lj5T/0Gh1h7GS8I1ys16IVf6jlFwdlf+lg45iv5/bFk+Kr5aW1lLEFQeew9PjthBe02z8kc2WAdpIKaUMa7JDAFc6G4I0rr0zAOI1Unas8xpNLfE2oGrDTgOVGK3UjRuEXMpQn4H2UsTBRPcvNU3p6wQ5FyE5NKK4jnJPIZdtG0KhiDXPnnj03bY+Ji979RD7Iq3HWYXnB6yD37vVkvkj7fZe022tnY24kFVGEEt9qZpOVYeTdqlt8y39vyxSLAhW4lEG8FmMZ74orWtcZuG+qoNJuPn/77P2gumWGV6rR2KKvVXd7xqGwULeOnMHF+CY0YuqtWIFeW02fF7FdlfHl6Kiybqtwh2vAkVvF/ENjXh6Ydq7vwTT7DF69fh0l1LMrwuu+wdx1ldZpStx/5lpAXfs4sAXWtkpOxZI6A5Bcdhr21sbPWE4/e//ztccS75XAoJ7FB05tBMvmrx+FJGsOCYAxCD+w3SOOmYg+3YQ8fZD2993B5c1ARCx70WxKyiXbK6iifZqxuxMchVT+ezMCnikXHeDu7W7g9v9OwBXDH6TtXRcyrbpywnyw0yZKl3fgtJVcXNei5ozNVOnznn9ZfBs9l73QX12b+tu13nnLjb+5y/srt9ahxysRWNKsy125/daL9+ssURzd/d9pjdhZvyO0482K6581WbOW6MNXTiTQXxCKPnG4O68YZ563CvlF2gw3H2pXi6NLc0Q4pyXC6hEIR4HapEQ4qMMN+Vo+V4QMIZiI8YCEmmcm2mRoYXiS6nzB7baPbS75+3M/bJx8Nqru0/MWYLGjI2AwTe2NbhovI1xnNnjEXySdlqYgRCudSHcXsU0mEXLtHN9FMpYCqKY2RORV1ZQHZTHB72wqbW1dlpT7662rlUKl3MrImlVh+H/UGdOx6vLqnYHn4FTzKYEjEQM7DTCKTbiCkJo54bi+qqaEzEbv3WB5x0+vira+yaG+4gLgGvsazabXeDgdfeX8E7gzJS9rAR0JyKKSdiv0sbOaFqrqkmjkJWfS749OAecQ/3mytS/S8Pv2z/eDBlbRiv02EMonJho48iEo2pIjvj8us5j8HRIZ+d06/hfu/dq34ZBMNWXETKB1LBrKzCYwo1noInlT/MzRcTlsZRYBL2jtVVSoCHqo8U1LnMWwfxNtprIYThfAIZCmaw8c6v71qHgJZrc2ZUokIUJ4/8mBvG8F1lh82eY8+sakBaRLoEBuQ2nYoWIE0Sba/4DO5nKyPyjJXaK2vWk746TcAm0iCb4cwYf7TNW11NXVHkGTEe/CE8x1GfJYErpYs48/BJELeULa7psCKI4ejSPHtiHgwLEqL8ZIrzaZdF0a5+I2Xk4GlXWdxlK/H0kytVMbtkppOo4thEKEkCvBjG+gMIRmvtRNJBLWnxNicl3fniKrvh/oesjkSZFiP+KFTG41pjIzC8e8H/SG/9CAh2WU+s+//39S+zfrN+cNpZLAf2ybua7RyOQXYMBXDJnKjEhEofIv9/FXH2aRBAVx6bw++SRGP3lyTcQG/lQ5AgRd4oXItjqAGr11ZbWXyl7RVZZz8gQ6i48/8+vdBy2FegHKP0ppoG59QgmbKFWJgLjp5hhe3rrLR5rX35wkPc3tL3vFjj4l32mlyBZ1ocgzYIuHWdfeyUyVaMVHPjfQudRON964EHbCHHTArZHy850Ea1L7WiRB3fy+3rHzgBIlFgLy0nHghVYR7qopbGOitP11sZhusF2EFiEIc5o5pA8C12ON/nkLbijhc3WRzCQ1OWh1//6jVkJOAtUxCMlTBRIWxuB0wjs2p8o73zEDy1JhXamo11pNjIs7WNEDPc1s/B9boyvtQ+cvw4O439FFav24RaFKJTUIw0EyLjwF4EviJlkb/ojH0jNpXUN5JO3hhQsxWgGsLLDj4ZVD+uQm4i/wF59kQ6cK7YnmZV15aKYi/eOAXY53W190oH+cAil3/2YjyXiuzKK79tBQVw95K7h6X0H2Q/sXLdlK1BHKIAwGXIRSRy4TJwi8omK6WF85N3PtSAB2qHvkVTHPx5MOp7/bX/cioqp2YCCPu5z8mrwIEmHKxGCe1KFmhfe/27050ayVzUPRMhCiG46V9/+TzURXDwqKMa4Ka//rcXbVEtCxUjdzVZK0+fO86aMJT/ikSQH/jlY3bTxw6zB795JggUe1E8ZJ+67gmrtlHMZsLKx4+DhWmwB3/4LghFGLfVjH3jlnm2op5BJYma/PexaLtBXteRa5XYWG7/xjtdvIUyFNd3pOxTP7/PWvOINob7n7+mzs4+bJqddcRMu+nZdrv2toft/GP3ths/eTZ5j0QkMMQv6bSr71qFI1+ZlRaXmDJCr8G1WpATArMvbC3CXThiXzr/CPvs23NsbUvIXlix1k4jX9L/u/0ea2Cb0GufqLELDj/ATjt6ri1cudGqqHz5BmKVsMEkiRP5v+vutu9/+Dh78Nt4ZqETboCQ/Oze1bZqAcQHkBcBcYXBDQ6zZ0a+tnME/DgG+ERjDLZgDWs7BNlYFY8FR+CYA+GVsOALRqG/y6/StcsArM2lvHqUSeKc1oHDXnqEYxfc57758Gd08AYo2gEQnUIUnPybm65Dui+xr331GxCOrPfRsAzBwIRDTTkJg2/dIVw9KtNgpx5ziP3r0VeJuyCHC5NNOBUTBk6BsElC6SmCCv2puGn1h9v5qbZ8oS4adDQke6Y0p8OO228SBvv1qEvkTqz29uwii06MLMdlYfZxZqK6sEtot7RmEHduYYVzIpDqPj9Vb/tOGW3LagiyBNHHyBVWkKm3vYn1kAPGQqSVzihpIWAG5CyRIcPq+BLsBuQi60KqWIU6qD0HJwe847TcvSWJYxZ4lMVsJIqbOTYf6SfP6jBsL19fbzlF45BaZfEiXU2yEXtHMRmXMwSRtiGxEnEMd7RfZYEV5CVII5Oytc3Upwh1+lsYJb0MmVmb2ceB3a/dJDp1EvtbHDgVgzgqtEXYX8QqzJw0msR33IMNI0KwYh5qu1wklpJkrf3hqxfalTc+bPetYz9sAS+Rx8U57TYb20gLtpGVEJWuaCltEAxGu85RIwsyvWFr94EiEgfF6+0n17NHRnnK8mPj7B1vXkpmarkai6EL1s9wvlGW2WQiPbSIpXOspScSQig4/OREyUZHFsTCURUWLhljhSXFVlhKDirctbXvRrB+A8ykaLMkwbyh1jZrrqsF5BqttbbOScVdcTCmAlk1hzBPfPG3M951OMdx2+oWsY3j+QjVJf18F/tmEHcgkU6uqhmo7c4u0mWHWUUpuILCZL19kwRiRSWl9m9sIEIyYu3DTvIQwATTHPRSU+g06w541HtJMDtWssRINpdedY0pJvjwrQfZxpp6e3aTtpX0ALRjbe3KTwt9Ayzo+zdhtNZCwVSOhIAMiIOQkgr6YKmMtYbH2bMbtJAAKtKOGJ5NraEJ9tImEXrO5o1l5nSk+aRW4jCqkFxqqnUO3zbcatWW5tu7Qug81XBvEq4vg5v24ibGvEkSAgiKhJcZkLjUrHKnjuNd91KVh41MXpGHEhw+FjSoVdkwkF6h9ULcitbtSEask5Q3TrKR6EgRkcrklRraLO6HINEncQ6LiDtRpPPEoi47hn0YHl9cZwUQno+feyJ2nJC9zDalOTliumT3ISEeLuDPbEDNhsQRwjVYI4XlhzfX+OwobKqnIyXJMGraJFlot41oYZGNmjDFSmfsZ+P3mmX55Ui0qC8V2y+IAlJgMvwMaLY1HyqCmECNqCSdsueVsP+4pJZCwhOEm/DTsI7mBmvYuJ4YooW28pVXrHbdKgth61L+qQiMjWbVSTGqdA8u+TFsjrxtaNaco1guiG6oJORZIsPH8JT+9WoR9S0Rtnd8B1HEF59zpIsB2RQeb5MLO+zAKWWsauIoIHKra9ptbZMyW5LJl8ej6j3pjieNJj8VwLAOf/5OgruUJM2DxsBLVdd6L+Hgd5g+5JPHfwIJGhVBvqlZKZOlMiMXVbLNfvD2qZZXNtouu/5FDMWShvbkolHRKBOPgv1Jnm4642bSIUnP8TmU6BwbGA30+g6wuO7HRnfrqd5/uhKMnMiFr1VpGmTn6nIEWdd7YEbty8gNnvBVZWvwNYmkqR4ROh2pz/oloiGeVK35/EhuMx10054kivD1VOh66KQGPelrktJM76e+nIdt47KTJ0E0JG2Suqa5075z81P28AZSaAAfLt+Ra98jK7Whol/+iO9AL84Jtbf7lddD4vCjF4yYRhMNoMVYh1MPPsrGzT7AouMqYWhyrQ29lFK+C4l7tbvgQnDAfGbHXDOqMyoiPoIy/VYuvMrKsYC8UrBLRc51pl6Opk71BW4U6cmFIOV2tlvd6hW26tmnbeHzz7INCDsNShyB4OypRV5VEyaSop4BiSSlAGRRKnHV8BENDeWWB1QpT0bbJrvknOPtujuetGo2dM8QP3Dy3gX2sTP3glh0kQQx32D6MWKSzvz656whp8TmVsTsa+84wUaVYumH+FUTBPiJa+62NelKx0Eq2V0OqpBoLrtz4YqZFAFAxx5H3IxhWBEwCUVo0SvJ2lsOn2CXHDfFynCrzOPZNY1ddvHVd5NIDy8gDPW3P7/avv1+IpxjIavztvw9FU54Ly0dLSuYCodgPSp0S47xClC+7vG6e8GSVEd6Lii9513n/TX3ye0O1Xcjb8VuSIrTjOjW7LNqEKLhnnaN62JP8QRDdbkbueDb8bdK8aVCre4EaIN6g2fosLsqOADz8Isr7ti/uXtS5zn3ryfX2D1PLyVViVeQbFSwIwGh0l94Xtbdna1b9fq6VZ0vvp7g1+757d9pZ/TdSwLKJcXM0qySGnagJp2478E269S3QizGs46JH0IVSvo58AUfDLb29/ZD72FGc+pT/ASQ0dN7zavqlsalvLSMdOHyBBR0+Pq4JMjhw7FHDqd0JmAmkaht8j42buw0G33S2ZbasMbm3ftf27T0FeJ96IOIyB5T/AoSjn73u96FjYN4KLJFUAB8R441TDu/aJrCSBSfuugUxMmQ/f3RJZYpnk4gWTupLsptXTNR6D9+GHVGqU2JNtmfrjjSbrz0GDvjZ8/aOScfYfMWr7dr7n3Jctj85bfk7v/sRcfZ5Teh5iIaPI9svBNIGxFnZ7HqNhAT+6sXZBotn3TJrUS1y+zehWqlFGlC+xiXRCfbDXc9Yw8tJkEEkdJ/+so77ENnHWU/vHOl2yRmKXtwyIg2k4SIDRt7eMmdP2o7q8VtXQCv8X5ATXuvaxteqY5EMASH/m9H30319Ibl3sQrqFvopKcIOUS1Gx1YRPsqiNo4poPfjpBwa4p4p1akz3bU3aoxgz0mUHP01DRyNDQjAE5y4ADnrzlRLNeYSjvrfz7KNgWjrQMjUxsu2uTWZC66WQ3fdK+JDQ6D74H6JseIMFJKLpy0kymkGqXtwCMrYD0Em0qW2NDWio3Pxxc52QXtR3j8Xjbng/va3Ka19sj1v7RkUw2wkXVbHajR3fCcpiMtyZ+U9ZErrvgkaYeL7fOf/4oVFb4+ka3qUFGqxQ6eTuqT50k3UTIVYEAcxA1lCqnOa9kfI87eD2l85Vd0jbFbnq22dyEZRLHHXPmXpyAYRBVEK5EoGmxdY4JtZktQrrSzJ3CFfeatbyIVRpxnI1ZFnqnLfnG/XffRE23xxg679I8LlRLJykONdvtXz7F7X1yL98wax6FGSEfS3tlkHRCfXIBUqUQUu9DWRS4tJKFK8ixlNij7qTjskbKtIyAvuhLcZS84tNJKK6fZT/7+OMZMBQu+PkVkREGL3/j4O+yT373OWvOBJ2a8NwFyCwcEIyFdPJiIxpYQ0uvzJntOq8oZJUmui3W//xnn2dgjjnMZBKSyxEPD2R9EVJR120uTA7+7iEBQpMLKYdErdo1DZ0MT+1dcpE2eOp3vhtp1qi5mV4bwBBSsGYN5C9lZsbI5G5+IgmZf/pViItSnVjJ1J4rG21Gf/Kqtv++ftuLJh7hF9+0ZJQdbzosvvIjqTsZxds1Lsufv61mkYpg+roQN6sN256Mvkyp9HOmoSDoITp4wZrQ9uRgPGq5Jz43Xv63fREp2rPt5+NwnMNym+NbmMGMibTZ1VIztJ1daprPDPn/B0fbIk8/Z1yAuubhKnnPMgSSz67Cqug6bM5lU66TQDuHzf9ZBk1Gipj9zAABAAElEQVRnNbPp0jwSPY6lhXYrSFTb+8883KVjuelfD8D9VBJwBleCpSwF+KD9csAFHI2UbRgBLXAtZBmbp0Wq7QOnIR3+9F9WiH5aHlJdouQUGa3lhh1jMeuXMhznkoZGi7QLA7SKjPTKWSbTp1LcyE1SUiNbZml5c4eWtfZWcWI1v4SIdEUcqncC0fRp+at04Gs4JdZs7zpljt3wVDVBh/7e3lKQJCQxNSI0qq33NVfJyMeQjYAcGRKohGac9BYbc9RJ5J3DfC0JVbPI9JIU30mDUWyRKaTXQYsIEJkHEBGtHk+pmqp65hqHCuKQpLcXLFSMLrWKkjybNW2SFZYJBrtIr1FL4lTU2nJyAP+kgE0HQfRBsOXVm1klJR1KI/5EyaPXkCyw8adfCOOZtpoXHudeweLuW4L1ofl45JHHcaBiBTQ3NRPUgYjG2tHrvR54UOqBfSaS8wdRcU0dLm/5co+EcIDASwqjtpKMqxgYIBBMcarDplSS0VacAMDgXCiJTI4RsPXDT57pAgZv/O98JjlqzWwHOWXyOLaELbINiUK7eV6Hy1M1f22jHTgjZgkkClJQ2SWnH02K9vVWnWRDc+o685i97TNn7EUeiTr72FW/str0JDAdEhD3FomgkSGyhWjmbh3G7gsTO73ngq8c/OgLCfr75ZXvs/88uciWkjLkJ58+z556ZYVdxxabYWXg5MZEZ4td/9lzsW8l7Iu/vdN+/Om32vOLltm19612jIS8oN5yYKWdf8qhdtn3/8TWnqPJnhuzT1xwAtt6Et0NV7pw+Xq7+YEXrT49Gq4QqdUBuJB+D8EQEhC8tSJl/vO+5+z84w8mq8FyAgXHcD/oyT0TDJW/V7+U36zPpeCWke8dHwGQlNBzEu/KKSeeas0SDyAVGnAplJQiSN+S92WflPSn+3sK86TJgWlYt77ZFi1YhqYALyk0CD3pzT3DrJpb16dsFVmUn1u01BLt9VZckmOHHTrLSkrwv1Jfgva7G5CKtRdJwP6i9mVHFfZqRyyddcH/2OpnHrdCNiMX8vXMRncFu8mBZ7fUWUlhUt9BQy3nt9f+xX72k1+z6TscuJS5gUJ3J76WqHh5EcGHDK74BucaTCeLSCIXwRd7HcnplFNKREJxHMftP9Ua0zHeBA4AdVYRXlDffM9hNr44ahd//zZyD023EKkevnn9vRCeIvvjV95uf7z8LXbAGCYVyeTJJWvhGVM2JtxhR07JRwnWbr8m35JEXlq3O55YYOd9/pfsZb7Qrr7yI1bM/gpuwxWuzpmsvYjDtpjd/Wh8J47S7t+UlrqcE5Sa44vvOhGpsct+euuTcJUFVt6x1o6shDgzl25U2R/lEHaFnJW71m7/7wNWRpryg4obLdxCmn6wv7yTYmykdOLsUpta2M5GUAnyT4Vsv1Ep2ytaby+/+LwtX7bUTpg1xv7z1bPtjP3wktMQMmdytZQdNYLKMaRNpFj0Wh4p6nx04QYrxzFi70o2BZO7L48IQQz0p2sjZZhGgPWeZL1Pmb0fhmi0DcCNmyWn+hHGkKOBvoEqSRSbdYMz4JDGhg5bNL+Kq2Tpzil0EotykElyCf5kTNdfCucauX5HYmXsGVRmzzyzgt9Il45obNaAPyGUSeuSgPjvmAxHQGCO2pBoJsyZA3wJunR19y7K83bqaSfbW844VWsUdA3yleuaG6AtDdKwvTduwEiHCUacXKr8QSQAiknl+SCJtFXXNyFBePXA1LwWm5TfZH9/ZhN5rKKkk6izq955KCLmWLvsl/fZupCCwlAlce3JjTE7/9v32OXX3GOFnVX2zXcfitTQZC9uIMMjrr3TSK/9hQsOt+dIW7GEbWD9RlZRYhLKrb5wX/YYX+gyw86sJDU6SEY60DftV2GbWsLW0CJAGEEdrx0kNFb6g0lI/n/2zgTArqq+/7+3L7Mlk8lksoeEhLCDEJBNBLGAiFprtVorboVq9a+iIipWFK3WulbrVqyodacURVCUiIhAQFmEELYsZE8mk5nJbG9/7//5nvteZiZMNgQyb3JOMm+599xzz/3e+36/89u32wsOm2Lfv2mZlRpn4pzQSAGoLjLwJi0lA6WeQYj25a86xnqJtbh9TcFVHWtKR2wtDDuqyF+GUtXzRZQP7unL4BqdZCVUIVHhJOtUnfnbt9mnbu2113x+qa0ilcj7X3YosXk9MJuSLaLY01tPm2KXvWSBverYBmur9MF4gtVsJ7msNMdZ7c2WQPr07QAhwP11MgVeawr4dWRXjw9Ncl7wUWomvhPj9dQlXNCjZRKp72dNgmkQ0UFwpn7jileLyNjOe20kNzAvkmAUxBml5szChTOUxGAfmpuF6yemIfudUtgUYUZZVKyQMJrmWq/MQxegUI2QHXnEYlt8+HwLn3jisXbyySdVL04X+Nw3SRNbtqM2SvLjR0et2wDmVG2jUhs/6K7OTktQl3pRgrKh//xC25ZP2tU3P2qtoS77wiVnUAuiYpd85jp7opfHB++oOLEErYlB3G27bZCo3Xs7k3bXw+usJcXKhYdloJCiPCx++Se02YLmkn3h5w9gu4jYcdPQdVa2uejgWI6aCxeein4zZKu2UpyIFc8UbChLFs+16//4JE/YgbULPfd36S89Y/Cjkcvz+UsWOeJ//d2PI2EmXIXFR9Z1oWNusJTqUPPznYL33KJpYfv3a/GWS0222ZPoRzLFTTwLYaJ7Y6gsI0R5T0kjkW7rRyPBs4MEMpNU6Zu2Y+REGkW2sELzHPvB75+wNF57bRFqcLTm7dvvOYf06FQUjObttWcdZe+96AKOlaoBPTaiiPTejWTyDWI8akRhrPe/FJN6Pb6GBfPfSdG17ZlrGlaMY4iULhVsDCLGjnyxtJcxW+op9QlIms4b2KN0jLtv0BS1cHnQjj+q1c5/8SI7+/Q5dvRhaTw1zaYQzKmMAmnKITSkSjaJLPptbSE7dEGLnXDCbHvROUei5ibCnGhxF+fGszHWu6QdSb/uj3OLFalJ0V7BJpLHzhG0Zxaf6qDPwVtwJ9zdAFNliY7xW4u++JwX4DXUZLffdqfF0qpOUbvQ52BO1VPohjz0xGYrUEBnekvUOrOolOD082aS14hUEleQPrtx0iSbM6ONmuAD9tYv3GKlxFT71JuOsyVTeslT1Gvves0p7qYNsf2qr19vn//A/7PE4Dpb9uDjLqvpORjAf7ecNAJIGhFyFK3qLtmrTl1gD67L2MqBBmsAkMvfeK7F+tbZH1BXLOiYa8cvmmFX/+ZhGyDdu4KDXnfaDDKdyvi+nhXugfFAe+7uyjN/Jv10FGl7zOI5pCEPYUREytOqDyngic4+bEcRys8mrLu3ZO982RGosFJ288M9FsH9cgGMI1oesksuOBw3TLCXmjBHbE2+2x5avQEGFLPJ4Sw1XBrtrlW9/MiDes9SIURRN4TpT6C6nXb0LKsMbrX3f+VG62uYj2v2o0iurBD5Dag14DUVQy+luiKucuUBkcDdVMbpi+7i7v6ewSlzryRV9vbnKCmcsbapqNKd00PgNAE3YRpiE5pNwDRqUoc0znKuaEpSQ4UsAgnuqVbLoTZU2/MpUV2Z5Zwt1iGJBstUzVsZDpROQ+/SwAyxZV9aILMwGzdhzcfFjGDUf+CBjbhscE7H5AJ5Q/vrq+nK3NW5237Nd76LRgCnFNUcVylAXRzSG3ri5/6yJMStgVisR/3zd+edZo/9/DH00dRK2EzthDz+0Pyyu9evs9U3r7AHNvRQfIfcM9yBe1b128NrkAYgGqEQOWb4N8RFhiE0l332u3be8+bYUQumc1GsXH/2EJXeunD5pHY2D9G3fr/RjpmRtF8/8ATfYwQQhezSz/+IzKfzKVI02bYMkUTva7eTfgIXPDjs4oZee9VZZ9on8NDalkX8BDPpvevvQXju72/tjC7dByu4qS2N1t1PKS1Sgjj8IOqb+/V4EpnaErfOnk578WFH2Vd/+YhFWqYTjD5gh1BvYxA10paeEE4RSmlSRoLIudTqjz+xnhsxydJ8n0S6iHVbN2Bcl5cW3VR3nLxRBbjGYDFiy9eRwfeMGfbFd11ov1i2xm56oN96w+3ELcJYcKZoSfL8MKltQ9g+WNCIoPh2oBAQK4jbg/eus8OPOcRmTEfKh16JYbh/3F9H0mAiYbzrVFo4kUggQaRQMUluVZwQT5XUF/y+1VeHE+JHHMYA9gslJAkIv2SE4LcsmUE9awtoba195uMuLWBdbOQ8UoPJbhJhUfnQQ5ttC96fh7AwkvfXRKAUQmo7ubsER/THP/oFIMMXE/zQCOwIiXscgFYmd9E3rvuDXfHGl1j0h7+liNMh9htWm0vhZJpwgWR0qt9QibRiIGfuPFPf+f1a7oduS3CjI85wRpZS6phTv8e+t6zHYndt5mpw50RXWnZlaUVzKqxK++z2FV0Qr6glSIhWZtumwiT7xu1beQDWcgQeWyRkKnLOVuu3f3vbS+1m4jx++YgKDylfy8R4GJ67Wy28+HFhK2pIhFEnCUei+dkqDXUPadi39/XZwumNdtj0GASg2b5/10YYdBsEoGwLZ7TYuu4h+8QNT1gsQaoXDnx+e9bOPP5wW7etF1GGpHtJlhDsWNc1xH5lCIAEFLJ2/olH2MZB7F64Qdy7st/e+19320XnHWHv/tuT7dXnlexNn/m5dYdm8TuI2VFzp9gg9TjWbulBPYJunGlrjr7tHoE9Go93f9he9gj1GvIJW/HgRtu4IWpLjj8EN2wIPhmR1eSmn4wnrQPvSydpyOtBv03HLLQU0SgjxxLdi1DGl4JkTkdRO0dA9wKmoZHVavvckxtsclsDilPbq3PoTzmr8oNJu+cPj9kAMWNxaIcM7mIoTkLaOUJ9fpDTUp4wCMXORNdTEEdN2rkD1YIbELG712bs87/CbY5SnyVFhcLQKqwc9CjISKVQG6dDdAcwX27ITo5PH/fIsM0lhHBPkbyxST5XdZXTsTpUf24s0pC41Ok6kP46soKISTYadx49HjLUZqjudvVtW+zXf/izYz7aVhuLI33bJwSEPcjzfwhbhTLJhhWFCpZqmVLENnf22MLWiJ18xDz7/h82kk4iLU2xc96Y19Zof3qi28rJKRjTJWNGbcH8mRgfKWeZ51nAfjWNfDRlHCM2YC/LkY6GBPB2eke/NdkO+9TSTeRdVH6zoi3bXLJ7vn2PLcQb65vvebm9bMlC+859A8i4A/aik462J8mku00JFVPB3Pbp8g7STiImWnTxC6XEbo6fkX5dYzeXOwpOHAnjERn8WsfuyFaNEmfYwb5ei85EK4krbR/1UG697XGb2pa2U0mfP4VyxaGiIni0kCQXGVKFFgwi0sFjpVHcr5jfKz9xmIlsWH0ZZA5iOnbOlOPcCsH11lMqKVNH6LqCXqMZCptpLjcZEgUpl22AFPzLl6+yISRnxSIpdMidb8d2N5fg+NqYwfH186p5I6lxfy//4GVoqJRTjh+SwHGAg9GB+Km4W8OJc/jZ/+oeGAd1oOULre0132F3C524OXwLpV4bOWHd/4D3VzeP+B5cek0c1X4ZP7VO4HP13X1xexyJC77yqiCkGxVUGG8NHiMZw0aMvbOj/7AHBPgBK0iLFUA3tTsOnT6VFGmog1ARuTQPxG6s3Nhrr3z+LPKKJe07t91nSWxLkidjBFalY3kKKUGYWExE8Z6KYCA/fHarKyus+vJlnuQ50/B+w2VwYPM6m4q64MITZ9jbX3aGPdTDc/Xn5dZEDM6bz5hr3/r1I6Q6byAzgdKLDJGKpguPvogtiHcT3zPNPvnDP/IMppFMpe/2bY8ISG2E/ue0s0r2GnK41Qjt2MeQRbm33S6/9BaIKjFTDl33Qxqzu9JblLrXk76+B3XiDJ4FlE8EiXZuD9m1/3cvhb/CdtKJh2PwnsFKmHonbjHCCp+ftfNh4uZpgedsFvxgpbtQPZnuwW7WnEFQqDuxJIIRTfaxoAX0YXiX+skwz1Vif6tUkvbEo+vtSWKFQjwvJg8qzuaeGeI4ppY7Lde12tlHFYcWUBUxpfpsWhQopkVB46QceQdJq9J25Uc/aekGFXI6cD+VGpNwKobq86QVTa2N/LynbbV9Y70PjzbWXj32o3uMPKf2BYFAYx/rt+4JAdBzkeEpW/rAKjtl8cmWyHYhQZB2XM8cP97HNg7w4w7bbx7qsR1kBFCMDkW+rYH9jZTsW7uhH2Ku5NdIK9TGmDVtCioHzskKNokn1Oxpk8lNlrPffOEi68tRzhXPuWvv22Rfuuk+jN9T7RDMXa94wRF4Ui1iH/VE0Imv7I3Y0ge7bTLS52WvPwcjfclufGCziwNyK8ZdiMqervCg3OdWa9gW0jg3UOqk5JKmggQ/o9ovSRTF0RU+JHCpZom4V6jcMTD2JtznBx662aY97xXWhTdkCa87STileCPqzZL9+o7VdusdKzDWUjP+0Lk2d06ztVO7PpHiGUEtKqOttBJSr4iZbO8hTkiu/TrByMb3EaTGLaSVJj9KJLgkmTISsUpRbO8dsjXrthCBnkESRjPBRYapKKls3HqGlR06CjOdQo68zLJrSXiIYoyFZpCYZOQJ6/Az1yrso6j9o6oHLf93NUckn4Los3+BOrsesp1EuvbEPfun9md4zhCQxIGqAFnydw9ttH++sEi1vkX2v8txZyBNeRlVxI0rB+yuLz5ArW5WNUidLmcQtq1+4jxedNWtNkQf/ThVryOEverS/7qdr3h4pKjrTVbTb/5+m13zu7XuxzxAcOEAzCOcaKfoVop4nKI9uqVk5195A8byJmtrarUntnbZJlL0R6Kt9oJDSjafLAP/+OnrrUjwqJSgkkp92xWBGsWt/UjFCLQyr30Xk4CIQixrpMRpBlxKEPXTiru2kh8+ho2jmvaILElOaMpusu5lP7LJJ5xv220qR0uVrJ1SOSl5DcXAOOXDa7dTlZEAUaTOAjFXDam4tVBfo3VyE4HAGM1ZGGsxUZbLptgIz1JAc4J5yA07l81R0rhApbsCySxLNjCYsyESGgbqOAnMSA6ow6JItIGaXM81l+tmTwYLPkzOrLaB+/8PLz+lyMFCBzORFOMM9dKS1GmTZ+JnPvPZgHm4yEtxVdht2RmXazf1ub26QM301HMeSAlojNk4olR7TJ6632/ZPQJSGThZ0oaoBHjN0hX2N6843/73vh9gx8JIDlPJo6rcIlco/a7pLbdGmbjJHWfby9Rk0c+TbUo3qYVt584caxABMtVuz0vbHSg53fMkVbojaIzF6hU2YiUknBXb+cljQC+H+PETrxHP4Z77tkvsC9++3jYWOY8LNuWk9fsb14U/O80RPgEjYstKHttCJIpi33R/sEtgl/rqF9fa/ffIeM1+iE2usMWu+dFLcHaVPVXMODh2zwDXrJeMQZbsyUgpQzCPdMdRFpp9vGUpspVDheyC+rhRImou4SHu8uEYcQbYNgtIHF19Zf52cCqeAcfJOLcTLWpz0Gwki4yke9qn2UmJCutCskC35mat507n0RCB8ktZldULpjHUZY3rbrXM9vXWSAVMZSKoLUA0fpDuxg1dZy/CRuq7uCv6p8lHv/C5/0bkilE2thkxs8BngeZ/MQLHt2cageAHqRK01/5xM/Ew11qlocX9oPXD2vtTFxxfm9XY/Uf3qT3LQd/aK0zMdRMxKFmGINE3fPoXtnm7pB88tuSzSdvdYqZ2/oPzfTTq/QOd9j8/OwajM4SyGCSkLKNmLJPFOljRs+ImZQ9KKkd4RW6DVnsfPd5TMQ32izCnKv2W33SPZbYst2T7YmvoONoGSSlUouSwVJxKDxLGHlbB5VJSTgVtiu6wVvt8q55a5+XP3dzqHNz9FnGsnmuEzkpbRPxdTzEfPmkBEkUFpvqC1JK0WO8mi219zCLbVjOPIQKQdVR17OqYbKj7Vuaap05V+WeuX5ViA4YBQHBV3zwCzzYCUg+UkC4CR+rAny/4aT5Xz9/I1SWrSozrG4kjUtqSMF5Zo5tXV43GQ99YZZNDTkRaqu5SWcZmEcraql60RMS7Jl08dYT93SLyrzPEkUwj5X4rb72Xvz9yorK1zF1gzUefaBu7GlyZ4xBqTqmz5LOv6G2pPIdb9X5KlSaizn/tRa7hNXj+RnqYRqGJ7pkgM7MCBCvFDO7keTt0StlW3XO7ZTvXWhKfD7HFMKozeQkqgsQNN3zSOv8UYFYmFcsbLlIhJ3waUdlxjXBRgetEuZE/qnq53j39uEdez/DDUS9XNpHnqefOLc74mT+3bfTzIjWZmpJK6NcQkCi3yb+MiQCr+1yL5TOSMALPM9lJA5UV91Q/syoRHj7cbRz+ut+fJAWKEfAa6ifOp99OPGWmnXrmTJsyr480GL+xfrJbbxpqs9Xrm2zt5oRt2IoHX6bJctJ1osKU4lPxWcGdrsoRGs89f1I30RT/QXoal7sPVVdzU8LmNBfIYhGy+dPztnBmxWZM6oNw4sjx+rm2cVW73fDzP9t9d20gsTYBrXhWaRw9RU/FQCeo14acpQUftsIKjiXR977vYrxLmu0jV3wcdZW8qurxwvZGeLQ/uJ16TEa3vR07urf/NvEQEAPTj7y23px4V/gMXhEgJRMpu/yda5yKsRaVfd4ryvaq1xMzRYR+PElp0eRaTspvDeN1I7mgyhUyBYxQAe3bjHRf1HQ8QbxkTo7jvfWGN51gx58MaY6SNaJMJDNMS3SrJZaxppZNdlgLxx2tuxk4XRTLKcvkm7B5NNtAPm0ZCpYXUZcqVqyEykXCUgR32amTp1gqHiJ/FWXj4mRRY/w49XqiptxncuZV6ILeyaJLNuYCqrm2GTm76G1J+4e3nGq///U2++kPlpPiRGWrNW9sHO5dn+u/hZEyHnpwJdIknmNluKp0V07icEQ10O/W02XqoZJtJiAAY81cqw2uS6sJd421B3Ksvn6bR8AjsGcExBCc54FL/aNsE5mMAt2gkuGMvelt0+3Nb9NvTFRTKqtDoC+dT2NRquP1m8X+Fe2zC1420175dydQIGkt35F63O9e1g00JjKOcz45vrrzOoItZeigc49txA24LEZBDbDQJM0NagEj05SVCidOXE9jHLsM0d/anoOhSMWVkGHcrTsxbiOJZLPUL8JYL1qidE3B7KR6XWNnvTRqLzrvbPvBtzbZnbd1woyUz67+6CmTHruh3vvt0ludaSOaI/9PCHexsPL/OI5aP0RVD6oCNyvUEHclXPcwdZw2eQAkUe2h09hw+a0eAY/AGAiM/CWlUlTThODu1O+T6jxgHKLgEHeIjuJ49q/pDKryucGu+vfzbVLHJssUN7mfeuAhJWYREP9gQVgdvap6DM4PaWCYvNyh6Ot4QNUzzM2XBWeE7AOpJpJcEqshSQFLlxuuiM0iV+hHQsni7j0I7SD+hEwWznajczCumI4a4SV4UeG2G15jr/unRjv1rOfZp6+825KhIHmm61TnLwG9xTBOiqbol//jO1wO4lmaFOYqXKN7VSdNNz6ezNp733c0ebZkvNLDwU3ftbE5isHsO1evo2ykRNM6ushdr8V/9wiMMwREUHq64rZhDcWSFMOh3+FO4l2dLExDa7YSBZICaUW/Vf3truk3yi8ae8blV55pbdPXE91PPAT51d3v12kYOF4igyi4YwnVsWrDup85CiZ+71mSXW7vGyK5JkyAeA0dokNrAb2RMClpyB7Q1Jiyea1txHzEid/ox8TuHHJddl3RFje0OyefxIAcg4Qhwhg1psYrlgZt1oIn7R/fcZRd85UnmC8G+urU6vlNhZzOOvssjOPOOVdQIApywSLE9dHE5XlAWRHEE1k7+sTtBO5kuKnarieidh1ajaAbZbWRiKO3TMt9Toyltr8+rtbP0iMwrhHg5/THO0K27Peoq/Y0UUdjtrqAS36ke+rp9tHdZh0Ss7mHZdGFkDss8KTg580O7eR3HDhxB5/dkO6nDS1TF/YXkAge2dhlO7C9uF7sD0IO3OHuRdsVokcNB8vBLHo3D0AzKOaFYXx++2SniAmOHkvtVJWiqoxSjmRSi0tyOe6UAUtck7FCPwZzaGtAlgIJhVPWUQsW4xHSAx177FEswkk5ctTRi4gcj9v99z/Ihv0VJcfHtatkaKnIjWF9EKJinJiDeKAeiArp1isVvD/4UgksVuNj0n4WHoGJgsBOdY2kjb0098PUL3PPzS0Cof5HHzsLQp91kob7EVeZR3D0yHH47JjG8Lgi9nkKwQ2RQYC0yW530EXEYeSx1WPY7Paz0AyjkuoZyFtpqnyx9rdxLtyESxSROuKoDntwmYIhxTDGOOf+Dn2A+0fRySmbevQlL/krS6Wa7K677iEfkPRx9cgRg/XAqkeLdvVX/xj4mMP6JTb+9Wvb7PiTmrll9XhdB/gp8af3COwjAvusrRiLYI9xjkAzgJyBIbpcxuqglTxL9uCXPsYBu2wSA9BfQzxmh8+YTGqZQevPFEhqyQjVnTsVLI5b0Bm6LtKeRA3WkozZDHJeqQTD/jXRGZLiMHhAceSJpTH2d5z9O+tz0TuCYPHDH/wQJo47bomcLmbpqg6vfomrK9uSb7TezgWByo2VSYxMrDnyzQQPNTfOiZP7v354Lm6KP4dHwCMwGgEt9voyQzjDxkjrERD8Gh0PlCej+9e+iTdB+/GiIq8ZJZ47GltsZutsPIMjNoChO0PdoXwuY5kctebxKBVXcjnP2B+nPk8jq2oEFOeFtb/0Xuox5djSPJXKsYQ/Lh+hPbKPVGNFahOtm3ddgTh3xDZt6kSrQyz+DT//NVbyJKt05X2pJztHDXUtF/QY6QbVPDm0TaIi7njOaKULr/3x0TePgEdg3CMgd9gsv+OV27bb4llTrZTbU1Zd/b6RSDBwh8g1FiP/WWO6kQWx7AsY5kXb6JKkJgsplK3clLFeElwq+LOWQ2on/aNv8Hn/5YQgSh0VGZxrxZOdUCSlj1er30V5QFsDOlvAu0yeZNEnVHZTHESVkuq2cVE8FRW8JVyueKWO0Hcu0LnfSjbVdfvmEfAI1A0C+tmKHXST6fj+JzfZ4jntFicKPKTl/E49Eyt5aHIE5pCAKcTIWhsh9oL8te5Yl6WXT2IEjrXoOKoHDg5RgRKmoW16cftEJNwGbQwIRnCanRu1Y4+tzAEDTGjFuq1keA5srXs8oC52BliUqMPx3vf9P4sTQxN1Vbnc5OHUdXERu05SN1XcnAcjtIPnZI1zqmYdgZiqZALtPAOk43ZXt+8PwK5n8d89Ah6B5x4BRV7H+MvAMO5+fJMdOq3JOpqIUCeLcpj4ixjlndONVHuEy7hidE774KgBk4Wi1byddjIa9pGPLF9QeWHRjWDBvFvaJ5IhUWW3jSPZHZIRBmqzZku3bcsWSeVP5BjDu1KrqkpY102OBUo5IgFDF1sk5cilb7NErNGu/NhVuKtyQ+DM47+N1HAGTEPPyHEnNtr3rjs7mL672WIf/bjW4YYrPzmaXPmUQr7WJlJKgNo1+XePQP0jgDcTksOGdZ22mBTpeQp0RVnpru0csCe7Bm0BWVrnTe+wGJl4sUxA1Ph9o6muoCIKftNYFIZ/5tAB0Qm3prRt27tkcqDtjmkEfdUDKqlBnSCi8UQf5c6rJI45KljKPlKApqzvokohtTuUkET/NIck89+yUuo11GPBSO69/l6EBxjAnCMw6ngcVVUkokI20g3qcgGm/q6KGWv+GKOoCkdF6+oV6MmQzUb3nZedD4r7UO3j3zwCHoHxiQAWS1J8rH00bzs2NltsZheBfHKTFRGv2OPbuqkYud0mU5xpVkeHtaCebkJVlZQ9A4YQUDNRtFrjd89KOZMdgGmMFY9R61djGjVKqHfGER1RF95LMI8+DOxbCSjcAbPIFViNw9Ty1T6iORHiRoY2d1hP5xZizThSerdgBI1Sh00anIj96yc/7QLFo/I4isWki1PUeBWkcS91BDdXHLBcTNmmJ6fyQJCThgVEPDloza2D7pr6uhtscIBSo+SUiUSoN1LcETCSOrxtfsoegYMPgTC15mfY9V9baa9+90KLtHaxopfKBOItOoyRu49Egw+vfxJPJhaPkK+2hpS1EFbQRsJW2TwUmyb7R4To7QiqqcHMAM5BSnJIZ2ifhhnZpO4qSyvBbiVwlEt/jmDAAQzz/VQCzFIdUAHFqjcmCUSUqMx4qu4nbyoSY1lcVQZ7p9v/fHmlpeMYxzXYBGi6inhCxdKIl1t85KmVMEnK5JZWJCw/0NWN96vUiqGqN4ThFXJU+OKRCnPnTj4jYm95Bx4YBARe+z8Z+9UNZM90DFEeFe3wfCU8HG5eVTWMhf/kERhPCMh9VWplqYcKoa32gle12cxjSOMeIe159Vfsfsta4vNB/cQInKqId5V71fcY9C2CSkkL5Ap0Lgpx1yFqtfgTHSv6XoYpZGEYRZeKne/aRj8JDMG53GFOgVElK8EGnQmVVqLSYmvvCtutN2wms+4UTPSiU24E3qsnrR5Rb2/KJNw6pRUegdqwBLPQn3R+0ts5cMb9FQVMQw+PcuPE4OrOR9rdSRWRDxIgp5ItpEhOulWDu+1OXGTFEuitxv1V+gl6BA5mBFwQIARJjCBZabc7ryVt0G399vwXT7KZi6PESJDaXMWVJCEAVMAMYDT8k61BkoD+OYaCa342X6VuislTq351ZCHY4taYI20jHO6a3tzH6jEaV5xGthW5/MdKDbZ2hdm9N/VYZodiQdqRSNDkwKjEkOqbaQTqfdi3XXzxW3BIINU8kpy7Jtk4qpjoKuuiuZv3lJkGt9jd5FFXFGxxD+NTjvEbPAIegfGIQPCr1czwUqqkLNeZtlu+N2gNU/ps/nFJW3Ris6VaSA1Cdm8ZwGtMQI62Umk5qj08yOhLHLE9kE2QDdjmGBHEUMdrLVqzikpu0CEhGEWEMrXxSNoGtlXssT9l7Yk/dRNsnMJVFXsMDMvVKeGAgKWNPm29fpN0VsQhoELQePR9738nVvKUffjDHyNDbr14Ve0J+mCVUUuItqeefp9HwCNQLwhIG0K5Wgh5MtRouZ6krbiFBIZL+y01achaF5Xt0MWTrWNB0pJpqoETc1CS1xPpEeUNy7qfz/qjiTmIC1Sb21PVO1V7uPPEnJFdbAOmhetvtJIgCDFq61YP2so/77AtqykkNZggLQmZN0JtpjKzgXghjiEWM+IktZPV8bs0OY8+8gho4FVVhnuUyzJ40JyusAZdsMm/egQ8Ah6B8YCAFNCUEa8SZaUJgZGQUqTQ32obluX4wzYR67VQPGMtUw0nmajNnJ20KdNTlpwStxT5p0Kot0QA5WlZs28MX5s4CmfJl7CbRvCIytv2ziHbuK7PhrooCdWJLTifYowUNpOpTgWOMxVkFOYEa2I2wwJO1YgiNdlEaUrr9Mtf/ppcVbDwLK5kIUQrcfOKK7SiC504FztRbpq/Do+ARwC1kSNNeoHIS0rAei37ZpD5AiN4hTToucmW2RCyoXVl2/IA1EyV+iiypIJ1pTJJE8NDMI7R0oBGqWgBjToshhpKWWAV+xWmil+l0uiYjM4tBuHSiuBpFVhapcqCobib4yYXzG1C0VAp/uAPpHNRAGAY7KJf/Py3HUBSUwWFnGoX7x9Tj4BHwCNQXwhIQeSa+IokC/4pwlykXSmIIuEm6F0zXWqWi2p/vcEJZOsIj5ASNJ7c+bVJEspIKWXnuUYMMZE/Kp3TGWecSm0jGEgABDybMPyqdDWRr91fm0fAI3AwIACxV3PE3Rk0Atunk1Lc1tESR42RUPoJbdUwU6kxjIMBst1fo9MPEgtXsRNOPNYZ/6MLF82BYUTt8cdWOQ7t1VS7h8/v8Qh4BOoFgWHiv+uMq3bw4c3KWYWnlGMzUk8hXSgIMIy9Q/qXUe65w0e5T9o/UvLY9fsu3ev0q+QwXRlBjlGcBJDMoq/62/MtHmuxD15+JXV2pc9TB988Ah4Bj8BEQyBgJnJ4Coi9vrtYdDYMpyGR7YL4YZRZ6lVz1B0bi8C9v0Yz1X9XSWbs4+prKwo/+EIEZ4Sf/uRnTL2gAEBEs5iMH1y8WHENg/q6Mj9bj4BHoA4QcMZt6IyLuXCkOSDhz/XUkSfcKlrvARsZJnySMGLo85ttgBTpDaRHT+5lesF6PBgxYDZ7OaDudsukIeaxfv0G5k6Wjl/e9Hv7xQ0346oWJ9x+mOvW3ZX5CXsEPALjGgEtTpXSPET1vWgpT5454ixkWN1f4+r+9t8FFRUiChUHEStIrV4k0wR1fCIK6qv+SdY4viNhP/rA+fbSY1r2spYu24kzK3bJ2TMJCmTMne3AMMSdp3/GPwSOAfl8jlTx3L+HHlrpBLJwhBxOXk31jMPtB/QIeAQCBJSz9sULm+01ZxyCW2zJBvPUr1i/0X6+bLWtK00nu6yIN7EaVSlA5CiIjwgM20psKKI/LdRlsWSDrR+itreRUghGUlaNCLRE6il5BocqXvnMPi2HAyVVMI+ZyR12xUVnU89p0Apkud3cNWA33LnCHuxuJMstQdAc21sgGp206F2DuO/CUFSLIpAoVE0wWGC7WBCYzpmHttiZR0+ya27OoM6hkqqbgxjHsBQTnLleX4UpiRvLBXv3u/+ZnF9IHIGPM0Bwl3SpvnkEPAIegWcDAampZibytmhazO5/dJWt3dZv55xyjH3v0pfY608iVQdp1ItKi+4IUZXoYrgWZSrBAFyta4jXR974V/ae17yA1OUqLKsmwqY+gQJMKUPEZPIkNwzI/eiraQgN2FHtZVu/YYMtX9djh86bbl95+4vt31692CqSRNBVre0K2WuvutHuWiMmpGqCsD3i3KLOQ0tMKQrN5CQwwLBKVMNAHNNycw+Yn46ZGE0XhTWHe5BMUDyLJJHRd73rnywJ9/7YlZ9wxvGJcaH+KjwCHoHxhoBsB2WIe4kV/LV3b7TeSta+ftNy+/c3n2hvO3ua/fzu1dZpbTa1uNVeeHi7HTF3sg2Rzvznd6629eV2VFw77KVHtdrcyDbHYF59eMUe6gnb8u1Fmx/eYGedsMAO7Wi2TTCkH9660ranpjuGIxXU6AYRRJr4xf2dtrw7Yd9e+qS99ayZ9obTZtmxM2K2fHMRh6GinX1Eiy1ba7YxV4ap9dvzWgv2VycfZlkKw/32nlX2cFca5lTNulE9QQRGckxbxmZPT9ovlmeQdkbvHz2Pevkmpij5KezSUyUTKQvH4uSPJ6Aj4O/a7ZtHwCPgEXg2EJB8oLy1eo1bAbXOEKUOPvWjO6wBr6YLlhxiEYjy6y843S555Qtt5qzp9sITFtn/XP5KOyyxjRV/zl79NxeS8TpqzZOa7IKXnGsNTSQ+zA3Yl99/sb1gyXGWxjP0pacfY9decaFNLZN+ZJSSKrgmudlGyKqtiL8CwYGFWLt987erLUffS85dbDlUUS2Rgn34NUtsbnPFEqVBe9ML5tmX//kcmz+t1Q6bNdc++fa/tQtPOVwKHMapSke8H5IasK+//Sxr75hmhbJKVk+EFsh1Svp15ZVX4YH7MeQtwvCVEFBlGYcBmAgX66/BI+ARGG8IBFKHbA+iNtQAwq6xtk+L17idMHeqffvuLvvqDQ/af/7fHRZLJCzWt8mu/djf26vOPs4+dv2j9tarvmNfuuhoGywM2qXfvsXyySkUb0vbX3/kf9C9J5Fm8tZOMbcbr3iJnTh/st38ZI2u1Yi7EJFqS63qWUVZ2ly4kdKvQza/fQqsAPUY6TXiZVgJNhep8c84dpY99MQGu/S7y2E0TYhOeRK6p5CgNIa6RLG99NnX3/lyu2/NDvv6zx+1aAp7idvrTlbHL0owGUhtqVSTY5bRL33+W0QERgkjT7NzYlxmHd8hP3WPwIRGILBGKL+qyHfREqzKB20S31j9h7OOkYTIhbSYxISHtTdaS6qZmhb9ZO6OQZ3DlqWSH4ojXGRTFKJrpqiT6BbyS/MkW9JRtNltzdYUnWyFImTdLfirq+VRqNY0K7JKMCwvSlEom0QcRuFcT2EIchbSv3I4Zo89ucNegfrs8gsX2c/u32CPdiGpkC03gneYVGFJGNYXLjrJBvoH7V3fusNC6Q6YCvmxnGQz6uR1+0UpWxobyQaMsBEtYhdX5T8ZPnzzCHgEPALPOgJyl4Jk1wzXrdEc1LuEd9OgpSHAn37NEXbqomn22xXbrLu7i1V/xGKolEY2eU6FnButWVO5y3506VmEM0ft9w9tsEK+CEtCiYRRG9M1/7QgHqlS0kgBvdMcVOUvVs5YAxUCtw4EHlMjc1KJqXzpZw/a5q1z7dxjptt/LllEv7K942u/sg1ZpA+NxnBNDXEbhAuFyNgbbGPjSEHH9aue12Hgurku2hqgEmwbX6+BtFFBynr72/GqUqLDSESJvzRNvQQXNb4m7WfjEfAITCgEIDMBoST1IKvXc4+dQhGkIbvjgW02rcHsnCMa7b+vv8M+/ONH7T9vfsyGSglW7hD+KnkSgQ3DGvQ9wvaXnzjLOpIZu+jT19unf7nBrv7dKhbCMBZU8EFE+GjqPfKbhozAXo6embY03kJLH9rIsaif2KF9yoSrrOGD4bR9e1mnvf4rd9qb/v1nNiVt9q5Xn2aVwg5YUskylZhdds29Nm1Kg33gwoUEEMpldbRXlZhXuJSB4WUZGeILswwTS6IEjDpXlKDDMDaep3AbthzoprkLkwLzyxHHEb7sfe+wKz78Acty40Zy2QM9UX9+j4BHYGIhUBERhkSGUAc1lIasrYSX1MK4vf9lR9ljA2lbtmkHqifiyaS2gkhFiNyeMzkKkY5YYzpBnEaO1XzUshhKmuKkPs9stWQEIgbzkAQSQY1Vyu6w07BtxJFcGsPIHRDnqkJqFJgVjPHJUp+1FHfYktacfervjrNstMV+cMc6mJIW0SWngorBZaK4AL/4+Jk2E8O3Uop39fDO7BrxqCKRO6ouroqy208OpuwrN6yw8583xV44L+riUkaeNEmA4Edefay96ay5yDBDdtz0sH3+zafbzDTOvTCQD4DDOzHOR1nZj68WqPtU/2QVdp5VKzfjlgywiuasYOoJWRC8Mr4m7WfjEfAITAwEylCZJCv6qH3/w3/NQhXizKL8N39abVfdsMbCqUnW01ewZU9m7a0XPs/Oe2HYprROtvvu/5MddvSx1poM2YZSxH51z+P2odc+33760ZdZpWG2XfKxa+wN5xxu373sAtucDdvMBsq5bt5grz33dPvx8t85u8lo/GJIOnH710vOZrMKPEXsgcc228e+fAfuta2WR42kJIf92FFyzLWBjCNvOWuBzTh3pnXnKjYpWcbzKmSf++ltGMobkUYaLRNphNlF7Ef3dtvZx82yj7/hNPvjJ2+2PgzoalqUT2mM24sPa7WBw2fZT5Y+ZBeedpItmV6y04+ea0v/uNzOPb6NyoVm37ztMQITJYU4VZA7/sC/BFLRDTfcRMQ/zPg/v/GdSjqVtn/5l4/jykZNjhG6twM/2X2fgdN5crNPPCVnF/+/ZoCv2C9+GrWbbyC1QZ1e075fve/pERj/CIgYN1mvTSLyOEVkttbVnYW05aJTHLGOWQaDM4QaVc6hjf3W2txsj3ZmbQgD+txpSXtoTZeFmmdZNE+98aYhm9YUtTXdBdtSwrMKldFR0yp4QsXswY0ZIsvjNgN90ortxFG4BFnD+DTiXjutsYwtpA/GlbLuoZDtoGATYePOTbeI7j5eydg8qgluyqYtE2qyBJLJjHTWZrc32LbuIXuC+JFsoo0Ft1lbdNBJCT022X2PZ7ttdmPRtsKEduSqxB8JShLTwslF6xvMYBtptsbKgB09p9X+vG7QyrGUHdLQh7eY2bqhNJINi3jwGk/NJTqE00utFpq/8ETSzxMJGMFbQa5nUmTVYfOMow5vmp/yQYOASKBzc2VVHpI6CiJaZNWeYEUfYWFXYhUbgfYUIfIRCKZM1CFW3ZVYnL5ae+eCcq/UjpXiJIwh24rYDPinSGYyh1glylEVGAWR3LJTlKhsGnJ1xzXayNV71b3UEWZpXDRKoI6Rh5TmUkomsVMoXYm8ppgHucS15tY+zUbpRiLYMUJcj6LUy/RhGk6yCHM6RZbnSR6bUFR5deHqTPR8VhCkotAdAWYOFdlDXMonZkm0OzMAG804mBOTHxctD7M/4/TTCI6EX6Cao8npTPEcAtQ3j4BHwCPwzCIgIulsBxDOEK6ykFhIK9QGW4TIP/TXEV8XFcHmiOwhEOsQqnRHYWVL4CjousgVYwREVQtGnKiCPuIPTo4JxiJ9VbWNZBp0hcg7LysNSKtAyDWo5iH2QKUipAOlDRGpZyy9iEnwplk4o7uOdcQT2wo94VGalgZzqU+khoszn+optIcmpqgxmM9IaUL6OsZwa3bmptkE0SE6Zjy0AD/l/zrl1FO47CGLzpkzwxl21q3bGEx8PMzTz8Ej4BGYcAiI8I7dAibgdPqO0u6+p44PCOzYIz39rU6OcNKDxqhJCbuON9qBKJh3rU8wazGWsec/9tba0bu+j2Y5u+49EN81owhqvDBxLdG/f/3fELXZYB/60McIsiHSsSpWHYiJ+XN6BDwCHgGPwPhEIIoEeN111zkeEVV640Aggx+iqlIgjm8eAY+AR+C5QWB4HY6WZ49tpHZnjx33snNv59lVwbSX4Q6C3ZI1pDyL2erV64EHC87S396JsSNtMVKOoMarilnjT0w6CO6Ov0SPwEGGwF44xS5o7F/vXQ7er6+e/o2GSzZw0IfjFglSdIzj3j89TB88BAis8Wqq0XD5bx4Bj4BHwCMQsOwygYlve9tbLEJCXAIABYsMOrLqjzb2eMA8Ah4Bj4BH4GBHQLH3+JxFKtZAkkOlqApf/E+vs3e88x8tm83COAK3q4MdJn/9HgGPgEfAI1BDQAIFbsIl4lLiTZYiXXy0pSWBjaOBGsDyrZ4ohUdqF+zfPQIeAY+AR+CZQCBCkOLHP/6v1B7PEwAYSliCUoDSYsn/ONBceePQMwG0H8Mj4BHwCEwkBFJE1Ffwrop+7nNfQ2cVQ3fVbEXC88NBKPlEulZ/LR4Bj4BHwCPwDCAQi1EXBb/oaImkKCWXbkQR9N7G8Qxg64fwCHgEPAITDgEJFu+/7P3YObLKVRWopQI/3Ql3rf6CPAIeAY+AR+AZQECCRT6XJYyDbMCXvvf/OSv55Zd/xBobSC3sm0fAI+AR8Ah4BHZBQHF+69atJxsxNcfLFHEqk3bEN4+AR8Aj4BHwCOwWAZyn/vd/r8Mzl5QjpVIBo3gO+4b3pNotYH6HR8Aj4BE4iBEQd4jFooH3LV+iX/jcN3DDjVg61Vx1xyXYw2fIPYgfEX/pHgGPgEdgNAIK11AA4AknnGCUe6eWCkxDFbCCPFU+5chouPw3j4BHwCPgERACRbLgnnbaqZThIACwvX2SKx6/bVu3R8cj4BHwCHgEPAK7RSDiao5TvfGtb/47OEiTffhDn6CQU4Mykuz2IL/DI+AR8Ah4BA5OBKIwjV/84gZXmSNadgV1STVCASfF/2Ew980j4BHwCHgEPAJPQeCJJ1bBJIgcv/PO+5E4kpYkB4l0WFjIn9LZb/AIeAQ8Ah6BgxwBeEOpWAgKOd1xx93OxUoFyJWDxDvlHuQPh798j4BHwCMwCoFAmFDoxpvf8iYCAEt4VVE/1hUGdHEcPlfVKLz8F4+AR8AjcNAjEDCOMBLHpEktVADMWPiiN77W3vrWN1oum0Py8Gqqg/4Z8QB4BDwCHoExEFDIRjKZsFRyktxxpzgbRxnJw/ENr6saAzK/ySPgEfAIHNwIKMnhJz7xryipMI5XQlGLxlNWwDAejkatXMD44ZtHwCPgEfAIeAQcAjJnEC5ucewbeidX1Re+8J+44UatpWUyKXPzfPbqKv+0eAQ8Ah4Bj8BoBCrEalA91mUZiRYL0k0pO27EQo5pFEf39t88Ah4Bj4BH4CBGIHCaqlTydhmFnCIRIsdDYUX8IWXIxuGjxg/ih8NfukfAI+ARGBuBELxBgkUuN8Q7SQ7f+76LLR5rsX/5yCdJOZJGDBn7QL/VI+AR8Ah4BA5GBIJ0IiHccTdt7LFwpCiLh7yppKqSiirocDBC46/ZI+AR8Ah4BHaPQIgsVT/4wQ8xlBMAWCxEsJRHXG9xlCC9+u4P9ns8Ah4Bj4BH4OBEIEoxJ5k28Kr6Om8RSykzrs9weHA+Df6qPQIeAY/AXhAoEbJx/DHHWSyOxCGbhkSPCMWcfPMIeAQ8Ah4Bj8BYCJQQLM4550WUkB2yaHNzypWOHegfGquv3+YR8Ah4BDwCHgGLEvwn5hGmhGz07W+/2FKpJvxzP2yNDQ0eHo+AR8Aj4BHwCIyJwK9v/jWmDUrHlkp5U7pcHzA+Jk5+o0fAI+AROOgRUJSGcoqsWPEIvlXEcdz/wJ+J40iRKjeCrSPYyZtvHgGPgEfAI+ARcAiIaYQoHVus5jKMLv3NHWwJWyKerkLkYzn8s+IR8Ah4BDwCoxGQ1+0b3vAPhG9g43AyhjyrQoSUj+7nv3kEPAIegQmAgNelPBM3sVQsWnt7O4wja+G/e+3L7R/e8Boy45JOXUlIfPMIeAQ8AnWIgFOnMG9XzNTNX/RspAZl9NJ45Df1GsleSuzUttrfyH1use2W2SNHcCfkRdtG/tW21/97BFVVjADAaDRl0bnzOijk1IyBXBUA4w68+r9EfwUeAY/AwYTASPZQc/QJV0rQNFcYm1c+kRkjIOpoVxwnGNay7Lpkdixh54syagQ5xGFLO9nCML4arNbcQbUvvI/cN2JzHX5UZpF/+7d/h5uiqgpZAuN40l2GSzmiTz7TYR3eVj9lj8DBi4CSJtVIdKhKv8oUqVN9IUU8Y9m1bC5rOYheFoZSqmpXxAbcH0QxSmW7mOg++5VaI0afaJzYBb6rlJHbhbomzMpbtPJgbSHh8rnPfZX86lFrbGy2okChPKBvHgGPgEdgPCMgJuEIeXWSFcg/dN8R9AIlItJzDrVpc+Za66zZ1tox25pap1sJZlAUe4mFHZPR8Y78wwTCYhz8xaGF7Q0wm2zOBjq7bNO61bZh1QO29omV1rNxizXEk1YpljkXjASmNBb7cNIM85HdWBLKaHVZdcJ1+CbMFboRAt9osViCYUikAzzPNOrwdvopewQOBgREgKusAsosIlbGEFGE0EdaGq3jyBNs4THHW+OchZYhfVIhP2TFMpIF/XaQi28HkkaZCqcVDZEfVmxpHG3TFinqO5obrSsfgynELDxtuk2f1mHTl5xsJ7M/lYhbEqK57qEH7YG7fm9rH15uFRhMmPNo2EAIqTAWZfImlLNRIEwUCxn7yEeuQAoriMkKOjXefb6qAAr/6hHwCIwrBESOyyLGqJxE95OTp9qCk061jhNPsXDDJOvPlm0ICWAgU7Sy6By0rBJGpTTmVQTZwGu71D0CHUzyoSGZ4kywG7iJDOSuBRzBMnm2w4Dihy620xYeaeclEjbQs9Xuu+VmW33XXZYZ6rM4jKVCZLUkoODwYSZVHa1u3yRYZHM5i5QyKuT0zy4A8F8+chWFnBp9WvW6va1+4h6BCYoAhFuEmEQX1jhthj3vgldaw9zFNlgoW7f2FSDREZF/VCiOWUCsYTAor/YBEFgSTCPOEFNamsWenFeWRlNzEknwMfjO+MVI3PpyJdvQnbFsPm7pMy6wM1/4Uut59DF78JfX2VDnRkuEZVepcZ4RA9TxR9l1Oju34lWFWi8o4FSTOur4qvzUPQIegQmJgGzdgxhkl7zmImtafKzlwknrKlTtsRB9ZAOuW0xCDKbEX41gQ/4lpTjyVmMFwxC52kM6nv2peMySqL2kBJPqqqRjOGfQNC4arkLeBghb6M9XrIDBvayOOhVMaisSTujQw+0F7/ugbb//Hvvjj3+A6ktz2hfmFZxlvL+GYZrf+973EboqsnEgejlXB9cAlAAANmhJREFUAsBxAI/36fv5eQQ8AhMdAdb9wSVC+AfDCTvv0o9Yf8Nkczm8y5QudbshyjtpVo1ZiG1oY/V4tz8g8JA7tsuLCiIPsSuWVPUUyQQVTOOkdiSPIuUliGdjfKnGxI4ySBYDmTzSTc6KMoizLeAWnMFxJLZwjgoZY3WqrTlGPOIk++vLF9uPP/Eha4o5VsT5mA/9ayO4YermRdcGdhXFcfAmxvHFL3wDMKKoqZpcIacJJl3Vza3xE/UIeASGEYhCuLVW7y9H7ex3vNcGmtsCt1rXxXGD4c5jftLRYh5iI9giBkq2atVG6++DAeSQS8piAcE4JRhCJLIKZ6uKTW5qsI7pDTZn5mTOn0OyyFsZk4jo4tg+VKNPXlJHCOzqRINd+J4r7Ldf+gQCiVhQlZGN7l5X3yqVoi1efBiqqojiOMSFMSSJmzoOWlfX4ifrEfAITEAE3NocQ/TUBUeZtc3FjVaEVwR4X5uYAn+VhN1++xOWzcRI5Cp2lHCutBIddrIfPsucXUQ/lest2Kbufrv/wc02dVrSjjt+GuPQQcJNNbJwODL9qXMRc6E3tDRuPVNnmLW0Wmhwu5tLfUobusaA6ZUreTv33LNcXQ5kNm4GfxLNfPMIeAQ8AgceAanN5dUUtsnz5mLTwDTOanf/msg3aq6hnOUz8sjCdZfFcRDrIUIoMl79hydUBC4SxlaB7AGZRH0fb7L+HpWbwC1X/SRJcPCemIbmJ2ZUQr0mtReuWtY8d547rn6Zhq5KrLPGH1DhoeKLfuDytwNSo33w8o9bg/eqClDyrx4Bj8ABREAGamIxIORlFyKQYC55/mrE66lTG6kIEvGWFxYjQNMiduoLFtkDf15j2cEh1PFEkzO23HqD8cLIMWJUkmZwNYW5lGBS7R1T7MijjoRicl7iNKSRUZDg3pqOD9hHhFiSgmUxmSjViZQ5lZpNZG+DjLv92Dh0/diCbrnlDsdEnXE8GtGOmtSxd3DG3XX5CXkEPAITDAGYBAR+/bptNrWsgDyszntpjmbTJ0gHArHGjhHHvtA0KWp/97JjXHK+oaGybevqtV5KZffsGMJTCqYBYU+k4tbcHLemhqTF4hjH8ZoKhcRoAqaxrylGaip/SRhFAglzuZqZv77pqrt+mPiDf37IMZHow8tXWSKRwrNK5nJxy/q+wL08W363R8AjUCcIONVRJWYP3r/anrdkHkS8P1jM72b+NYEgTExHOh6xFhx+4ogi2q5yp1ByvJxwve2I2MyOFtvYRdYM5BLZLkQYcbJ1KjFMK/SXFAL5d+RQA/BX40y7OX+wWX05abHR/vC7P1lHRAGFGkS0tb6bwwgM9C96042/4WrgzBRyElC+eQQ8Ah6BA42ASG1IyQUhwls787bsnjV21NEzLR6VrUPSAG9S/8g+gU2hMZZwKb9TKaqZwjgiqJgiZfIqyS4RllFcfQP6FiIOpLunj8NlvdB5eOGbmMVO/yDGRBRhpxhKYKFwX0eRSB2tI2sNC0k0bTv6KvbHZQ9bODa5uk9SjfoF49R61897cJ0FGO/fv+614OwKOWn6XJJnGvVzH/1MPQITHoEQhB+CK1URC/jt2/N2662P2IIF023+IW1ksh2wBA6hjTAKpQmJYrWWV6joWJg4DK2OXZZcEX7RNsdpAtCGFMhXHK362skwariK0qtxaI0x6D3YKhkiYChiBVJ1lfHZLeTD9tjKTuvcDFMKNeGyijxTyjqJQxYUHVGfLbhqOZVNn9Fh0QgpR17+1y9xKUe+//0fWzKh9Or1enH1eUv8rD0CHoGnIiAJAYpvmW2dlp6et6FoA5SJ+IiVvbZhbbcdPn+KPe+YedbcUIZgQ5xhMIovkK3W6eN3GVLMQ/9i0Zj1dMk9dqQ5fZfOe/oqGloh1Trnk3uvYkR6enK2jjn1dPVZtoQhHykpQlB1LDdkg5vXWModExDfPQ1dD/visTgSB0EcCxfOs1QySKluCXeF9TB/P0ePgEdgAiMgJVKFMIHI0CZrGFxr2YYFxNUlkD7ClsOgvfzxblvx2GZD2LBD58+0I+a1WVtbE0cRW070tyiZpAI1CRxiGvrfPzAQbNhHOu5UTDrU9ZfMIMaQtn6M6woo7N0+aHmyISpug4xXeGUp4pzZ5zLW0Hk/zGMH7rkMANOr96YKgF/84pfwMpOqKgTIYT4EMfz1fm1+/h4Bj8CzioBkAQioaGGVPO/+dMpmu48U+imD4OnJoQkYQf8D11nHCa+wjenDcdGVKy1SBvEVCl4ukRX3gRVdBOytx5YB6UZ/NXNmhx06o8Xap022RFKeVSFLIh2oTsf2ns1mlD6NkGqp1pzlgXOJ0SghiVqI8XnB66pgfWTc7d4+YJs3byeQEHfdEpKNS2aljkm6ySM1byVSsStdSQOuvq1d91pmxVJLupQjGnH4fPpWX62acoR08ZRsgosi3f3HF/8bphHfaRx/2ve5vpDws/UIeAT2GwExAdQzNf0/ZNYt43c3DrsVWFxb+Ys077H/GOMoGK85krf++26wplkbrTzvNBIekh5JIzEc2aVcUF4Fr1DZEQYLFVv15ICtfbIX+raKxbFqcIiBYfuAeSgWIU5djQRFnWpNPFCkUZUC8wQMqmBgUbmn4I5K7FeJxBgDhoKKKmArbKtqugL+yXetwZlBRyRrpeU3WKZ3tTUS5qCmq97f63aHjLMXxb9kMv3YjqjHkSfTYz6fqQa3VNEYZxP20/EIeATGAwKszSG8xWKXvf7NszATDECQHQkfMbkRNIR0H3fc1m1rV7Eqd6qaEftGHLEvHxtD5Jja9CfLbF1hU+c+3/JTj8DukbB8BRVRKAgQVFU+NTEKqYsqMArK/UHUmTOvMpbHShA/YjkG3bxdd8eEgk9KvZRy1wjHcJvEUMRWnGG7ZkFnxS0bSUwJEdkX5V+60m3h9fdbYcPD1lTqszxeXfII0yFPX+pyUxgHLwEWxWLGrvzYBy2GBEchJ248Fyd4As44Dub5F01BV1JrXNHIr7XN/t0j4BF4WgiodGg4UrDnn0lNblbuQRMhrVKQqjTifnblpD32aMHWr5ar/9M63YiDWNOTK6kRb6jSqlutuGaZNU6da5WOo20o1WYFjN6RsOwMEZfAMCD4OmkgbSiliCPgqKtE9CsK1qi2mgDlFFVO5cL+nTtlHQn6ar8+izFFGSde2GEt2S6zjY/aUM9KPL1yJvciuRErbl1j7Eu0ee1U4/ldKUcETS43iJqQe/H+977DEvEGSgJeZck0lqa6bLuyPOlg4ZLuiUCE3HV3XV6jn7RH4MAjEII4ltD7R5AApEaKsPoMk/a8TMyEssKKZBqBdKQMhILyDsdQ8sCI9P9VAvz0rqK66ocxRCpZa8T2kd+6yRoLy+yUJW0244Rj7OF1CVvV2Wa9+XYrFPBsktSABKFUH2ViObRGjmJ/kEViJFEISLyUTTAJ7dLcXWEoVFbELoS5jhjXncYNtb15yA6ZvsOWLEzbfb++zVY8us4GugtUD4zinZqW3ZhzidEwUE2f9fQueBwdFTBOYdbdPYTEEVbBLG61y/oosQoIR4hw42jme5nKCM5QvVmSpMqWsaHcNt1C3zwCHoFnAIEYwXMh9PgirwrEKxWm2ic+sgIXzQa+F6nzXbQTT2m2cy5AGnGqnRG/TXfM0/016jg8k6Ds8SSE+/RGO/1Fs23WPGwbqIxylRV25jFiEiHrGyIzbU+zbexO2MYdaesZbLLu3pBlCgkbzCbwyiIgECY3mjDgPkvVviSh5o3xrFF63NqaCtY+KWyzpuRt9rSCzWjJWBqRolAawHFr0M4+AnVdeb6tWLHJfnXDerv/T93YVZKoqOik8ZXo0KnoeKvrFjAOSU///a1vO8eAaKnIDcHyHwI07ECIefV4hSMeRvew8p1VwlnnpuyMs48c/XzU4+X5OXsExgkCIaT4cnmWReODwYxUe+KxtMsD5QLwWG3PnC0pBHkE76O/tLngPQbBE9Ry+Q123ktn2/l/fYTF04Nkux2AUcnLimytUg5RC1uZaafGIja1fastnEaSRAh3WckS9S71kYIKtUAeSTKwRVTKKZjE9GogocrHSuklYqhssEhTXFdFhnYKnldQl+VyfTZYJn4ElVXb7JJd9M4W+9sdc+znP9loty/dgGQzh2Mldf2lCIyf46W0i+JUEMYDN/rZf/8GNzliyWTaipRjDFVFtPEz3X2ZyfBT4O6TYx5lm9yGi1y5yzOOfYHQ9/EI7BUBtPz81KShKKGaEt2QOtiphd2xwwkBZU+oubbuddg9dpBdIWfNU7bb5R89zVKNXTCMbUa5cRa7OpBfvObAxMTU3AofRiLFlgh3lIhu2TskiTgq4d5FAumvw10LW1PTVItXemE+Glhjalj1UU+kjEIGtdUANcZJfEj23IrUUW6/mKN6ZS3ZmLXXvjVtF7zsLLvi/b/nINXy0NH609n0Xr+tWCzZEYcvInIclZ/uvURO6ePq1/ofPAQR6TFZVSRj0xE5azcouPG1b/7dI+ARePoIiEQWWXHni0FxIgvhhUTwmyQM58FUGeKzvJwCwvp0z+QYlEYhRqJtRrdd+alTrBjeAtMIWILosJiBaLF7Z0OxqmaXrKC6GWUGcbwEmiA2pqJ/RWwymXyeeAykB4kd/IWRmiqxIdRQMWenCGPcRgljQzCJItHfuQLJFTk2JJU+YypeJJBYQINz0tXV+tDuciVnTW2r7GvXnG2XvP4XjL0AfMBCA4jO1mVzHNpd90svPB/pD3dcJ04BrDwNxDgEQv21YNY5Hog7buu33y19jIsM/LSdF0T9XZCfsUdgXCIggh6ByH7l20ss3ZhDbVWEwP6ZuhNJjMgYwIld6O6l7GqlA+IqgvmXNI6PbLQPXfkiwuvWQbMDRrCTRjnqrUWv+7/zRCLPItMq2qQPWSj66k3bsH0UMFwHjEZMRH3cH/1W9e7gM5IUhnyxvfaWBmuf0mgNootRDVS7Fh3BcWJaenev1Re+CB8xq2x5jX35W6+wf3r9HyxFUahq95G96+6z8FHTfY1edtm7XCGnD3/o45ZKycBVA8j1qauXaASJI9JKBs22EfPWw6Yb75tHwCPwlyKAdps15iacjliliwpHNtnNt7+GWDCNrMp3KG1y3RiQkUhIif70m4hUyJac3GGx1CZUU6zs0Yo4ZjDGoIFkMbyj9osfZGLLt/RYVsNRKLvWJJGoT61fsJ1vaGAyfFk7MGhb+TthHuffedIq4RzNLkbQF42mPjAb2UQia2zh4gbbuCYYvd5fla7+9tv/wGIBxlEsUfXKJeYCxGFc6/Yaa7dON08t8BKbABdWt3fET3wiIaD8UXI8cfSRn1U4UrRtPY8GTASmIeKiCOwQlDlYofK+c7mtX+e+twjjtU2dBDOSd1Igbezulzw8crDw1bll80gmUD8hceSVIkQHa87DnR3jGGtMdUmkok41FuguRvbS3uC7GKVa8C3Q2LgZoJ4KEfHePiNlG1bnwEBOwJrViJO7I+vnRYz7T3+6HwZOAODK1RsAt4UbvtMoUD9XsnOmAZOofQ2YRf1KTrXr8O8egfGGgLRDlXLa+nqwI6akqhr92xs1X2IoyoWhKrGs6fdHEuBRvUd/gSCrsNJAFu+pcINTU+2J6EYgai5Qo0rCa4NFMI4fO3uGbRvMknNK7vlFK5BwqSwpQhwEm4eCA2Xv0KYkBaAaYTZt+OM240EUguGUq7aT2pjBO51pDg/eayjou2Mm6MLkZZZ1tdJFi4L+Oqb+muZPlAv3ulJl4tHrr/uN4yAxcr0oNXEQ01F/l+Zn7BHwCDwHCIiIllvsff+8zNGLvdkxUskWCGiaiSGFOPK6b4xDZFasY4CU6YNEoMvusHfFl1gLKiI4QDgURZ2WgJ4lWBg3WGsjBnx8eqVVKbG/gCvtjsFO3HkJZmRsxSjoT59lmpE9JSwpRd/d655fRFolfJAoF++sQOHfOUCmXjLm1n8L7lmJ2iKvfs0riNmJEzkvFgk0gTi5bze1/oHwV+AR8Ag8LQSgvBW8kBKxGVBK5WqqrbV3N5roizyh1G9vfUePIRmlCElasWarHTlvKoxj5PEad5fGvMIE38UTMAsq8UXJZaXEhK6pezWsQulAykgdcdxLY1B7UT2RwZpE49RcbAv8pdzR+/QiGirGo+N6KBa1cnsf30baW/dpmHHYySHkYmnmzJ3h7FvR819yJn65Kbv++l/AScTTx7gh4/BS/JQ8Ah6B5x4Bp6eXzUK2DkcrtNYeq4nY6E9N7yOJvtu4lxcdQ9p0/KkKsbA9tLbLZk9psKktTSQqDIi91E3y5CK5CLQrhZNPEqLGH9KGm5pImeMINZagU0rdkrFMFqK+0w4jVjFM+XZ+dswk2CFJRU1Djhytdo3S1EhCySLVrN+y3bYM4e6rqMUqBjvH1CB12ST/YduIwJgRqaLHHHsYvsstdu21P6syjrq8Kj9pj4BH4DlAwNFPxzR0MqfY2c1Zq5TWEc7a59103e3msOWzIlcUbyKzxZPdg9bZO2Szp7ZYW8MkckclqLWRJndSHDWRYrhY67t1b0Dk3LBicrTaDCQNFMjyWiZhotta2zGij/q7xj5pZNRFaig1fQ7iRtzX6rgY3/m6ub/fNvaRVp1aH1GcBFS7YqgvjzZHx+vFHR0cWIevISLwv/KV/wIT4jhk11DxEwWpqMJTqSQPBt88Ah4Bj8C+ICBi+Gy0gGCverDLlvzVbLLf9ht2bhuCkD+2pdfWxwato2WSzetocES6RCh5BMKsP9k4ZCsf3TRPUomQ7nxwcEfACZzRO5AhRvcd+5tUUU59BROQvKUsG/2ZrG3pHbDuPEZ3tmk0JVcUo0mGWmztY318bmK7bDxqT5mY21oPL5LLctlcwEyPOfHMigxJA4MD5JYJmEc9XISfo0fAIzDREShj4xi0w04v25EvxqsnHixqA6lCDlGQYnJHxSHk7VMm2Yz2aTY11WIp1CkFCPlTW8mGMl0kO1QdEUkONTWbvjy1d22LCL5K1sreory/23cM2o6hrPUPIk3I/Zj9Liqd/YoVVL/GcsLu/EnINj2AZxn/aq2m8qp9r7f3DJ5pYsChQ4841UEWiHlweSHqm0fAI+ARGBcIOKdcW3RKyU44r8HysQzr3iqVZ/EuJlJTI2m6USi41vRKeji5qcEm41abTiUsleQvHrWeXvJRiZA7FVR1nKos4FxyJRtgryiQt0+5mXZQW7w3XyDAUcGNAYMQGxhFJeEGcsEtMiYFjixRbrJ7fxaxx5f1oUZrZsTaeTTDemyBlFQi5u+KK66wWJTSscP5U+R3PAqOerxCP2ePgEdgQiGAQbbSaCuXDdqaFRvspRctssS0PmI7UAxV6fFIwlyoRvdhabChgT6iv+XZFFA5GdPFaAjdcNaZXamdVDElOohByDVXw4sk6ntNw1STHeR2q6bThWEaEY6NVJKW3dBu1/5glYV2tHCehgnANILr1Kv4QzabsbwqP3716u9WUqlG+9CHPmoNaQJtqoAMd/efPAIeAY/AgUUgiNAuQcQHbNKsvJ10fqtNmYV0EIVFEHjhVEBVRiJCLybg6D3bZJdwxL96CdJQic7tjtTtbrsOrzEOjR4mIM7FfxST1r26ye64eYv1bMRmHG6DaWiuxMXhIlz/LZA45FBw8T/+IxKH0ti7SMAaHPV/if4KPAIegYmHgLySKthiw5UW64M4//yr/ZZsLtnhJ8Rt/hFpS8/ApsHyXylRpLoKUqLDHJAgArIHJjWOUH2v8pnRYLFP290+XnSs685nxyzYooJ3MZjFjk1hW/1QwVbct8MKuN/Gw03YVzhC8S3UQleW3YnQagjKFv71r+NVhUNVtFySI1kZV1xuCrq9ICBwIlyuvwaPgEdgoiAg4h2opKDgrPTT4clmgxV75LasPfy7QUskS9bcHrGOhSHrmNdgk6YQ29GAF1VS0ohEDKQTcmi5UcQcHGeooTP8RVHjEQp9hFXsA4N4WPaLQsTyA2HbsaVsW5/M2rY1RduyqYfqh8SMEBketlZLkfTRaWt4EaGFlNKogV73zANGWZWzxBsU66e4mdDCI092vCKIedTFeulDKPjmEfAIjC8ERuaM0qp/mJkEiil5L5XxeypTqU9JFqPK8p4uWBrJpKGFYnUk/043kvgwhZpJAeU1fiHG4lRKcdxNSXOyo2gZsoUM9ldskM/5obRVcjAgBImoS2PCwTJu8N/xB8G0c6xARVZDbjSDqm2tp/ed8hrOAnk79ND5uD/LCcHlYxECuFi5klo7oainq/Nz9Qh4BA4iBHZSKUe/Rb9Y5bMS1h9ihlNXKSpPcX6DO2AG611HJ3VIAgmkl10XybJHwFQqpCpBQpHUoCqHUWn04QDEv2FPUQ8YlEteCJOoBoy48dinvaPbMOEdvb2evgU4iRm/8pUvJ5ULNo5oTByS8opiuvXPHuvpbvi5egQ8As8YAqLaNaWK++hIuAQDdFV8Dgi6IrqD+A1935XIswmmIBuJy7RbZQpSPil54nB3qbCClIuurxuJPhxXO49GUnNG++Bjnb4KjFqrIoGNI3T1Nd+pxOPN5go5pRM7Ja5aV//uEfAIeATqF4GRK/5dJYxdr0p999Zn9DEipbAH/o88z3Cf+mccupYAE13pySef5DzJKOSkvCMUX8cqJMlDofG+eQQ8Ah6BiYHA/jCC3fUduX00g1BilJqUIfll5Pp8YuA34ioQqe5edje8gtiajRs6iarMobMS7/RMYwRM/qNHwCPwLCIgIjuWsmjXU47uN/pbre/YW2t7n733GBbzEqqbEq6qIWdx55o0mYnY5DYmWw/Gn9Ciw0+pyL4RgXEo4aGPAJyId9xfk0dg/CEg19cwcReEybnJaekqK4XcWZ2jDoSqHBgOHDEOmIxW/8Or/hrDGL1Vw2mPjN3aE+jmnf3C7Qk8svjoeu3KvGpjOscp3GkDeslW3HNlIdeKWy0Khzh9ttnLzj7JPvuTO23zULBdBnOdgSPpT7VBvkmrc0hrlJTk1BfZioZHjMaNErzos847PptsPLLhlO3lL5dxnOy/zjuAWQdgjLyU8XkJflYeAY/AxEBgZjpn5x/TZgUIUlhcZCfTqFh3LmY/v6+bqn1RIrBhIJCmCH1EoeR0GzAPMQY+sb0kXgLBdkwHki3tSU2FpD4aQ0GENQonphBEk4tc6+DaHn0j6pvXRVOidtoC8mORH71IAtj1nX22fH2/9UfbSGRIrRAyiR8xr8MO74jalMlNMA4y+IrRcawIrZiG4kAUjGi5Ibv0lWdZMddj7/neI0gosapkon4yyMtoz6Hjsgk3Md+izZ8/F3dcNFRnnXUG6dSj9uubb8HvmYCVcTlxPymPgEdgoiHQ0hizM593COVbyzYzMWjTGkr2YCfeShDVlT1Fu+5PndAkSlo7siW+EIWAI58obKDKRIQJ6b1hKlKzs4qHG1TYH1JCKoh42DETsQXcbGEeIs4BbZdUAPOQloV9I5tqkCtm5NBJIXvnWdPtj5vpk0jb/I5WYjsG7d9+cpct24IkQbXBby1dbdfdvZaa5tDOCMwApkMuEjdnOfIq95VLqohGp5TrJah8yJ2zBDPBl5W+Yn5k/tXncd6Url5lY2OU34iedNJxiE8pu/HGXzrGMc7n7qfnEfAITBAEHu02+8cv3Up114T9/fOSdvHZc+2SL/+OgOspVlDUNlX90oVOO25ukzWg43lwdZd1hlpZrScsRq3weS0Z20GW70R5wI6b32ZrtvXaEzviRlISO37OJNvQm7EntkWsGGuEsRRtVgMqIo4bIEPuksXTbChXtPvXZSwbnewIfQ1Wiks4RlRGYihQIOpf/vtW6zGi0SND9qW3n2efvOh0e+XH/s96EnNdLaN0kviRPMWckEri5Ywd0pCzw6anrI+5Ld/cb92lVliDGiyQ64KXUQa3aNOTGWtKp21VN3UOJYHswsBq8xkv72Fcmb/x9W86SYkEuYgduOO6ABokD1/IabzcJj8Pj8DERqAIUS4npsIIUA7FE5ZgVZ+LTbVyvA2D85DNiPbZN957vjWkiOgmkC8dD9tV37/DfrsSmsXK/hNvOM36OzfazIVHWq5QstmJjH3p+zfbG/7+b2EoOWuP5e2rNz5kP32QSHKq/n3odefbtMoWS7XPtMHskE0hTcmTW/rt3Vf/wfoj0yDr2Feg6oFaLFA3lbBpFKlfno+02VYM4Vdd81v76jteZOeedKj9+MGsnYCa6oNvfrG98XM3W+dg1N77V3PtglMWWleeSPUEBg2u473/db89vikLW4DBMD71Cm16uNOu/uBFduNdG+xLN9xvIboiC/E3WvoZH0+A5iWrTdz6STMvzVv0W1f/hIpVlGBMNJJzvoDaajxOfHzA52fhEfAIPDsI1IKPRX30Fy9n7QOvPR0jbM5e99HrLEdhpI++7mS77DUvtDuuug7K1WLp8qBNnTfdLvrUD6yLokpLr3ipvetvT7PX/dsPkDYK9h9vPd1eckK7/fT+5RDsiKUYq6M1aZd88fv2yI6InXtYyq549Sn2/IXT7ZYn8qTAwjICo5CqKtDpV68VSin1FsouW7V10MKpZjti/jSL/PkJS8BMGpB4QqUsbCFt5x812W6+4wH7zNIt1EbP2KI5LbZyPWqtqFNYWQyJo2Fos33702+wVes32deuv80qqXZ3zSLP47NpZqj5ACGHrUZghHt7Bm37dmRGRKeQWIlvHgGPgEfgACOQjpTsWMrCLr3tXuvMULIUVc41P7rJmsIZa0vnMQ1gAMcscOv9m2xDcaplEnNsO0UyOntz9vDAZMulWm1tT9ZaEng0YUcoyy5C21ZM26PbKzYUa7VlayjQRD3aExfNcSqsqDymkDp211SPIuTGitjU1kkipU46kZWE1TeVBXNkyorZeScdZse05GxgaMge7E5bFo2ODPOSZOJUIPzme15uA0hQF3/+JsslpzimIWlD443PFmBXIgfYx6+6wj71qSupkSL0mXLYgaaJj9fJj09I/aw8Ah6Bp4uAaE9AlIIRgs/KKCu1VANM4s3nHW+vvaDJVeWLQ7gyJTLhppNW6VVp2ApFhRJIJYHbLcSM5a+M3qi+8HoSJStiDyk79ynJMTofqic+RkgZkiPLbiFXsAQKexfDxnmVlyqQDUQV1Y+XapPUEYU1xFGTdQ/mnHSipIoyuJcw8EdRtb31a3faZ956tn327edaS8rsh3c9aZ+7cQ2EFgUVHed2TLZYqmQ/WXq7RRo7sG2QX5dxpSarMbfa+cbXO35mCBaZTD9MnADAS993scVjTXblRz9hqRRX6ptHwCPgEXgOEIhBx4t4L0mNJLdVMYIwRmxFPhRxgc2x/ce33GffvRtVUBRmQcbCLPxiKJS2JB4+alFstDpO7rbKcCvDuVxhg1gK9svLyq3lReDl4QSrYowINgUZ2FMY3fvzA4EnlmMsYi5yxpWnlhRWgQtwqAxDCWXt0GkwsewOu/veR9x5sdK4OuP44Trd/8Zsi73uC7dYMlK2fzj9UHvjmR22bvOgXX9vnzv/yu6s3b+hx1537sl22yM32YpBzVmzCuQNoTB+G1IVBv9oDM+2cFgvmqqDdPzO2c/MI+ARmFAIqPyq3F4jFD4K8Sc32qKIKER4oBi39VR9PfOkY61MOu9+bBylcsyam6bAQOSjhGqd1X6RFXsR99eC7BCMpX8aV1JFwWlRMIwjIcg+IYaSTpUtTQBbDCa0ZFbckvGQPbhmO+QvzZha/TMfGIbiLDS2jg0X+2EKvTYz3muX/8MLLROfakv/vJ7RxDaCsrRhJJ8KdckPmYrMk2iyIcrIfv93jyHNIGXMlNeWitlGrBBJ2/eWPsG1he0/Ln2FNRU3uHmJpY1vpgFEuEN/+ctfs8999ssWLZEnOJpWERIAwjDu3Jon1OPpL8Yj4BEYbwhIXlAkA+ttp6LJhRuc6qjCKlZqpjyqpK/ddJ999vVL7LvvPtMeXtdlRx4y27aF2uwtn7sWFVUcxkAhpVCOOBCYQwTGIvUUhNoVG2JBLKEkSx+1IMCwYo2FHfat951vT27YYqcunGaPbcvbnY9uRhXWiqE7YDEuDkQq/HCMYLeIfe4tZ1oJZjB3ShobStYu/gzG+oa5btwyDEZEX6xpUXvavvmu0+3JTdts3ZPbbOG8NuvJR+1G4jyK9IvEktDXPGNNtfd85Wf244++1j759r+xd3/115aLtkKDxzfrEOONE1cjZ+LQoqNOFauGixP6j54uEogfDhT/4hHwCHgEni0EQqiWVGa1iOrp8MkDdsS0mF2/PMOqvIFVP6VYofyHtJTsRcdNs9aGtK1Yu81+99h2YiqaLcyC98V4RfUNFe2u9TlId9jOPXoS4QRlu2VFnyPCx86JW3s6bjev6HbxFV//pxfZ9KaS/ef//cGOWrzQtnb12P/dt9UGKkSHQ7NlK8kj8Ej3ElVQYnPMzphbIZYjhIqsYo9vG7RVW/LMr9HiUVX3K9u09KAtOaTNfrV80DJIQYc2V+ycI9swnjfa5m0DdtMDW21zPsGYZTtzATEoeIvdvnqA6w7bUVzvoo60/eHxHTgAYJgf54xD6sO584gcx/sstGDx8+HL8Myg1uGz9Yz4cT0CHgGPwNgIOPWU6nQr6lor+OFQOKf5Z5UelClFM0JZPxmp1Uf9Fc1Moj0IM+/kg3INlYqkhpr6JITKKVEcsK9e8gJrnZSyV3/qZ5YLNzrmomhvMQqN+BQ7A4whpHMEozM39QzmJunAzUlzpp9yTzFg0JOM41qIywNr5/VImHDqHGaquWkcSTUaXyo1tsmeMj5bgFCxmLXLL/+AJbD1UMhJgHExugbdEd88Ah4Bj8BzigB0B+Lp/jjvSIWNYxCooWqtRqIcQxGxlUOVI/q8VbPTaosjyjtX8FKy4EGFbaQIY3JngGE4aseACBRVdjD63JIKAiK/y3ZG2Ekrq/OuzVl8TJZ3fR9JTd11BJMNBnPMRlNxF+A8loL5sG28NjFLJLECEfWhb17z/Uoq1WSXXfZha2xoZMojL3e8XoGfl0fAI3BwIyBSPEyrxBhGtlGrd+X4ICHhaYtbrbe729B2OfWT6w+FD1b7NdI/cpTg88ixdj3PU3vvbcuepIrR17C3kZ67/cG85Ox8xumngzueZMUSxqVijaMP34jnblL+TB4Bj4BHYH8RENvYPbEfReDpFsLt9vbHZPsgaaIOwwOr1nY/StBj1Fi1g572+3hlDnu/ICnibv/DnUCHQ9X27dvJqUKqEfR3Yht7A3Hvw/seHgGPgEdgfCEgFYu0QmXp5H3bTwRUIwUbDqq+kAuCAcsFhy+pyGaDsSMwFslAU1Mk7ufwvrtHwCPgERjvCGiBvNNGwWeZQobN8eN99gdmfmIcciW+4KV/ZYmYEsZjGZJHVZB65MBMyp/VI+AR8Ah4BMYrAvL4gt0S63fYYfOpx4Hz8ymnPA+Dx/PhJkrVNVpR5TgzW2vv4/Wy/Lw8Ah4Bj4BH4NlCQBxAqVdIrB4jNxhBgNEXvvAkvjTb0lt+S8RlEzpAdRpuclWrNZ88t4aEf/cIeAQ8AgcLAoFdKIRm6uqrv4tLrpJBYvBQ6Vh5Oo/gEQcLIv46PQIeAY+AR2CPCATChIIee6ieqISUoRecdWElSvj8ho0bgyBAeYshdbjISH0cwU1U4L3W9FGii2wju+ZYcd2qY9T6q/dYfYf3D39yhitZrEaNEZxR+3Y9336NLfYozwrGH760PY2taYx1zuH56tOe8HD7nzJG1a40ah6jx6x9q52/9h5sH57z6GvR3v3BWv0Za9Q8tMLAy+4pc1bffcMj6DlW3+F573oftef/t3YmMHZVZRz/5r15w3SaVllKDVRQaFkqSAWkghShLDahsgQiatmRNFCVRVAsyKKCrUYFU1YTBAShoCBEkALKYg3QSLWymYIlBWSxagO0nems/n7feXdmWtpEotO+ee/de+7//L//933nnnPn3nP8GfJL+b7+74pX9T58/8YwNlR2+HHVZ8uphZoMjxD3bwxjY9srzOo9uZl0Gxi6bwijlP9vY09+TepVhXL287v8+F7iown6LoyN6fEesJMbv5B7fZ9vSI9iyv+mR4WRuviFn+LnYuf6PEqJod8Vr+p9aE/RY908cu970QMONrj/Zz0qjhuKD/dt0JbmQUWP5oiDvOjq6uThSmYZa+8Ye/HKlf9M8epM6MVULxlsuYg7dtS579lH9n2av58pjw36fm5tG8gE4FGQxGQ2e2934zpY3cfsfXwS8Lxdi0fqazyOby7aXjuzSf49RWwmKnMBXvGYSDnL9Pb6qL63fik4GB7Eyz/gu0j9AARdO8S/8FtH3SdB2d8/WKflmRIZ7AFu2JZXmb8Sjsxvk+uONLn38XedQc6Ukkc6moeFFEHsrN5pAcCXj7b48k60PvRAxbzFz7pa4NeEoN4h7HIsmrEzpyKAfw1BgLN5BkvORQ/vlZZnas1JvE89vI8Qpn1y8B/Y6lhD67zNUCuY5mC4HvLW6QV7mB5WmrzFVlcw1EMMOXNgnT9+ycN6fC/Yw/Rge7Gp7K+55kEfmjC/kHroM03KRW9SF+pKrGZ8wEFe62KUuDEo+1N/fEs8tkSFzdKb6pE+U49G6oSF6Tf7O0z1rBMzsAcxFGqAmUvRzok8+3NaCnkYY+rnfvVEX+biyVhFIrVUW35RVnUYlWODcAUbPRip+1CAsTeApr78MWfEzTrhp2/78WkdPxYM/eXfFMWGM/qXfCu+LfFbsDmA/8Yj3CjrwqPQSBxzyph1nQdzI/0nquIn9gZyEX8X34LlRIDYjKpNPbSRrxvRI7lQQMo1pidUH3UbjD310BZNI59d39ufoofx5DfbCf2I7alHhTFMD0qkHpQbWCcXwchcLFprc83nMlKPgltiCn6DeshnSI/cD2/9UOwUQ1t8Rw/rSz3UqeS5dWZ8sM+y2liO5yP7bBOdObbkovrrrxK/pazxMzz2jA/1SCXQkhrJRdvObMQzXuCMYK7I6pKz1pc5Wunhk++JUeLD2HN/jTVo1dl4g2XiDVTtnhgZv0N6lNhcPxdL7DndSj8TSEIEbrazEd8475yYehArM+6y6/g46KD9o9HKouwXXRojRo6KMZu/P04+5SSWCeyMpUtfjPt/87tsEPabsnfsuedHmUW3Ne64/e549ZXXIdYTX/ryrBixiWsGs7zjhZdEe3tHbLrZ6Jg58yTOUGti2d9eiXvuuQ8CEXvv8/GYPHkvCA3E3b+6N5Yvfx1CfXHa6V+M9hGNGNkxOs4//1vRwSLuo0d3xKxZp8VaJoFfvvzluOuue0Cox16Td4t99tkzG9J7f/0A+C+B0RunzjyZY0ZFW1s764tcBo+RPA3fHl85cybzyK+JvzNr5fxb78TJLbHHHpNiypQpHNYX9y9YEC++IEZg94zYdNNR/L2nPb7z7TnR4MGhEZvU4+yvngFGZ7z++oq49ee/xAG1+NikXeKAqZ/0sHjogcfiuedf4HNvHH/csbHlmC3QtBFz5szFmQ3w6jydf1Z0dq2KFW+ujJtuugUd67HLrjuj/4HR09MTjz7yh3j22aWpx4zjPhtbjt2MZ2xGxtw5l1ODwdkfs2d/Pdau6Yx/8QTsT6+/EYxGTJw4IaZNm8rSv92xcOGiWLLk6eRxzDFHxbhxWxN8jbj8R1em5kRoXHDx12LVqrd5rY2rr74envXYYcfxMX36oSxs0x1PPP54LF4sRkscffT02GbbrTJw5s27Fn+atN3EyuxYA4/Vqzrjqqt+wiyiI2L8+G3iiCMPy7UUFi36Yzz5xBJ498Zhh0+P7bfbnsnRanHNNdfG6tVdYPTFRReL8Ta69saPr7gyZzX90IfHUeeRxF5PLH5qSTz++GJMH4jphx0SEyZMwB+NuO7a6+Ptt5gPiLUYZp9/XnR3dUVPd2/84IdX5OydH9xmXBxzzNFgdKHFkvj9Y39KHtOmHRg777wDvmuJG264JVb++x006Smadndl8n/3sjkZx1tvNTZmHPsFMNbGM888E488vBCMHnx1CD7bic8tccvNt8aKFayzEN1x7jlngkvjRcNy6aXfi03aOmLs2M3jxBOPZ73srvjr8y/GggUPcNxA7H/AvjFp0m5+jNvmz4833liReXTW2WdmQ+HsrpdcMgffd8QWY94Xp5xyQjMXl5GLvwUjYsp+nyAXd6d8nVy8M1599VUwemMWuWgeDuXiJuTipuTiKdlbXLZsWdxz90PJY++9zcXdh3Lx5ZLPp8+aSe60kYuj4vwLLmQqcnLxfeTi6acRv13k4vKSizSYe02eTC7ulSeCe++9j1x8DezuOPXUk8hFJgNkLXHX+mlvHxUdI9vijDPIAXLxtdfejPm3zaczUIs9aFP23XcKjV2Vi8vQpodcPJlcHE1ctJGLc3nviBHt5uKZiVFy8RfZQZk06SMx9YBPKWk8+ODD8fxzrJdBjB13wudjDLno4waZizTOjbZ6nHvuuYmxYsU/4qYb72C6q9b060EH708skYuPkovPLE1NZxz7OXy5RbZrc+d8P+twBcLZs8+LzmG5aIdr4sSJ5OLBzVxcGEv+bJvQTTyaix9o5uI8NLdx7yGPLiAfyMV3OsnFa/nDc2vsuBO5eOihxE2Vi38Bo5e8OIpcHJcnmHnzromuThr8ga6Si52rYzUYmYtcQRo/Yds48ojDo6e3JxYtWhxPPvkkGH1xxOGfie222w6MKhc7M/Yuuvib5OIqNOkkF69LzUsuHp45sPipp2lbFsJpTfT2cZL99LQpiMYqWO30pO1OAc98kAjNHPm1tRjKWYeGwjNujcVJGsxfbwLZIJg8GtTa4DMTX9XrvTTm7vOszNmSee/LdO32JsSjZ0OZWt2lH+2dWpbeKw5ubeVOYU500eKEZqWnouD1VqZMZupkeeQZ3R6/a4jAxXfn8fc2scKZsy6ca/UeeLDiCL0bsVobnIuzLI0e/zzr1pIHvVi5kPC0Te7JelqYi6XY0gUGy8oMUH+rIyJ59KQeNj5yaGuzv1BsA4AfbZFH0aP0cEvvvTX1wH5XHINXalPj4UtsrCXv0pOSSZ2lxxrwViNtE1o/6JdIbHsD9rIcEaorn1MX/WLvAxuSh3qwnjI2qIc9CDuGdfTONRDQXj18sKdep2zyKD0Vezri2hPLpToTQz2Y5AyfF62bvRLKyKOBHsaEeCkH2taxt1anYUY7fT3QHGUaH9HUOvmJoR74pqVmjOAXYy3tQo+MPWOp2Kge2qJGNWztZ01pDszvGXscJ//UA2w1LbEjM2OsnAQta/y1ZOy5j/iVN+WLtk096M3V0N8TuHrIvcSvfuEjeDWOyV4a9fmd9opy2qX+9GLJscIDfyU3ytmDtYeKTiX29JO2FDv1lRge12/cNO1qq3Ix8wgC5FyxQ1866tNGialplYtqKp+iTdqCPeLbWBuXlm1levKMPXvm9In1W4mZgl1610wQiL8qPdQqc067qVZb1KOvaYvYDebGK3lrnjOyddTANfDkp5/h4giYUtRHHKTd2lL0SJ/rnuZ2v/vZ4xosE2u86Mdit5pWPlRT9KROT7D0B1OrzDH1kCsYgzEiD+wo8Yke5iLtUY4qGak6IiqxV/QoVyvIxYzfKheNPbB5VTyMaTkbG8a8bYIaBfFuG6QedkBq8K5iNbdnLsJRW8Gw8yY3sVJr8BLbEQJl1ITzbdZjTufDe3wbtE8MeKlzf/q25EnG2CCGtqGfPubdGF258i06hnxXgLzMY7IQZDkkxwCfsMyhD0MwG6cyBHIIqaMNGDPCE4TDKN6o3BOPwy2aVI5nm1wyMAzedvaXZRwVeQjDfQwJc2jPkVxi8lUuDRBAiaGIBrL7S1nP2F5uSB5cishhpbyp2G15GSxxCRSw3e/20tAyvOX4xMAE1yEBnH8OFbERHOupO7kaSz4a4IpmAhUMsBwio0U/5Qtn9Sj6eWdasVGO6lrKJYTl89IdUy17iUcM9WBiNOtMDC+FwdmX9Ymv4/Pyh0mFKOphI5SX7bJs0aMMKVmDAH6WH9SDUUfqrC1s16bEppzTMDiET7vVw3MhP3mJUp0wXTsKDy/7NH3ejIWWtMdk0hZxsYVGVs7qlNiAiFujV6bWRVNjRBst187Wph7ax3HyM9HVyzr7+7zEV+JDTbMRSFvEtpz+lV+x0eMSg7Je/iyaNu0Wm+3JI3UqWrfgk4pHXjagUav8or+KLVXsFd9mDhg32t7kbSwZG8bTIA8W99HOyudKUWzE7/o349dt8jaW1BQMXmpcbfN93fhQJ7iRp9ZpTquHscANlFlfxp65qK+wewiDz8RGXrpTU3Mg9ah4OB1R8Xnecdm8LGN8lXw21is9jF+05jWkNXlk/LJNv7jdOoot6jGUA16WKf4qbY65L7aXU/OyYOZh8VnBMHaNncJZ3tpcNIV3Xrap9Cj7WPUbTHkgmSmtzU1dBjWtcpH69IG4vsTV5kqPbJvojMmv8FCnZruCjwY1bfIruYHWLj/Y1EPcEuNgZ+wZH9Zpm6DtVZuATs34KLlozBRNSy6pKXoYN9Q3aAvfix7kV8avepT2o2w3P0vsZaxmntuGD8fQ7jZOUCPj5p/dHsteWhb/AdaVujVByp1ZAAAAAElFTkSuQmCC;" vertex="1" parent="1">
          <mxGeometry x="1680" width="398" height="357" as="geometry" />
        </mxCell>
        <mxCell id="4GKKFWEUCo8rr3pjgwcH-41" value="" style="edgeStyle=orthogonalEdgeStyle;rounded=0;orthogonalLoop=1;jettySize=auto;html=1;" edge="1" parent="1" source="4GKKFWEUCo8rr3pjgwcH-38" target="4GKKFWEUCo8rr3pjgwcH-40">
          <mxGeometry relative="1" as="geometry" />
        </mxCell>
        <mxCell id="4GKKFWEUCo8rr3pjgwcH-43" value="" style="edgeStyle=orthogonalEdgeStyle;rounded=0;orthogonalLoop=1;jettySize=auto;html=1;" edge="1" parent="1" source="4GKKFWEUCo8rr3pjgwcH-38" target="4GKKFWEUCo8rr3pjgwcH-42">
          <mxGeometry relative="1" as="geometry" />
        </mxCell>
        <mxCell id="4GKKFWEUCo8rr3pjgwcH-45" value="" style="edgeStyle=orthogonalEdgeStyle;rounded=0;orthogonalLoop=1;jettySize=auto;html=1;" edge="1" parent="1" source="4GKKFWEUCo8rr3pjgwcH-38" target="4GKKFWEUCo8rr3pjgwcH-44">
          <mxGeometry relative="1" as="geometry" />
        </mxCell>
        <mxCell id="4GKKFWEUCo8rr3pjgwcH-38" value="VM Networking" style="whiteSpace=wrap;html=1;rounded=1;" vertex="1" parent="1">
          <mxGeometry x="500" y="120" width="120" height="40" as="geometry" />
        </mxCell>
        <UserObject label="Virtual Machine" tooltip="VM SKU influence network capabilities. " id="4GKKFWEUCo8rr3pjgwcH-40">
          <mxCell style="whiteSpace=wrap;html=1;rounded=1;" vertex="1" parent="1">
            <mxGeometry x="200" y="-80" width="120" height="40" as="geometry" />
          </mxCell>
        </UserObject>
        <UserObject label="NIC" tooltip="Standalone resource that belong to a subnet in a Vnet in a region." id="4GKKFWEUCo8rr3pjgwcH-42">
          <mxCell style="whiteSpace=wrap;html=1;rounded=1;" vertex="1" parent="1">
            <mxGeometry x="500" y="-80" width="120" height="40" as="geometry" />
          </mxCell>
        </UserObject>
        <UserObject label="IP Configurations" tooltip="Configuration of private IPv4/IPv6 address and (if any) associated public IP address" id="4GKKFWEUCo8rr3pjgwcH-44">
          <mxCell style="whiteSpace=wrap;html=1;rounded=1;" vertex="1" parent="1">
            <mxGeometry x="800" y="-80" width="120" height="40" as="geometry" />
          </mxCell>
        </UserObject>
      </root>
    </mxGraphModel>
  </diagram>
</mxfile>
